<?xml version="1.0" standalone="no"?>
<!DOCTYPE svg PUBLIC "-//W3C//DTD SVG 1.1//EN" "http://www.w3.org/Graphics/SVG/1.1/DTD/svg11.dtd" >
<svg xmlns="http://www.w3.org/2000/svg" xmlns:xlink="http://www.w3.org/1999/xlink" version="1.1">
<metadata>
Created by FontForge 20170924 at Sun Mar 20 13:43:37 2016
 By www-data
Comic Book (c) (Neale Davidson). 2011-2016. All Rights Reserved
</metadata>
<defs>
<font id="ComicBook" horiz-adv-x="1650" >
  <font-face 
    font-family="Comic Book"
    font-weight="400"
    font-stretch="normal"
    units-per-em="2048"
    panose-1="2 0 5 0 0 0 0 0 0 0"
    ascent="1638"
    descent="-410"
    x-height="1157"
    cap-height="1480"
    bbox="-202 -641 2218 2200"
    underline-thickness="150"
    underline-position="-292"
    unicode-range="U+001D-2265"
  />
<missing-glyph 
d="M0 200v1100q0 200 200 200h1100q200 0 200 -200v-1100q0 -200 -200 -200h-1100q-200 0 -200 200zM1475 201v1099q0 175 -175 175h-1100q-174 0 -175 -175v-1100q1 -175 175 -175h1101q174 0 174 176z" />
    <glyph glyph-name=".notdef" 
d="M0 200v1100q0 200 200 200h1100q200 0 200 -200v-1100q0 -200 -200 -200h-1100q-200 0 -200 200zM1475 201v1099q0 175 -175 175h-1100q-174 0 -175 -175v-1100q1 -175 175 -175h1101q174 0 174 176z" />
    <glyph glyph-name=".null" horiz-adv-x="0" 
 />
    <glyph glyph-name=".null" horiz-adv-x="0" 
 />
    <glyph glyph-name="nonmarkingreturn" horiz-adv-x="0" 
 />
    <glyph glyph-name="space" unicode=" " horiz-adv-x="1000" 
 />
    <glyph glyph-name="space" unicode="&#xa0;" horiz-adv-x="1000" 
 />
    <glyph glyph-name="exclam" unicode="!" horiz-adv-x="968" 
d="M200 986q7 37 58 432q17 47 156 47q37 0 158 -6q70 -3 119 -3q24 0 42 1h5q65 0 78 -47l1 -8q1 -8 1 -17q0 -125 -229 -436q-142 -349 -142 -406v-5l1 -2q1 -4 3 -5t2 -2q0 -6 -72 -6q-62 0 -166 4q-37 2 -91 4q23 23 37 154q30 250 39 301zM237 379q119 -45 142 -139
l1 -8q1 -9 1 -19q0 -23 -8 -51l-19 -40q-35 -51 -70 -81q-54 -40 -107 -41q-38 0 -70 15q-80 46 -101 125q-2 10 -4 19q-2 13 -2 25q0 44 25 78l56 71l6 8q45 42 95 43q28 0 55 -5z" />
    <glyph glyph-name="quotedbl" unicode="&#x22;" horiz-adv-x="982" 
d="M237 1445q118 -45 141 -139q2 -5 3 -10q1 -7 1 -15q0 -24 -10 -53q-17 -50 -63 -123q-36 -88 -95 -121q-16 -4 -33 -4q-44 0 -88 26q46 59 49 104l-2 13q-17 67 -134 67q-3 10 -4 19q-2 15 -2 29q0 47 24 90l56 71l6 8q45 42 96 43q28 0 55 -5zM688 1445
q118 -45 142 -139l1 -8q1 -8 1 -16q0 -25 -9 -54q-16 -50 -63 -123q-36 -88 -95 -121q-16 -4 -33 -4q-44 0 -87 26q45 59 47 104v7q0 3 -2 6q-17 67 -134 67q-2 9 -4 19q-2 14 -2 27q0 48 25 92l56 71l6 8q44 42 95 43q28 0 56 -5z" />
    <glyph glyph-name="numbersign" unicode="#" horiz-adv-x="1509" 
d="M740 722l12 118q-72 -2 -143 -4q-6 -65 -9 -125q73 6 140 11zM689 293q10 41 27 189q-71 -2 -140 -4q-18 -137 -31 -182q-3 -43 -149 -43q-172 0 -180 34v3q0 3 1 6q11 38 27 176q-27 0 -39 2v-1q0 -2 -2 -2q-12 0 -76 58q-80 72 -90 113v11q0 8 4 13q3 2 225 21l13 141
q-86 0 -109 2q0 -3 -2 -3q-12 0 -77 59q-80 71 -90 112l-1 6v6q0 8 4 13q5 4 296 26q19 211 25 236q5 45 134 45q131 0 179 -53q-2 -43 -12 -205q78 6 149 10q17 178 21 201q5 45 134 45q131 0 179 -54q-2 -36 -10 -182q94 -2 101 -14t61.5 -65.5t61.5 -80.5v-9
q0 -21 -27 -33q-34 -15 -214 -29l-10 -125q155 0 163 -13.5t62 -66.5t61 -80l1 -4v-6q0 -21 -27 -33q-39 -18 -282 -35q-19 -155 -33 -205q-3 -43 -149 -43q-172 0 -181 35v2q0 3 2 6z" />
    <glyph glyph-name="dollar" unicode="$" horiz-adv-x="1483" 
d="M1041 1316q156 -36 236 -124q25 -29 33 -58q3 -8 4 -15t1 -14q0 -39 -35 -70q-47 -42 -111 -42q-96 0 -132 89q-12 30 -86 54q-32 -90 -75 -227q368 -15 441 -279q7 -24 12 -61l3 -20q1 -8 1 -17q0 -114 -179 -230q-204 -131 -462 -131h-41q-62 -185 -94 -227
q-16 -3 -43 -3q-67 0 -123 21q-74 26 -87 77q-2 5 -3 11q-1 7 -1 14q0 19 8 41q18 52 35 104q-197 49 -329 161q-6 3 -7 9l-1 3v3q0 29 72 78q79 53 133 53q28 0 37 -18q28 -56 164 -89q53 157 106 312q-143 -1 -181 -11q-14 -5 -39 -5q-82 0 -173 34q-101 36 -114 85l-1 2
q-4 15 -6 29q-4 30 -4 57q0 72 30 129q36 69 125 128q78 43 154 87q51 30 185 54q125 25 253 29q35 82 50 97q14 14 39 14q51 0 127 -57q72 -54 78 -76v-1zM714 371q14 0 29 -1q17 -1 34 -1q135 0 194 57q55 52 55 170q0 12 -1 24l-1 8q-13 48 -169 73q-20 3 -41 5
q-40 -126 -84 -278q-8 -29 -16 -57zM679 1168q-62 -6 -102 -28l-174 -76q-94 -49 -94 -96v-7l1 -6l2 -7q19 -47 216 -47q14 0 54 1q55 156 97 266z" />
    <glyph glyph-name="percent" unicode="%" horiz-adv-x="1585" 
d="M340 -4q-3 -10 -21 -10q-39 0 -105.5 47t-77.5 90l-1 4q-1 5 -1 9q0 9 3 16q18 43 252 370q247 346 254 357q49 35 246 282q202 256 206 258q33 31 121 31q119 0 137 -72l1 -9q1 -7 1 -15q0 -19 -7 -41q-31 -96 -321 -426q-296 -336 -315 -377v1q-11 0 -170 -214
q-173 -229 -202 -301zM1429 352l4 -24q2 -15 2 -29q0 -51 -28 -96q-42 -57 -88 -115q-70 -93 -232 -93q-18 0 -38 1q-90 6 -179 70q-94 68 -117 163q-2 10 -4 19l-1 7q-4 30 -4 59q0 132 94 235q97 111 217 111q16 0 32 -2q120 -15 224 -117q94 -92 118 -189zM964 338v-12
q0 -11 1 -20l1 -9q12 -49 102 -49h5q98 0 98 63q0 7 -1 14t-3 13q-17 68 -92 76q-11 1 -21 1q-84 0 -90 -77zM686 1137q3 -11 4 -21q2 -16 2 -31q0 -52 -29 -98q-42 -57 -88 -114q-69 -94 -230 -94q-19 0 -39 1q-90 7 -179 70q-94 69 -119 164q-2 9 -3 18l-1 5q-4 30 -4 59
q0 133 93 237q98 111 219 111q16 0 31 -2q120 -14 224 -117q94 -92 119 -188zM220 1122v-11q0 -11 1 -20l2 -10q12 -49 102 -49h5q97 0 97 62q0 7 -1 15q-1 7 -3 13q-16 68 -90 76q-11 1 -21 1q-85 0 -92 -77z" />
    <glyph glyph-name="ampersand" unicode="&#x26;" horiz-adv-x="1297" 
d="M294 79q-48 19 -91 47q-105 71 -132 171l-4 22q-2 14 -2 29q0 141 204 288q-219 95 -259 246q-5 17 -7 34q-3 20 -3 40q0 140 155 244q174 118 406 118q58 0 116 -6q41 112 58 130q13 15 38 15q51 0 129 -63q72 -58 78 -83v-1q0 -3 -3 -3h-4q-10 0 -29 -46
q161 -49 176 -101l1 -5q1 -8 1 -15q0 -73 -106 -110q-18 50 -99 79q-12 4 -22 7q-38 -121 -92 -320q21 1 44 2q1 -28 1 -51q0 -104 -29 -104h-3q-4 1 -7 1q-16 0 -49 -9q-36 -136 -77 -300q-6 -25 -12 -48q20 7 40 15q143 57 228 150q4 6 13 6q36 0 110.5 -57.5t84.5 -98.5
v-9q0 -10 -5 -17q-33 -37 -263 -126q-174 -67 -270 -90q-60 -210 -92 -257q-16 -3 -43 -3q-67 0 -123 23q-75 29 -89 85q-2 6 -3 12q-1 8 -1 16q0 20 7 44q15 50 29 99zM614 1128q-54 -9 -101 -27q-280 -109 -280 -185v-11q14 -53 168 -94q37 -9 108 -13q60 194 105 330z
M418 493q-10 -6 -20 -13q-108 -71 -108 -133q0 -6 1 -11l1 -7l1 -4q12 -39 58 -57q33 112 67 225z" />
    <glyph glyph-name="quotesingle" unicode="'" horiz-adv-x="532" 
d="M238 1445q118 -45 141 -139l2 -10q1 -8 1 -16q0 -24 -10 -52q-16 -50 -62 -123q-37 -88 -95 -121q-16 -4 -33 -4q-44 0 -88 26q46 59 48 104l-2 13q-17 67 -134 67q-2 10 -4 19q-2 14 -2 28q0 47 24 91l57 71l5 8q45 42 96 43q28 0 56 -5z" />
    <glyph glyph-name="parenleft" unicode="(" horiz-adv-x="1004" 
d="M472 305q97 -47 216 -47q28 -53 37 -90q2 -7 3 -15q2 -10 2 -20q0 -73 -88 -133q-219 0 -369 76q-188 96 -238 297q-14 57 -23 113q-12 78 -12 153q0 263 142 494q218 356 615 356l96 -123q1 -13 1 -25q0 -38 -14 -69q-21 -47 -69 -49q-204 -13 -353 -242
q-112 -171 -112 -354q0 -46 7 -92q5 -32 12 -64q28 -109 147 -166z" />
    <glyph glyph-name="parenright" unicode=")" horiz-adv-x="1061" 
d="M440 63q-190 -63 -388 -63q-37 8 -48 51q-2 7 -3 13q-1 10 -1 20q0 44 23 96q33 74 74 78h21q174 0 312 125q130 117 190 301q37 110 37 208q0 36 -5 71q-4 21 -9 41q-26 106 -155 170q-105 51 -222 51q-69 4 -95 110q-3 14 -5 28q-2 16 -2 30q0 69 55 100
q228 0 424 -141.5t253 -368.5q5 -23 9 -47q6 -42 6 -88q0 -242 -179 -582q-66 -127 -292 -203z" />
    <glyph glyph-name="asterisk" unicode="*" horiz-adv-x="1164" 
d="M193 393q27 23 125 283q-64 -2 -105 -2t-59 2q-2 -3 -4 -3q-12 0 -70 59q-73 71 -79 112v4q-1 4 -1 7q1 8 6 12q6 6 283 36q-106 154 -219 310q29 53 160 53q129 0 151 -45q38 -60 86 -131l45 131q11 45 140 45q131 0 172 -53q-24 -62 -110 -273q63 3 105 3q80 0 85 -10
q9 -15 58 -68.5t52 -80.5l-1 -10q-2 -21 -29 -33q-46 -20 -262 -38q194 -285 225 -310q6 -4 6 -8v-4q-3 -31 -166 -31q-146 0 -168 43q1 1 2 3q-3 21 -68 120q-29 -80 -32 -109v-14q-7 -43 -152 -43q-172 0 -178 35l1 3q0 2 1 5z" />
    <glyph glyph-name="plus" unicode="+" horiz-adv-x="1170" 
d="M238 393q24 23 96 283q-63 -2 -104 -2t-60 2q-1 -3 -3 -3q-12 0 -76 59q-80 71 -90 112l-1 3v6q0 10 5 16q8 8 392 47q42 159 77 305q6 45 135 45q131 0 178 -53q-18 -62 -83 -273q63 3 105 3q80 0 86 -10q10 -15 64.5 -68.5t60.5 -80.5v-10q0 -21 -26 -33
q-56 -26 -361 -49q-68 -238 -68 -287v-9q0 -2 1 -3q-3 -43 -148 -43q-172 0 -181 35v3q0 2 1 5z" />
    <glyph glyph-name="comma" unicode="," horiz-adv-x="531" 
d="M237 295q118 -45 142 -139l1 -8q1 -9 1 -19q0 -23 -8 -51q-17 -50 -64 -123q-36 -88 -95 -121q-16 -4 -33 -4q-44 0 -87 26q45 59 47 104q1 2 1 4t-1 3q0 3 -1 6q-18 67 -135 67q-2 9 -3 19q-2 14 -2 29q0 46 25 90l55 71l7 8q44 42 94 43q28 0 56 -5z" />
    <glyph glyph-name="hyphen" unicode="-" horiz-adv-x="1170" 
d="M321 915q337 35 482 35q86 0 94 -12t62.5 -65.5t60.5 -80.5v-10q0 -21 -26 -33q-62 -28 -409 -51q-242 -16 -352 -16q-41 0 -63 2q-1 -3 -3 -3q-12 0 -76 59q-80 71 -90 112l-1 3v7q0 9 4 14q7 7 317 39z" />
    <glyph glyph-name="hyphen" unicode="&#xad;" horiz-adv-x="1170" 
d="M321 915q337 35 482 35q86 0 94 -12t62.5 -65.5t60.5 -80.5v-10q0 -21 -26 -33q-62 -28 -409 -51q-242 -16 -352 -16q-41 0 -63 2q-1 -3 -3 -3q-12 0 -76 59q-80 71 -90 112l-1 3v7q0 9 4 14q7 7 317 39z" />
    <glyph glyph-name="period" unicode="." horiz-adv-x="531" 
d="M237 379q119 -45 142 -139l1 -8q1 -9 1 -19q0 -23 -8 -51l-19 -40q-35 -51 -70 -81q-54 -40 -107 -41q-38 0 -70 15q-80 46 -101 125q-3 10 -4 19q-2 13 -2 25q0 44 25 78l56 71l6 8q44 42 95 43q28 0 55 -5z" />
    <glyph glyph-name="slash" unicode="/" horiz-adv-x="1371" 
d="M206 10q-3 -10 -22 -10q-38 0 -104.5 47t-77.5 90l-1 4q-1 5 -1 9q0 9 3 16q18 43 251 370q248 346 254 357q50 35 247 282q202 256 206 258q33 31 121 31q119 0 137 -72l1 -8q1 -7 1 -14q0 -20 -8 -43q-30 -96 -321 -426q-296 -336 -314 -377v1q-11 0 -170 -214
q-173 -229 -202 -301z" />
    <glyph glyph-name="zero" unicode="0" horiz-adv-x="1646" 
d="M1481 983q5 -23 9 -47q6 -42 6 -88q0 -242 -179 -582q-67 -127 -292 -203q-190 -63 -389 -63q-219 0 -369 76q-188 96 -238 297q-12 46 -19 92q-10 66 -10 133q0 151 51 303q84 258 282 420q207 172 471 172q227 0 423.5 -141.5t253.5 -368.5zM466 305q97 -47 216 -47
q209 0 404 269q153 212 153 386q0 29 -4 56q-3 18 -8 35q-26 106 -155 170q-105 51 -222 51q-282 0 -441 -235q-112 -163 -112 -350q0 -48 8 -99q5 -34 14 -70q28 -109 147 -166z" />
    <glyph glyph-name="one" unicode="1" horiz-adv-x="669" 
d="M29 117q129 544 190 909q-1 2 -5 2q-11 0 -86.5 -22.5t-94.5 -22.5q-6 0 -8 2q-4 3 -5 12q-3 10 -5 26q-7 49 -15 159q62 63 112 108q119 111 158 121q68 16 119 16q108 0 124 -66q2 -7 4 -16q2 -31 2 -62q0 -85 -14 -173q-15 -94 -26 -109q-45 -186 -92 -372
q-101 -410 -101 -494v-2q-27 -47 -57 -94q-24 -39 -70 -39q-10 0 -20 2q-81 12 -110 115z" />
    <glyph glyph-name="two" unicode="2" horiz-adv-x="1399" 
d="M292 961q-49 0 -118 62t-83 114l-1 7q-1 5 -1 11q0 92 231 188q170 62 339 123q45 19 96 19q145 0 283 -119q135 -118 175 -276q2 -12 5 -25l2 -10q2 -16 2 -33q0 -135 -161 -303q-137 -144 -362 -281l-200 -102q16 6 320 33q204 11 303 11q49 0 71 -3q33 -4 48 -64
q3 -13 5 -25q3 -19 3 -37q0 -28 -7 -56q-18 -64 -63 -64q-10 0 -47 9.5t-65 9.5q-234 0 -901 -150q-142 135 -164 219l-1 10q-1 8 -1 15q0 10 2 18q39 107 475 375q448 276 484 345q26 52 26 92q0 8 -1 15l-2 9q-18 73 -139 73q-53 0 -107 -16q-71 -20 -224 -90
q-146 -66 -197 -98q-11 -6 -25 -6z" />
    <glyph glyph-name="three" unicode="3" horiz-adv-x="1314" 
d="M611 0q-188 0 -369 61q-177 59 -194 122v6q-2 11 -2 21q0 81 104 124q19 -58 101.5 -91.5t186.5 -33.5q123 0 216 43q277 125 277 214q0 4 -1 8l-1 5q-15 62 -170 109q-67 20 -259 20q-82 0 -188 -4q-3 42 -3 74q0 106 28 106h3q3 -1 6 -1q36 0 161 50q154 64 247 140
q105 81 105 152q0 8 -1 15l-1 9l-2 4q-25 86 -169 86q-119 0 -249 -59q-142 -66 -225 -175q-4 -6 -13 -6q-36 0 -111.5 66.5t-86.5 114.5l-1 5v6q0 11 5 19q32 43 260.5 146.5t320.5 115.5q37 4 70 4q164 0 284 -92q107 -82 136 -198q3 -13 5 -26q3 -20 3 -39
q0 -161 -197 -329q221 -110 265 -286q5 -20 8 -40q4 -27 4 -53q0 -158 -150 -276q-171 -137 -403 -137z" />
    <glyph glyph-name="four" unicode="4" horiz-adv-x="1365" 
d="M1193 809q9 0 14 -21q2 -7 3 -16q5 -31 5 -86q0 -48 -4 -115q-139 -41 -161 -41q-23 0 -40 -8q-40 -405 -62 -463.5t-130 -58.5q-88 0 -100 46l-3 17q1 62 33 185q17 67 34 135q10 36 10 65q0 11 -1 20q-1 5 -3 11q-9 37 -42 51q-3 1 -12 1q-44 0 -233 -34
q-225 -42 -256 -57q-4 -1 -9 -1q-33 0 -131 73q-96 73 -104 107l-1 4q0 3 1 6q33 176 138 397l138 266q37 72 176 72q103 0 120 -64l1 -7q1 -7 1 -14q0 -22 -10 -50q-16 -41 -87 -148q-76 -114 -108 -178q-41 -86 -41 -156q0 -14 2 -28q1 -6 25 -6q70 0 283 41
q205 40 204 47v10q0 45 27 264q35 274 73 317.5t128 43.5q88 0 100 -50v-3q1 -4 1 -9q0 -8 -2 -16l-122 -557q115 8 145 8z" />
    <glyph glyph-name="five" unicode="5" horiz-adv-x="1366" 
d="M1048 1400q86 0 105 -12q44 -29 57 -82q3 -9 4 -18q2 -14 2 -28q0 -40 -17 -78q-27 -61 -74 -61q-10 0 -21 4q-35 13 -128 13q-208 0 -632 -53q-42 -134 -42 -209q0 -18 2 -32q1 -7 3 -13q11 -43 46 -43q7 0 16 2q216 43 297 43q99 0 190 -27q247 -72 291 -246
q3 -12 5 -25q3 -22 3 -46q0 -69 -28 -148q-35 -94 -97 -166q-149 -170 -440 -170q-183 0 -390 66q-171 53 -188 80q-7 12 -10 26l-1 8q-1 6 -1 12q0 74 147 134q4 -6 8 -10q62 -21 159 -35q135 -21 276 -21q170 0 239 66q42 41 42 96q0 11 -2 23l-4 18q-14 53 -54 92
q-27 27 -107 27q-156 0 -444 -84q-206 104 -233 180l-1 4v8q0 82 160 627q624 78 862 78z" />
    <glyph glyph-name="six" unicode="6" horiz-adv-x="1410" 
d="M258 1118q277 289 677 295q60 -51 89 -166q8 -33 12 -59q4 -25 4 -44q0 -46 -22 -58q-44 4 -89 4q-267 0 -473 -140q-214 -145 -219 -348q61 68 186 133q106 58 187 80q130 37 234 37q275 0 378 -258q18 -43 26 -80q5 -19 8 -38q4 -24 4 -46q0 -87 -57 -151
q-69 -78 -269 -168q-247 -111 -452 -111q-105 0 -232 29q-74 16 -134.5 97t-90.5 202q-10 40 -16 80q-9 62 -9 125q0 99 23 200q44 187 235 385zM329 365q-17 -25 -17 -47q0 -5 1 -9l1 -6q17 -67 156 -67q72 0 157 22q178 45 297 111q134 74 134 148q0 6 -1 12l-1 8
q-28 110 -187 110q-131 0 -239 -45q-149 -63 -213 -121q-29 -26 -88 -116z" />
    <glyph glyph-name="seven" unicode="7" horiz-adv-x="1228" 
d="M24 1337q67 25 492 88q367 53 434 53q10 0 14 -1q62 -31 100 -185q7 -26 11 -48q3 -22 3 -41q0 -21 -4 -38q-7 -22 -297 -538q-315 -553 -332 -584q-22 -43 -76 -43q-49 0 -105 36t-63 64v4q0 56 233 517q242 480 277 494h-1q-20 0 -238 -42q-286 -53 -312 -88
q-1 -2 -3 -2q-22 0 -76.5 93.5t-73.5 168.5q-3 14 -5 26t-2 22q0 36 24 44z" />
    <glyph glyph-name="eight" unicode="8" horiz-adv-x="1500" 
d="M17 340q-3 9 -4 19q-3 17 -3 37q0 76 42 179q75 185 243 244q-183 72 -213 193q-3 10 -4 19q-2 16 -2 32q0 125 144 268q79 78 307 121q189 35 394 35q137 0 181 -17q135 -49 160 -143q2 -8 3 -17q2 -13 2 -27q0 -139 -199 -329q74 -49 148 -166q84 -129 128 -284l2 -5
q2 -6 3 -12q1 -10 1 -19q0 -144 -319 -292q-301 -139 -578 -172q-34 -4 -64 -4q-287 0 -372 340zM783 995q168 78 168 215v6l-1 10q-12 44 -122 44q-126 0 -278 -54q-161 -59 -161 -146q0 -7 1 -14l2 -10q15 -61 97 -122q176 18 294 71zM559 276q74 0 158 33q50 23 99 47
q62 29 121 94q62 69 62 126q0 7 -1 14l-2 10q-14 57 -100 92q-36 14 -89 14q-148 0 -375 -102q-58 -27 -90 -84q-24 -41 -24 -80q0 -10 1 -19l4 -14q12 -51 63 -81q81 -50 173 -50z" />
    <glyph glyph-name="nine" unicode="9" horiz-adv-x="1395" 
d="M1157 473q-68 -197 -197 -313q-174 -156 -453 -160q-60 51 -80 135q-5 18 -7 34q-3 17 -3 30q0 43 26 57q37 -4 74 -4q232 0 366 160q125 145 131 370q-41 -90 -176 -166q-90 -49 -168 -71q-71 -21 -151 -21q-176 0 -318 84q-152 90 -188 236q-4 18 -7 37q-6 44 -6 83
q0 92 34 150q59 100 254 189q265 118 513 118q115 0 224 -24q141 -31 197 -252q8 -34 14 -70q9 -60 9 -122q0 -115 -30 -240q-52 -217 -58 -240zM946 1061q11 15 11 32q0 4 -1 8l-1 7q-11 43 -77 74.5t-152 31.5q-88 0 -164 -34q-233 -107 -257 -119q-100 -62 -100 -129
q0 -7 1 -14l2 -9q38 -153 278 -153q84 0 101 10q250 129 359 295z" />
    <glyph glyph-name="colon" unicode=":" horiz-adv-x="531" 
d="M237 379q119 -45 142 -139l1 -8q1 -9 1 -19q0 -23 -8 -51l-19 -40q-35 -51 -70 -81q-54 -40 -107 -41q-38 0 -70 15q-80 46 -101 125q-3 10 -4 19q-2 13 -2 25q0 44 25 78l56 71l6 8q44 42 95 43q28 0 55 -5zM237 929q118 -45 142 -139l1 -8q1 -8 1 -16q0 -25 -9 -54
l-19 -40q-34 -51 -70 -81q-54 -40 -106 -41q-38 0 -70 15q-81 46 -101 125q-3 10 -4 19q-2 14 -2 26q0 44 24 77l57 71l5 8q45 42 96 43q28 0 55 -5z" />
    <glyph glyph-name="semicolon" unicode=";" horiz-adv-x="531" 
d="M237 929q118 -45 142 -139l1 -8q1 -8 1 -16q0 -25 -9 -54l-19 -40q-34 -51 -70 -81q-54 -40 -106 -41q-38 0 -70 15q-81 46 -101 125q-3 10 -4 19q-2 14 -2 26q0 44 24 77l57 71l5 8q45 42 96 43q28 0 55 -5zM237 315q118 -45 142 -139l1 -8q1 -9 1 -19q0 -23 -8 -51
q-17 -50 -64 -123q-36 -88 -95 -121q-16 -4 -33 -4q-44 0 -87 26q45 59 47 104q1 2 1 4t-1 3q0 3 -1 6q-18 67 -135 67q-2 9 -3 19q-2 14 -2 29q0 46 25 90l55 71l7 8q44 42 94 43q28 0 56 -5z" />
    <glyph glyph-name="semicolon" unicode="&#x37e;" horiz-adv-x="531" 
d="M237 929q118 -45 142 -139l1 -8q1 -8 1 -16q0 -25 -9 -54l-19 -40q-34 -51 -70 -81q-54 -40 -106 -41q-38 0 -70 15q-81 46 -101 125q-3 10 -4 19q-2 14 -2 26q0 44 24 77l57 71l5 8q45 42 96 43q28 0 55 -5zM237 315q118 -45 142 -139l1 -8q1 -9 1 -19q0 -23 -8 -51
q-17 -50 -64 -123q-36 -88 -95 -121q-16 -4 -33 -4q-44 0 -87 26q45 59 47 104q1 2 1 4t-1 3q0 3 -1 6q-18 67 -135 67q-2 9 -3 19q-2 14 -2 29q0 46 25 90l55 71l7 8q44 42 94 43q28 0 56 -5z" />
    <glyph glyph-name="less" unicode="&#x3c;" horiz-adv-x="1229" 
d="M544 766q94 -10 260 -62q158 -49 164.5 -62t59.5 -77q49 -55 51 -80l1 -4l-1 -4q-2 -27 -66 -27q-101 0 -430 84t-429 84q-2 -3 -4 -3q-12 0 -71 59q-73 71 -79 112l1 9q1 11 7 16q15 14 390 164q398 159 472 159q10 0 14 -4q6 -12 54.5 -65t51.5 -80l1 -4l-1 -6
q-2 -22 -29 -33q-132 -62 -417 -176z" />
    <glyph glyph-name="equal" unicode="=" horiz-adv-x="1207" 
d="M357 684q338 35 483 35q86 0 93 -12.5t61.5 -65.5t61.5 -80l1 -3v-6q0 -22 -27 -34q-61 -28 -410 -51q-240 -16 -350 -16q-41 0 -65 2v-1q0 -2 -2 -2q-12 0 -76 58q-80 72 -90 113l-1 6v3q0 9 5 14q7 7 316 40zM321 1040q337 35 483 35q86 0 93.5 -12t61.5 -65.5
t61 -79.5v-10q0 -21 -27 -33q-60 -29 -409 -52q-241 -16 -351 -16q-41 0 -63 2q0 -3 -2 -3q-12 0 -77 59q-80 71 -90 112l-1 5v6q0 8 4 13q8 7 317 39z" />
    <glyph glyph-name="greater" unicode="&#x3e;" horiz-adv-x="1178" 
d="M7 1099q1 1 4 1q38 0 449 -97q446 -105 461 -136q6 -12 55 -65.5t51 -79.5l1 -4l-1 -6q-2 -22 -29 -33q-653 -289 -765 -289h-7q0 -3 -2 -3q-12 0 -71 59q-73 71 -79 112l-1 6l1 4q1 8 5 14q8 7 152 64q171 70 295 104q-164 50 -364 101v-2q0 -1 -1 -1q-11 0 -76 81
q-77 96 -85 143v10q1 11 7 17z" />
    <glyph glyph-name="question" unicode="?" horiz-adv-x="1440" 
d="M233 769q73 49 143 84q102 88 160 104q136 19 272 39q108 21 144 68q15 19 15 44q0 7 -1 15q0 6 -2 11q-17 67 -122 100q-111 49 -231 49q-28 0 -57 -3q-22 -13 -203 -72q-147 -61 -181 -86q-4 -2 -9 -2q-28 0 -90.5 67t-70.5 96v6q0 10 10 13q104 51 209 102
q194 79 395 79q23 0 47 -1q185 -8 384 -119q185 -102 216 -184q12 -31 19 -60q5 -18 7 -35q3 -23 3 -44q0 -185 -259 -255q-7 -2 -302 -51q-224 -39 -277.5 -79t-89.5 -140q-151 71 -165 128l-1 11v6q0 59 37 109zM452 379q119 -45 142 -139l1 -8q1 -9 1 -19q0 -23 -8 -51
l-19 -40q-35 -51 -70 -81q-54 -40 -107 -41q-38 0 -70 15q-80 46 -101 125q-3 10 -4 19q-2 13 -2 25q0 44 25 78l56 71l6 8q44 42 95 43q28 0 55 -5z" />
    <glyph glyph-name="at" unicode="@" 
d="M1231 1004q-26 106 -155 170q-105 51 -222 51q-282 0 -441 -235q-112 -163 -112 -350q0 -48 8 -99q5 -34 14 -70q28 -109 147 -166q97 -47 216 -47q252 0 347 68q22 6 57 6q77 0 153 -25q85 -28 95 -65v-4q1 -3 1 -7q0 -3 -1 -6q-66 -125 -302 -182q-173 -43 -396 -43
q-219 0 -369 76q-188 96 -238 297q-12 46 -19 92q-10 66 -10 133q0 151 51 303q84 258 282 420q207 172 471 172q227 0 423.5 -141.5t253.5 -368.5q5 -23 9 -48q6 -42 6 -86q0 -54 -9 -112q-18 -143 -75 -170q-133 -147 -451 -147q-78 0 -166 10q-42 4 -87 10q-90 6 -178 70
q-95 69 -118 164l-4 18l-1 7q-4 30 -4 59q0 132 94 235q97 111 217 111q16 0 32 -2q120 -15 211 -84.5t118 -179.5q5 -17 7 -34q4 -27 4 -55q0 -14 -1 -28q22 -2 41 -2q102 0 121 72q6 20 6 49t-6 67q-6 43 -20 97zM627 782q-1 -7 -1 -14q0 -10 2 -18l1 -9q12 -49 102 -49h5
q98 0 98 63q0 7 -1 14t-3 13q-17 68 -92 76q-11 1 -21 1q-84 0 -90 -77z" />
    <glyph glyph-name="A" unicode="A" horiz-adv-x="1492" 
d="M234 0q-202 20 -230 131q-2 6 -3 13q-1 9 -1 19q0 17 3 34q49 227 435 731q381 497 502 497h3q9 -1 18 -1q18 0 37 3q32 3 38 3q51 0 138 -78q34 -31 64 -154q25 -95 44 -222q28 -191 46 -456q14 -211 14 -320q0 -110 -14 -118q-34 -21 -104 -21q-86 0 -114 37
q-9 15 -16 39q-2 11 -4 24q-5 31 -5 72q0 25 2 54q-98 24 -208 24q-160 0 -317 -49q-134 -41 -199 -90zM596 549l371 24q79 48 79 71v3q-1 4 -14 117q-6 57 -12 96t-11 60q-7 28 -13 30q-25 11 -50 11q-96 0 -203 -150q-57 -82 -147 -262z" />
    <glyph glyph-name="B" unicode="B" horiz-adv-x="1483" 
d="M731 1500q254 0 354 -37q135 -49 160 -143q2 -8 3 -17q2 -13 2 -27q0 -139 -199 -329q74 -49 148 -166q84 -129 128 -284l2 -5q2 -6 3 -12q1 -10 1 -19q0 -144 -319 -292q-301 -139 -578 -172q-25 -4 -52 -4q-131 0 -237 71.5t-136 194.5q-5 18 -8 36q-3 19 -3 38
q100 520 203 991q76 176 528 176zM733 1031q169 77 169 216v3l-1 9q-12 47 -126 47q-127 0 -275 -56l-60 -292q175 18 293 73zM555 271q76 0 244 78q63 29 121 94q63 69 63 126q0 7 -1 14l-2 10q-14 57 -101 92q-39 17 -100 17q-156 0 -397 -91q-31 -109 -31 -177
q0 -19 2 -35q1 -8 3 -15q6 -22 17 -35q75 -78 182 -78z" />
    <glyph glyph-name="C" unicode="C" horiz-adv-x="1360" 
d="M252 717q-3 -24 -3 -47q0 -31 5 -62q3 -21 8 -41q30 -121 132 -219q70 -66 205 -66t226 62q72 50 72 114q0 9 -2 19q-1 7 -3 14q-2 10 -7 21l221 98q70 -74 96 -178q3 -14 5 -27q3 -17 3 -33q0 -27 -8 -49q-49 -139 -241 -233q-181 -90 -380 -90q-68 0 -128 12
q-153 33 -272 182q-109 137 -155 322q-11 45 -18 87q-8 52 -8 99q0 88 27 162q100 281 175 397q175 267 437 267q207 0 375 -97q156 -90 183 -198v-2q0 -73 -77 -132q-64 -50 -106 -50q-10 0 -18 3q-121 240 -313 240q-17 0 -34 -2q-107 -10 -236 -219q-107 -174 -161 -354z
" />
    <glyph glyph-name="D" unicode="D" horiz-adv-x="1551" 
d="M324 13q-56 -13 -103 -13q-170 0 -210 162q-5 18 -7 35q-4 22 -4 44q0 8 1 17q148 1041 165 1041q32 82 257 139q158 42 218 42q7 0 13 -1q325 -33 492 -107q204 -91 244 -253q5 -15 7 -31q4 -26 4 -53q0 -31 -5 -64q-47 -317 -369 -655q-96 -101 -257 -170
q-153 -64 -446 -133zM1129 1053q-39 113 -145 158q-59 24 -121 24q-17 0 -33 -2q-208 -20 -221 -24q-105 -27 -152 -123q-28 -64 -119 -672l3 -16q11 -45 85 -45q22 0 50 4q69 12 327 229q142 119 244 267q85 125 85 182q0 5 -1 9z" />
    <glyph glyph-name="E" unicode="E" horiz-adv-x="1288" 
d="M0 173q12 209 90 664q102 587 189 614q99 31 330 70q262 45 385 45q69 0 79 -17q42 -59 59 -127q3 -11 4 -21q2 -13 2 -24q0 -39 -24 -57q-28 -21 -334 -55q-294 -35 -295 -50.5t-20 -123.5l-18 -91l7 -8q0 3 176 35q193 35 274 35q50 0 57 -12.5t61.5 -65.5t61.5 -80
v-10q0 -21 -27 -33q-50 -22 -359 -119q-299 -92 -301 -94q-6 -8 -67 -319q453 215 602 215q29 0 43 -11q50 -36 95 -98.5t56 -107.5q2 -7 3 -13t1 -10q0 -16 -10 -24q-35 -29 -419 -158q-363 -122 -428 -122q-6 0 -9 1q-240 63 -262 150l-1 5q-1 8 -1 17z" />
    <glyph glyph-name="F" unicode="F" horiz-adv-x="1288" 
d="M0 168q12 209 90 664q102 587 189 614q99 31 330 70q262 45 385 45q69 0 79 -17q42 -59 59 -127q3 -11 4 -21q2 -13 2 -24q0 -39 -24 -57q-28 -21 -334 -55q-294 -35 -295 -50.5t-20 -123.5l-18 -92l2 -7q0 2 181 35q193 35 274 35q50 0 57 -12.5t61.5 -65.5t61.5 -80
v-10q0 -21 -27 -33q-50 -22 -359 -119q-299 -92 -301 -94q-6 -8 -137 -608q-25 -35 -72 -35q-58 0 -114.5 43t-69.5 96q-2 6 -3 12t-1 12v5z" />
    <glyph glyph-name="G" unicode="G" horiz-adv-x="1635" 
d="M669 815q42 14 98 29q362 31 586 115q15 6 31 6q36 0 101 -179q-31 -155 -56 -163q-65 -21 -123 -162q-76 -189 -145 -273q-156 -188 -428 -188q-158 0 -328 64q-142 53 -217 116q-123 107 -166 279q-8 33 -13 68q-9 59 -9 124q0 101 22 215q33 172 84 265
q121 221 384 331q187 79 373 79q17 0 34 -1q153 -4 318 -133q68 -53 132 -129q-24 -35 -40 -57q-47 -66 -74 -101q-17 -14 -36 -30q1 2 1 3q-1 2 -2 3q-10 42 -230 166q-151 -11 -217 -31q-57 -16 -159 -76q-117 -67 -187 -141q-53 -58 -120 -170q-52 -91 -52 -185
q0 -25 4 -51q2 -17 7 -35q34 -139 171 -233t315 -94q140 0 250 164q82 120 82 199q0 10 -1 19q-1 6 -3 11q-86 -2 -246 -33q-25 -4 -50 -4q-80 0 -139 47q-50 37 -61 82q-2 4 -2 8v4q0 7 2 11q11 26 109 61z" />
    <glyph glyph-name="H" unicode="H" horiz-adv-x="1406" 
d="M419 665q-20 -107 -43 -231q-9 -190 -78 -364q-42 -70 -69 -70q-67 0 -126 27q-75 32 -96 98q-2 6 -3 13q-3 11 -3 22v8q0 19 4 41q14 74 144 640q150 589 190 646q13 18 38 18q51 0 134 -73q76 -68 85 -97v-2q0 -2 -2 -2h-4q-31 0 -123 -441h3q304 32 453 35
q19 154 37 310q2 168 40 178q68 16 119 16q108 0 127 -66q2 -7 4 -16q4 -32 5 -64q1 -28 1 -56q0 -57 -5 -115q-11 -94 -21 -109l-72 -372q-78 -391 -78 -485v-9l1 -2q-25 -47 -52 -94q-23 -39 -69 -39q-10 0 -20 2q-82 12 -116 115q35 281 70 566q-67 -6 -151 -12
q-213 -14 -324 -16z" />
    <glyph glyph-name="I" unicode="I" horiz-adv-x="1225" 
d="M232 1475q116 5 298 5t431 -5q65 -66 101 -185q6 -23 10 -41q2 -17 3 -31v-7q0 -31 -16 -40q-69 -33 -238 -33q-26 0 -55 1q-182 -708 -182 -805v-10l1 -2q0 -2 1 -3q8 -4 31 -4q65 0 232 29l2 -10q10 -45 11 -83q1 -9 1 -18t-1 -18q-11 -131 -120 -141
q-160 -15 -740 -74l-1 15q-1 25 -1 48q0 45 4 82q10 146 66 150h102q64 0 89.5 27.5t97.5 338t94 486.5v2q-4 14 -82 14q-111 0 -326 -24q15 98 34 196q38 135 153 140z" />
    <glyph glyph-name="J" unicode="J" horiz-adv-x="1529" 
d="M268 684q-1 -9 -1 -20q0 -29 6 -69q8 -52 25 -122q34 -133 79 -158q104 -55 212 -55q115 0 175 80q20 27 72 336q10 197 36 373q4 7 4 13q0 3 -1 5v5q-4 19 -33 19q-6 0 -12 -1q-22 -2 -41 -2q-148 0 -172 96q-2 7 -3 14q-2 13 -2 26q0 26 7 54q35 170 389 181
q95 2 144 2q119 0 156 -15.5t50 -66.5l10 -41q5 -31 10 -51l1 -4v-7q0 -28 -28 -67q-42 -55 -118 -55q-13 0 -27 2h-1q-25 0 -38 -74q3 -4 3 -9q2 -5 3 -12q2 -16 2 -42q0 -121 -53 -444q-83 -366 -133 -415q-156 -160 -355 -160q-141 0 -304 82q-86 51 -174 102
q-84 41 -127 211q-10 42 -17 86q-7 50 -10 103q-2 30 -2 54q0 48 8 71q23 78 95 78q55 0 111 -38q47 -32 53 -57q1 -2 1 -4q1 -1 1 -2t-1 -2z" />
    <glyph glyph-name="K" unicode="K" horiz-adv-x="1720" 
d="M403 1563q70 0 146 -33q76 -35 88 -78l3 -10q-16 -209 -37 -369q5 5 13 5q12 0 31 -13q1 -1 3 -1q35 0 327 196q329 219 336.5 222t18.5 3q45 0 123 -42t112 -91q3 -2 3 -5v-4q0 -87 -791 -557q-10 -22 -10 -34l1 -4q2 -11 15 -11q30 0 348 -223q323 -229 346 -285l1 -4
l1 -4v-8q0 -40 -63 -87q-77 -56 -128 -56q-17 0 -21 10v3q-16 50 -795 515q-99 -481 -146 -573q-14 -25 -44 -25q-66 0 -178 84q-99 74 -105 98l-1 6q44 99 79 172q-34 78 -60 123q-4 6 -7 13l-1 4q-1 4 -1 8v4q0 28 30 64q45 55 115 79q55 21 128 435q30 182 65 450
q4 23 55 23z" />
    <glyph glyph-name="L" unicode="L" horiz-adv-x="1234" 
d="M359 1513q51 0 137 -73q80 -68 90 -97v-3q0 -1 -1 -1h-4q-45 0 -192 -925q-2 -12 -2 -23q0 -7 1 -13q0 -6 2 -12l1 -6q9 -24 40 -24q16 0 105 2q111 12 171 16q77 5 83 82q1 8 1 17q0 8 -1 17q-1 16 -6 34l-2 6q52 19 118 19q123 0 170 -43q8 -7 9 -15l2 -6q2 -6 2 -14
q1 -9 1 -20q0 -37 -10 -97q-13 -72 -24 -143q-4 -45 -335 -119q-250 -29 -437 -68q-15 -4 -42 -4q-67 0 -126 27q-77 32 -101 98q-3 6 -4 13q-3 11 -5 22q-1 7 -1 13q0 17 4 36q9 74 139 620q143 609 180 666q12 18 37 18z" />
    <glyph glyph-name="M" unicode="M" horiz-adv-x="2050" 
d="M529 1401q55 0 134 -12q62 -9 86 -103q4 -16 6 -33q4 -23 4 -46q0 -10 -1 -19q-4 -45 -15 -45h-3q-3 0 -3 -9q0 -8 2 -21q8 -47 39 -172q31 -126 88 -331q392 629 755 910q272 -119 279 -148v-2q0 -4 -10 -6q-47 -6 -118 -625q-64 -528 -64 -663q0 -13 1 -23v-3
q0 -27 -35 -27q-92 0 -290 120q-12 7 -19 33q-2 10 -4 22q-5 34 -5 85q0 151 44 450l-53 49q-271 -323 -293 -401q-54 -192 -82 -238q-38 -59 -124 -59q-21 0 -47 2q-138 12 -169 135q-3 13 -5 30q-10 62 -11 179q-15 179 -29 273l-2 14q-1 10 -2 19q-2 13 -6 26
q-21 86 -107 86q-32 0 -119 -363q-102 -423 -112 -448q-13 -37 -46 -37q-47 0 -103 63.5t-76 145.5q-4 15 -6 30q-3 18 -3 35v9q3 104 166 565q157 442 198 497.5t160 55.5z" />
    <glyph glyph-name="N" unicode="N" horiz-adv-x="1582" 
d="M299 1404q18 2 56.5 25t60.5 23q25 0 49 -23q75 -68 228 -371q137 -268 243 -530q4 -8 6 -8q23 0 106.5 481t114.5 485q18 3 38 3q49 0 113 -17q106 -27 118 -76v-5q0 -62 -149 -642q-141 -539 -141 -612v-8q0 -2 1 -3q4 -4 4 -8l1 -2v-3q0 -13 -20 -27q-24 -17 -63 -17
q-102 0 -184 123q-19 29 -215 403q-151 285 -194 285h-1q-44 -4 -60 -51q-10 -31 -17 -64q-9 -22 -59 -366q-43 -302 -43 -365q0 -8 1 -12v-5q0 -17 -50 -17q-74 0 -141 38q-79 47 -100 129l-2 9q49 307 97 612q113 604 202 616z" />
    <glyph glyph-name="O" unicode="O" horiz-adv-x="1646" 
d="M1481 983q5 -23 9 -47q6 -42 6 -88q0 -242 -179 -582q-67 -127 -292 -203q-190 -63 -389 -63q-219 0 -369 76q-188 96 -238 297q-12 47 -19 94q-10 69 -10 137q0 148 49 295q86 260 284 422q207 172 471 172q227 0 423.5 -141.5t253.5 -368.5zM466 305q97 -47 216 -47
q209 0 404 269q153 212 153 386q0 29 -4 56q-3 18 -8 35q-26 106 -155 170q-105 51 -222 51q-282 0 -441 -235q-112 -163 -112 -350q0 -48 8 -99q5 -34 14 -70q28 -109 147 -166z" />
    <glyph glyph-name="P" unicode="P" horiz-adv-x="1622" 
d="M704 1536q39 8 109 8q180 0 337 -55q214 -76 304 -232q8 -14 13 -31q2 -6 3 -12q2 -10 2 -21q0 -103 -137 -251q-152 -166 -385 -297q-248 -139 -449 -158q-13 -2 -73 -186q-67 -203 -87 -232q-45 -69 -115 -69q-71 0 -147 67q-66 58 -79 109v10q0 10 6 14
q116 68 218 463l92 430q3 12 3 28q0 20 -4 46q-3 21 -9 47q-11 48 -16 81q-4 26 -4 42v10q4 95 418 189zM574 788q64 0 195 48t185 94q79 65 155 145q99 105 99 149v9q-1 4 -4 8q-35 51 -250 51q-229 0 -299 -84q-16 -22 -69 -199q-43 -151 -43 -196v-8l1 -7q5 -10 30 -10z
" />
    <glyph glyph-name="Q" unicode="Q" horiz-adv-x="1689" 
d="M1370 375q138 -103 165 -189l2 -6l1 -7q1 -6 1 -12q0 -37 -39 -79q-54 -55 -103 -55q-27 0 -37 24q-27 66 -101 139q-99 -92 -292 -145q-169 -45 -331 -45q-219 0 -369 76q-188 96 -238 297q-12 46 -19 92q-10 66 -10 133q0 151 51 303q84 258 282 420q207 172 471 172
q227 0 423.5 -141.5t253.5 -368.5q5 -25 9 -50q6 -43 6 -89q0 -205 -126 -469zM987 582q37 -13 104 -45q148 207 148 378q0 28 -4 55q-3 17 -8 34q-26 106 -155 170q-105 51 -222 51q-282 0 -441 -235q-112 -163 -112 -350q0 -48 8 -99q5 -34 14 -70q28 -109 147 -166
q97 -47 216 -47q139 0 292 141q-76 45 -168 95q-6 6 -8 16l-2 8q-1 6 -1 12q0 21 12 39q25 31 80 31q41 0 100 -18z" />
    <glyph glyph-name="R" unicode="R" horiz-adv-x="1622" 
d="M544 798q5 -10 30 -10q64 0 195 48t185 94q79 65 155 145q99 105 99 149v9q-1 4 -4 8q-35 51 -250 51q-229 0 -299 -84q-16 -22 -69 -199q-43 -151 -43 -196v-8zM895 614q500 -207 565 -416l2 -6l1 -7q1 -6 1 -12q0 -37 -39 -79q-54 -55 -103 -55q-26 0 -37 24
q-74 193 -595 465q-101 -33 -189 -41q-13 -2 -73 -186q-67 -203 -87 -232q-45 -69 -115 -69q-71 0 -147 67q-66 58 -79 109v10q0 10 6 14q116 68 218 463l92 430q3 12 3 28q0 20 -4 46q-3 21 -9 47q-11 48 -16 81q-4 26 -4 42v10q4 95 418 189q39 8 109 8q180 0 337 -55
q214 -76 304 -232q8 -14 13 -31q2 -6 3 -12q2 -10 2 -21q0 -110 -155 -272q-173 -178 -422 -307z" />
    <glyph glyph-name="S" unicode="S" horiz-adv-x="1500" 
d="M1302 1229q2 -10 4 -19q2 -12 2 -23q0 -48 -32 -85q-45 -53 -109 -53q-96 0 -136 114q-16 43 -111.5 78t-196.5 35q-100 0 -155 -39q-85 -49 -171 -98q-90 -60 -90 -119q0 -6 1 -12l1 -8l2 -9q21 -59 218 -59q36 0 254 10q24 1 47 1q411 0 499 -357q8 -31 15 -78l4 -25
q2 -14 2 -28q0 -143 -170 -287q-199 -168 -457 -168q-443 0 -686 254q-6 4 -8 12v9q0 37 68 98q77 67 131 67q28 0 37 -22q60 -137 501 -164q17 -1 34 -1q135 0 191 73q49 61 49 194q0 25 -2 53l-1 10q-16 61 -172 93q-133 26 -321 26q-158 0 -198 -14q-14 -6 -39 -6
q-82 0 -175 43q-102 46 -117 108l-1 3q-4 19 -7 37q-7 46 -7 89q0 82 26 148q32 88 119 164q76 55 150 110q50 39 183 70q148 37 300 37q348 0 488 -188q26 -37 36 -74z" />
    <glyph glyph-name="T" unicode="T" horiz-adv-x="1407" 
d="M1151 1473q52 -7 89 -154q10 -38 14 -64q3 -18 3 -30q0 -19 -7 -24q-18 -13 -419 -56q-70 -74 -70 -88q1 -1 3 -2q-78 -72 -151 -492q-33 -225 -64 -450q-73 -113 -134 -113q-66 0 -129 113q-4 6 -6 15q-2 5 -3 12q-3 18 -3 43q0 127 67 448q91 440 122 440h1l6 6
q-5 8 -23 23q-7 4 -17 12q-77 -6 -135 -12q-140 -19 -170 -45q-6 -4 -10 -4q-49 0 -106 227q-6 28 -8 40l-1 7q227 39 456 78q445 72 633 72q37 0 62 -2z" />
    <glyph glyph-name="U" unicode="U" horiz-adv-x="1615" 
d="M314 1519q53 0 116 -36q53 -35 60 -60v-5q0 -5 -3 -7q-32 -19 -121 -397q-68 -294 -68 -452q0 -42 5 -75q3 -15 6 -28q20 -82 128 -82q129 0 299 70q160 65 160 108v3l-1 4v6q0 64 122 437q126 387 167 463q14 23 51 23q57 0 139 -51.5t90 -83.5l1 -4v-2q0 -9 -10 -13
q-94 -35 -195 -579q-68 -375 -68 -555q0 -50 5 -85q2 -14 5 -26l2 -8q-67 -15 -131 -15q-147 0 -173 80q-9 27 -56 27q-105 0 -466 -166q-20 -10 -44 -10q-88 0 -191.5 101.5t-133.5 221.5q-4 15 -6 29q-2 9 -2 18q-1 6 -1 15q0 97 85 483q25 121 126 559q23 92 103 92z" />
    <glyph glyph-name="V" unicode="V" horiz-adv-x="1446" 
d="M2 1275l-1 6q-1 5 -1 10q0 41 55 79q62 43 122 43q14 0 21 -4q31 -19 184 -633q29 -119 64 -260q48 262 135 424q70 137 207 272q152 144 305 287l203 -156q-40 -141 -64 -172q-51 -67 -229 -131q-115 -41 -228 -305q-85 -188 -161 -475q-33 -129 -64 -260
q-305 131 -330 139q-8 2 -12 17l-2 9q-1 8 -1 16q0 46 38 98q4 5 4 21q0 21 -6 58q-15 99 -68 314q-117 465 -167 590q-3 6 -4 13z" />
    <glyph glyph-name="W" unicode="W" horiz-adv-x="1979" 
d="M40 1344q263 -54 278 -111v-5q0 -4 -1 -7q-17 -43 -31 -279q-9 -147 -9 -217q0 -36 2 -52l1 -7q1 -4 2 -4t2 2q127 198 253 397q170 267 200 267q2 0 4 -1q6 -4 21 -4q57 0 202 62l194 -746q109 215 218 428q212 408 244 408h2q192 -86 207 -140q0 -22 -254 -579
q-227 -502 -227 -580v-7q2 -3 3 -5q3 -4 4 -8l1 -2v-3q0 -58 -292 -118q-173 604 -295 852q-2 4 -5 4q-25 0 -183 -327q-177 -363 -210 -513q-9 -49 -116 -49q-135 0 -186 82q-14 23 -26 70q-10 38 -17 88q-26 174 -26 490q0 62 1 128q10 486 39 486z" />
    <glyph glyph-name="X" unicode="X" horiz-adv-x="1613" 
d="M684 952q2 -4 8 -4q41 0 276.5 248t255.5 248q4 0 30 2h43q145 0 163 -72l2 -9q1 -7 1 -16q0 -20 -7 -45q-29 -90 -312 -331q-253 -217 -253 -263v-2l1 -2q23 -67 27 -75q9 -19 39 -56q177 -225 248 -270q11 -8 16 -25v-6q1 -5 1 -10q0 -42 -48 -102q-59 -74 -104 -74
q-10 0 -17 4q-59 35 -184 176q-137 150 -183 242q0 1 -1 1q-16 0 -223 -206q-227 -225 -257 -295q-5 -10 -22 -10q-38 0 -104.5 47t-77.5 90l-1 4q-1 5 -1 9q0 9 3 16q18 43 218 276q209 244 221 264q17 28 17 67q0 14 -2 30q-2 12 -5 26q-12 47 -35 74l-142 160
q-120 135 -126 159v9q0 31 42 85q50 62 97 62q16 0 29 -8q90 -60 222 -227q71 -95 145 -191z" />
    <glyph glyph-name="Y" unicode="Y" horiz-adv-x="1376" 
d="M401 712q6 21 6 36q0 6 -1 11v3q-4 14 -14 16q-30 10 -188 199q-174 204 -199 301q-2 9 -3 17q-2 12 -2 23q0 44 29 79q40 40 91 40q47 0 60 -36q16 -50 189.5 -259.5t201.5 -209.5q2 0 4 2q45 147 242 409q155 207 252 207q75 0 139 -100q10 -15 14 -31q2 -5 3 -11
q1 -8 1 -16q0 -48 -38 -103q-50 -71 -138 -126q-135 -84 -381 -532q-218 -398 -295 -631q-7 -21 -27 -21q-43 0 -117.5 76t-85.5 121l-1 4v4q0 10 10 12q39 7 147 263q45 106 101 253z" />
    <glyph glyph-name="Z" unicode="Z" horiz-adv-x="1350" 
d="M81 1279l110 57q712 164 825 164h10q49 -4 98.5 -72.5t68.5 -140.5q3 -11 4 -22q2 -13 2 -23q0 -21 -8 -34q-15 -25 -336 -359q-308 -324 -321 -364q-5 -15 -5 -28q0 -6 1 -12l1 -6q10 -40 51 -40q10 0 23 4q94 30 188 61q169 51 226 51q18 0 26 -6q35 -29 82 -82
q60 -69 71 -112l1 -8q1 -5 1 -10q0 -17 -12 -24q-18 -12 -458 -128q-408 -109 -408 -152q-1 -16 -19 -16q-51 0 -175 84q-114 77 -123 113l-1 7q0 129 341 545q325 397 388 397h3q6 -1 11 -1q27 0 27 21q0 4 -1 8v5q-4 13 -11 25q-120 -31 -211 -55q-218 -64 -250 -101
q-7 -6 -17 -6q-41 0 -115.5 82t-89.5 141l-2 8v9q0 13 4 20z" />
    <glyph glyph-name="bracketleft" unicode="[" horiz-adv-x="1029" 
d="M330 329q254 105 334 105q9 0 15 -1q49 -8 92 -66.5t58 -119.5q3 -11 4 -21q2 -10 2 -17q0 -21 -12 -30q-35 -28 -272 -106q-215 -73 -274 -73q-8 0 -13 1q-240 63 -262 150l-1 5q-1 8 -1 17q12 209 90 664q102 587 189 614q280 84 454 84q68 0 81 -21q42 -59 58 -127
q3 -12 5 -24t2 -22q0 -38 -24 -56q-28 -20 -205 -39q-164 -16 -165 -31.5t-20 -123.5q-15 -83 -15 -96v-3q-5 -8 -120 -663z" />
    <glyph glyph-name="backslash" unicode="\" horiz-adv-x="1300" 
d="M2 1214l-1 3v6q0 31 42 85q50 62 97 62q17 0 29 -8q91 -60 224 -228q70 -94 143 -190q65 -113 320 -418q239 -286 276 -309q12 -8 16 -25l1 -6q1 -4 1 -9q0 -42 -49 -103q-59 -74 -104 -74q-10 0 -17 4q-51 31 -356 413t-355 478l-142 160q-120 135 -125 159z" />
    <glyph glyph-name="bracketright" unicode="]" horiz-adv-x="1054" 
d="M575 1229q-285 -111 -424 -111h-14q-33 2 -43 39l-2 10q-1 10 -1 20q0 44 22 109q26 84 54 105q36 29 227 96q172 61 229 61q10 0 17 -2q241 -63 262 -147l1 -8q1 -8 1 -17q-13 -225 -87 -677q-94 -603 -183 -629q-92 -29 -295 -53q-180 -25 -252 -25q-45 0 -75 117
q-5 26 -9 48q-3 23 -3 41q0 49 23 66q28 21 217 39q179 19 179 33t47 295q41 252 41 269v1q3 9 68 320z" />
    <glyph glyph-name="asciicircum" unicode="^" horiz-adv-x="1024" 
d="M740 1953q98 -112 126 -225q5 -18 8 -39q-26 -59 -91.5 -105.5t-120.5 -46.5q-24 0 -44 11l-3 16q-11 45 -58 121q-49 80 -61.5 86t-26.5 6q-94 0 -265 -217q-82 41 -139 111q-46 57 -59 112q-4 12 -6 23q286 340 379 340h3q10 -1 21 -1q17 0 36 2q31 3 37 3
q52 0 138 -78q98 -88 126 -119z" />
    <glyph glyph-name="underscore" unicode="_" horiz-adv-x="1639" 
d="M410 -129q440 18 696 18q250 0 258.5 -15.5t63 -68.5t60.5 -80l1 -5v-6q0 -28 -42 -36q-105 -24 -663 -27q-137 -1 -245 -1q-297 0 -369 8q0 -3 -3 -3q-12 0 -76 58q-80 72 -90 113v4q-1 4 -1 7q0 7 4 11q6 6 406 23z" />
    <glyph glyph-name="grave" unicode="`" horiz-adv-x="581" 
d="M20 1762q-8 18 -14 39q-2 10 -4 19q-2 13 -2 26q0 47 26 82q55 73 62 79q43 43 93 43q22 0 46 -8q128 -45 153 -145q2 -8 3 -15q2 -10 2 -19t-2 -18q-5 -24 -11 -24q-1 0 -1 -2q0 -18 60 -229q-20 -1 -39 -1q-270 0 -372 173z" />
    <glyph glyph-name="a" unicode="a" horiz-adv-x="1224" 
d="M187 0q-161 16 -184 105l-2 10q-1 7 -1 15q0 14 2 28q40 181 348 584q305 398 402 398h2q8 -1 15 -1q14 0 29 3q26 2 31 2q41 0 110 -62q27 -25 51 -124q20 -76 36 -177q22 -153 36 -365q12 -169 12 -256q0 -88 -12 -94q-27 -17 -83 -17q-69 0 -91 29q-7 12 -13 32
q-1 8 -3 19q-4 25 -4 57q0 20 2 44q-79 19 -167 19q-128 0 -253 -39q-108 -33 -160 -72zM477 439l297 19q63 39 63 57v3q-1 3 -11 93q-5 46 -10 77t-9 48q-5 22 -10 24q-20 9 -40 9q-77 0 -163 -120q-45 -66 -117 -210z" />
    <glyph glyph-name="b" unicode="b" horiz-adv-x="1216" 
d="M585 1200q203 0 283 -30q108 -39 128 -114q2 -6 2 -14q2 -10 2 -21q0 -111 -159 -263q59 -40 118 -133q67 -103 103 -227l1 -4q2 -5 3 -10v-15q0 -115 -255 -234q-241 -111 -462 -137q-20 -4 -42 -4q-105 0 -189.5 57.5t-108.5 155.5q-4 15 -7 29q-2 15 -2 30
q80 416 162 793q61 141 423 141zM586 825q136 61 136 173v2l-1 7q-10 38 -101 38q-102 0 -220 -45l-48 -234q140 15 234 59zM444 217q61 0 195 62q51 23 97 75q50 56 50 101v11l-2 8q-11 46 -81 74q-31 14 -80 14q-125 0 -317 -73q-25 -87 -25 -142q0 -15 1 -28q1 -6 3 -12
q5 -17 13 -28q60 -62 146 -62z" />
    <glyph glyph-name="c" unicode="c" horiz-adv-x="1118" 
d="M202 574q-3 -20 -3 -38q0 -25 4 -50q3 -16 7 -32q24 -97 105 -176q56 -52 164 -52t181 49q58 40 58 91q0 8 -2 16q-1 5 -2 11q-2 8 -6 17l177 78q56 -59 77 -142q2 -12 4 -22q2 -14 2 -26q0 -22 -6 -40q-40 -111 -193 -186q-145 -72 -304 -72q-55 0 -103 10
q-122 26 -217 145q-87 110 -124 258q-9 36 -15 69q-6 42 -6 80q0 70 22 129q80 225 140 318q140 213 349 213q166 0 300 -77q125 -72 147 -159v-1q0 -59 -62 -106q-51 -40 -85 -40q-8 0 -14 3q-97 192 -251 192q-13 0 -27 -2q-85 -8 -189 -175q-85 -139 -128 -283z" />
    <glyph glyph-name="d" unicode="d" horiz-adv-x="1271" 
d="M259 10q-45 -10 -82 -10q-136 0 -168 130q-4 14 -6 28q-3 17 -3 35q0 6 1 13q118 833 132 833q25 66 205 111q127 34 175 34q5 0 10 -1q260 -26 394 -85q163 -73 195 -203q4 -12 6 -25q3 -20 3 -42q0 -25 -4 -51q-38 -254 -295 -524q-77 -81 -206 -136
q-122 -51 -357 -107zM903 842q-31 91 -116 127q-47 19 -97 19q-13 0 -26 -2q-166 -16 -177 -19q-84 -21 -121 -98q-23 -51 -96 -538l3 -13q9 -36 68 -36q17 0 40 4q55 9 261 183q114 95 196 213q68 100 68 146q0 4 -1 7z" />
    <glyph glyph-name="e" unicode="e" horiz-adv-x="1060" 
d="M0 138q10 168 72 532q82 469 151 491q79 25 264 56q210 36 308 36q55 0 63 -14q34 -47 48 -101q2 -9 3 -17q1 -11 1 -19q0 -32 -19 -46q-22 -17 -267 -44q-235 -28 -236 -40.5t-16 -98.5l-14 -73l5 -6q0 2 141 28q154 28 219 28q40 0 45.5 -10t49.5 -52.5t49 -64.5v-8
q0 -17 -21 -26q-40 -18 -288 -95q-239 -74 -240 -76q-5 -6 -54 -255q362 172 482 172q23 0 34 -9q40 -28 76 -78t45 -86q1 -6 2 -11t1 -8q0 -13 -8 -19q-28 -23 -335 -126q-291 -98 -343 -98q-4 0 -7 1q-192 50 -209 120l-1 4q-1 6 -1 13z" />
    <glyph glyph-name="f" unicode="f" horiz-adv-x="1060" 
d="M0 134q10 168 72 532q82 469 151 491q79 25 264 56q210 36 308 36q55 0 63 -14q34 -47 48 -101q2 -9 3 -17q1 -11 1 -19q0 -32 -19 -46q-22 -17 -267 -44q-235 -28 -236 -40.5t-16 -98.5l-14 -74l1 -5q0 1 145 28q154 28 219 28q40 0 45.5 -10t49.5 -52.5t49 -64.5v-8
q0 -17 -21 -26q-40 -18 -288 -95q-239 -74 -240 -76q-5 -6 -110 -486q-20 -28 -58 -28q-46 0 -91 34.5t-56 76.5l-2 10t-1 9v4z" />
    <glyph glyph-name="g" unicode="g" horiz-adv-x="1338" 
d="M535 652q34 11 79 23q289 25 468 92q12 5 25 5q29 0 81 -143q-25 -124 -45 -131q-52 -16 -98 -129q-61 -151 -116 -219q-125 -150 -343 -150q-126 0 -262 51q-114 43 -174 93q-98 86 -132 223q-7 27 -11 55q-7 47 -7 99q0 81 18 172q26 137 67 212q97 177 307 265
q150 63 298 63q14 0 28 -1q122 -3 254 -106q54 -43 106 -104q-20 -28 -32 -45q-38 -53 -60 -81q-13 -11 -28 -24v2q0 2 -1 3q-8 33 -184 133q-121 -9 -174 -25q-45 -13 -127 -61q-94 -54 -150 -113q-42 -46 -96 -136q-41 -73 -41 -148q0 -20 3 -41q2 -13 6 -28
q27 -111 136.5 -186t251.5 -75q112 0 200 131q66 96 66 159q0 8 -1 15q-1 5 -2 9q-69 -1 -197 -26q-20 -3 -40 -3q-64 0 -111 37q-40 30 -49 66q-2 3 -2 6v3q0 6 2 9q9 21 87 49z" />
    <glyph glyph-name="h" unicode="h" horiz-adv-x="1155" 
d="M335 532q-16 -86 -34 -185q-7 -152 -63 -291q-33 -56 -55 -56q-53 0 -101 22q-60 25 -76 78q-2 5 -3 10q-2 9 -2 18v6q0 16 3 33q11 59 115 512q120 471 152 517q11 14 31 14q40 0 107 -58q61 -54 68 -78v-1q0 -2 -2 -2h-3q-25 0 -98 -353h2q243 26 362 28q16 124 30 248
q2 135 32 143q54 13 95 13q87 0 102 -53q1 -6 3 -13q3 -26 4 -51q1 -23 1 -45q0 -46 -4 -92q-9 -75 -17 -87l-58 -298q-62 -313 -62 -388v-7l1 -2q-20 -37 -42 -75q-18 -31 -55 -31q-8 0 -16 2q-66 9 -93 92q28 224 56 452q-53 -4 -121 -9q-170 -11 -259 -13z" />
    <glyph glyph-name="i" unicode="i" horiz-adv-x="433" 
d="M287 1210q41 0 110 -58q64 -54 72 -78v-2q0 -1 -1 -1h-3q-36 0 -95 -370t-110 -611l-38 -87q-12 -3 -33 -3q-54 0 -101 22q-62 25 -81 78q-2 5 -3 10l-4 18q-1 6 -1 10q0 14 3 29q8 59 112 496q114 487 144 533q9 14 29 14z" />
    <glyph glyph-name="j" unicode="j" horiz-adv-x="1253" 
d="M214 547v-16q0 -23 4 -55q7 -42 20 -98q28 -106 64 -126q83 -44 169 -44q92 0 140 64q16 22 58 269q8 157 29 298q3 6 3 11q0 2 -1 4v4q-3 15 -26 15q-5 0 -10 -1q-18 -2 -33 -2q-118 0 -137 77q-2 6 -3 11q-1 11 -1 21q0 21 5 43q28 136 311 145q76 2 116 2
q95 0 124.5 -12.5t39.5 -53.5l8 -33q4 -24 8 -40l1 -4v-5q0 -23 -22 -54q-34 -44 -95 -44q-10 0 -21 2h-1q-20 0 -30 -59q2 -4 2 -8q2 -4 2 -9q2 -13 2 -34q0 -97 -42 -355q-67 -293 -107 -332q-125 -128 -284 -128q-113 0 -243 66q-69 40 -139 81q-67 33 -102 169
q-8 34 -13 69q-6 40 -8 82q-2 24 -2 43q0 39 6 57q19 63 76 63q44 0 89 -31q38 -25 43 -45v-4q1 0 1 -1t-1 -2z" />
    <glyph glyph-name="k" unicode="k" horiz-adv-x="1406" 
d="M322 1250q56 0 117 -26q61 -28 71 -62l2 -8q-13 -168 -30 -296q4 4 11 4q9 0 25 -10q0 -1 2 -1q28 0 262 157q263 175 269 177.5t15 2.5q36 0 98 -33.5t90 -72.5q2 -2 2 -4v-4q0 -69 -633 -445q-8 -18 -8 -27l1 -4q2 -8 12 -8q24 0 278 -179q259 -183 277 -228l1 -3l1 -3
v-7q0 -32 -51 -69q-61 -45 -102 -45q-14 0 -17 8v2q-13 40 -636 412q-79 -384 -117 -458q-11 -20 -35 -20q-53 0 -142 67q-79 59 -84 79l-1 4q35 80 63 138q-27 62 -48 98q-3 5 -5 11l-1 3q-1 3 -1 6v4q0 22 24 51q36 44 92 63q44 17 102 348q24 146 52 360q4 18 44 18z" />
    <glyph glyph-name="l" unicode="l" horiz-adv-x="1017" 
d="M287 1210q41 0 110 -58q64 -54 72 -78v-2q0 -1 -1 -1h-3q-36 0 -154 -740q-1 -9 -1 -18v-11q0 -4 2 -9l1 -5q7 -19 32 -19q13 0 84 1q89 10 137 13q61 4 66 66q1 6 1 13t-1 14q-1 13 -5 27l-1 5q41 15 94 15q98 0 136 -34q6 -6 7 -12l2 -5q1 -5 1 -11q1 -7 1 -16
q0 -30 -8 -78q-10 -57 -19 -114q-3 -36 -268 -95q-200 -24 -350 -55q-12 -3 -33 -3q-54 0 -101 22q-62 25 -81 78q-2 5 -3 10l-4 18q-1 6 -1 10q0 14 3 29q8 59 112 496q114 487 144 533q9 14 29 14z" />
    <glyph glyph-name="m" unicode="m" horiz-adv-x="1671" 
d="M424 1121q44 0 107 -10q50 -7 69 -82q3 -13 5 -27q3 -18 3 -36q0 -8 -1 -16q-3 -36 -12 -36h-2q-2 0 -2 -7q0 -6 1 -17q7 -37 31 -137q25 -101 71 -265q313 503 604 728q217 -95 223 -118v-2q0 -3 -8 -5q-38 -5 -94 -500q-52 -422 -52 -530q0 -11 1 -19v-2q0 -22 -28 -22
q-73 0 -232 96q-9 6 -15 27q-2 8 -3 17q-4 28 -4 68q0 121 35 360l-42 40q-217 -259 -235 -321q-43 -154 -65 -191q-31 -47 -100 -47q-16 0 -37 2q-111 9 -135 108q-3 10 -4 24q-8 49 -9 143q-12 143 -23 218l-2 12q-1 8 -2 15q-1 10 -4 21q-17 68 -86 68q-26 0 -95 -290
q-82 -338 -90 -358q-10 -30 -37 -30q-37 0 -82 51t-61 116q-3 12 -5 24q-2 15 -2 28v7q2 84 133 452q125 354 158 398.5t128 44.5z" />
    <glyph glyph-name="n" unicode="n" horiz-adv-x="1296" 
d="M239 1123q15 2 45.5 20.5t48.5 18.5q20 0 39 -19q60 -54 182 -297q110 -214 195 -424q3 -6 5 -6q18 0 85 385t91 388q15 2 31 2q39 0 90 -13q85 -22 95 -61v-4q0 -50 -120 -514q-112 -431 -112 -489v-9q4 -3 4 -7v-4q0 -10 -16 -21q-19 -14 -50 -14q-82 0 -147 99
q-15 23 -172 322q-121 228 -155 228h-1q-35 -3 -48 -41q-8 -25 -14 -51q-7 -18 -47 -293q-34 -241 -34 -292v-13q0 -14 -40 -14q-59 0 -112 30q-64 38 -80 104l-2 7q39 245 78 489q90 484 161 493z" />
    <glyph glyph-name="o" unicode="o" horiz-adv-x="1347" 
d="M1185 786q4 -18 7 -37q5 -34 5 -71q0 -193 -143 -465q-54 -102 -234 -163q-152 -50 -311 -50q-175 0 -295 61q-151 77 -191 237q-9 38 -15 76q-8 55 -8 109q0 119 39 236q69 208 227 338q166 137 377 137q182 0 339 -113t203 -295zM373 244q77 -38 173 -38q167 0 323 216
q122 169 122 308q0 24 -3 45q-2 15 -6 28q-21 85 -124 136q-84 41 -178 41q-226 0 -353 -188q-89 -130 -89 -280q0 -38 6 -79q4 -27 11 -56q23 -87 118 -133z" />
    <glyph glyph-name="p" unicode="p" horiz-adv-x="1328" 
d="M563 1229q31 6 87 6q144 0 270 -44q171 -61 243 -185q7 -12 11 -25l2 -10q2 -8 2 -17q0 -82 -110 -200q-122 -133 -308 -238q-198 -111 -359 -126q-11 -2 -59 -149q-53 -163 -69 -186q-36 -55 -92 -55q-57 0 -118 54q-53 46 -63 87v8q0 8 5 11q93 54 174 370l74 344
q2 10 2 23q0 16 -3 37q-2 16 -7 37q-9 39 -13 65q-3 21 -3 34v8q3 76 334 151zM459 630q51 0 156 38.5t148 75.5q63 52 124 116q79 84 79 119v7q0 4 -3 7q-28 41 -200 41q-183 0 -239 -68q-13 -17 -55 -159q-35 -121 -35 -157v-6l1 -6q4 -8 24 -8z" />
    <glyph glyph-name="q" unicode="q" horiz-adv-x="1381" 
d="M1096 300q110 -82 132 -151l2 -5v-6q1 -4 1 -9q0 -30 -31 -63q-43 -44 -82 -44q-22 0 -30 19q-22 53 -81 111q-79 -74 -233 -116q-136 -36 -265 -36q-175 0 -295 61q-151 77 -191 237q-9 37 -15 74q-8 53 -8 106q0 121 41 243q67 206 225 336q166 137 377 137
q182 0 339 -113t203 -295q4 -20 7 -40q5 -34 5 -71q0 -164 -101 -375zM790 466q29 -11 83 -36q118 165 118 302q0 22 -3 44q-2 14 -6 27q-21 85 -124 136q-84 41 -178 41q-226 0 -353 -188q-89 -130 -89 -280q0 -38 6 -79q4 -27 11 -56q23 -87 118 -133q77 -38 173 -38
q111 0 233 113q-61 36 -134 76q-5 5 -7 13l-1 6q-1 5 -1 10q0 17 10 31q20 25 64 25q32 0 80 -14z" />
    <glyph glyph-name="r" unicode="r" horiz-adv-x="1328" 
d="M435 638q4 -8 24 -8q51 0 156 38.5t148 75.5q63 52 124 116q79 84 79 119v7q0 4 -3 7q-28 41 -200 41q-183 0 -239 -68q-13 -17 -55 -159q-35 -121 -35 -157v-6zM716 491q400 -165 452 -333l2 -4v-6q1 -5 1 -10q0 -29 -31 -63q-43 -44 -82 -44q-21 0 -30 19
q-59 155 -476 372q-81 -26 -151 -32q-11 -2 -59 -149q-53 -163 -69 -186q-36 -55 -92 -55q-57 0 -118 54q-53 46 -63 87v8q0 8 5 11q93 54 174 370l74 344q2 10 2 23q0 16 -3 37q-2 16 -7 37q-9 39 -13 65q-3 21 -3 34v8q3 76 334 151q31 6 87 6q144 0 270 -44
q171 -61 243 -185q7 -12 11 -25l2 -10q2 -8 2 -17q0 -88 -124 -217q-139 -143 -338 -246z" />
    <glyph glyph-name="s" unicode="s" horiz-adv-x="1230" 
d="M1042 983q1 -8 3 -15q1 -10 1 -18q0 -39 -25 -68q-36 -43 -87 -43q-77 0 -109 91q-13 35 -89.5 63t-157.5 28q-80 0 -124 -31q-68 -40 -136 -79q-72 -48 -72 -95v-10l1 -6l2 -7q17 -47 174 -47q29 0 203 8h38q329 0 399 -285q7 -25 12 -63l3 -20q2 -11 2 -22
q0 -114 -136 -230q-159 -134 -366 -134q-354 0 -548 203q-5 3 -7 10v7q0 30 55 78q61 54 104 54q23 0 30 -18q48 -109 401 -131q13 -1 27 -1q108 0 153 59q39 49 39 155q0 20 -2 42v8q-13 49 -138 75q-106 21 -257 21q-126 0 -158 -12q-11 -4 -31 -4q-66 0 -140 34
q-82 37 -94 86l-1 3q-3 15 -5 29q-6 37 -6 72q0 65 21 118q25 70 95 131q61 44 120 88q40 31 146 56q119 30 240 30q279 0 391 -151q21 -29 29 -59z" />
    <glyph glyph-name="t" unicode="t" horiz-adv-x="1156" 
d="M921 1178q41 -5 71 -123q8 -30 11 -51q3 -14 3 -24q0 -15 -6 -19q-14 -11 -335 -45q-56 -59 -56 -70l2 -2q-62 -58 -121 -394q-26 -180 -51 -360q-58 -90 -107 -90q-53 0 -103 90q-3 5 -5 12q-2 4 -2 10q-3 14 -3 34q0 102 54 359q73 352 97 352h1l5 5q-4 6 -18 18
q-6 3 -14 10q-62 -5 -108 -10q-112 -15 -136 -36q-5 -3 -8 -3q-39 0 -85 181q-5 23 -6 32l-1 6q182 31 365 62q356 58 506 58q30 0 50 -2z" />
    <glyph glyph-name="u" unicode="u" horiz-adv-x="1322" 
d="M251 1215q43 0 93 -29q42 -28 48 -48v-4q0 -4 -2 -5q-26 -15 -97 -318q-55 -235 -55 -361q0 -34 4 -60q3 -12 5 -23q16 -65 103 -65q103 0 239 56q128 52 128 86v2l-1 4v4q0 52 98 350q100 310 133 370q11 19 41 19q46 0 111.5 -41.5t71.5 -66.5l1 -3v-2q0 -7 -8 -10
q-75 -28 -156 -464q-54 -300 -54 -444q0 -40 4 -68q1 -11 4 -20l1 -7q-53 -12 -105 -12q-117 0 -138 64q-7 22 -45 22q-84 0 -373 -133q-16 -8 -35 -8q-70 0 -153 81t-107 177q-3 12 -5 24q-1 7 -1 14q-1 5 -1 12q0 78 68 386q20 97 101 448q18 73 82 73z" />
    <glyph glyph-name="v" unicode="v" horiz-adv-x="1187" 
d="M2 1020l-1 5q-1 4 -1 8q0 33 44 63q50 34 98 34q11 0 16 -3q25 -15 148 -506q23 -95 51 -208q38 209 108 339q56 110 165 218q122 115 244 229l163 -125q-32 -112 -51 -137q-41 -54 -184 -105q-92 -33 -182 -244q-68 -150 -129 -380q-26 -103 -51 -208q-244 105 -264 111
q-6 2 -10 14l-1 7q-1 6 -1 13q0 37 30 78q4 4 4 17q0 17 -5 46q-12 80 -55 252q-93 372 -133 472q-3 4 -3 10z" />
    <glyph glyph-name="w" unicode="w" horiz-adv-x="1613" 
d="M32 1075q210 -43 222 -89v-9q-14 -35 -25 -223q-7 -118 -7 -174q0 -29 1 -42l1 -5q1 -3 2 -3l1 1q102 159 203 318q136 213 160 213h3q5 -4 17 -4q45 0 161 50l155 -597q88 172 175 343q169 326 195 326h2q153 -69 165 -112q0 -18 -203 -463q-182 -402 -182 -464v-6
q2 -2 3 -4q2 -3 3 -6l1 -2v-2q0 -47 -234 -95q-138 484 -236 682q-1 3 -4 3q-20 0 -146 -261q-142 -291 -168 -411q-7 -39 -93 -39q-108 0 -149 66q-11 18 -21 56q-8 30 -13 70q-21 139 -21 392q0 50 1 102q8 389 31 389z" />
    <glyph glyph-name="x" unicode="x" horiz-adv-x="1320" 
d="M547 762q2 -4 7 -4q32 0 220.5 198.5t204.5 198.5q3 0 24 2h35q116 0 130 -58l2 -7v-13q0 -16 -5 -36q-23 -72 -250 -265q-202 -173 -202 -210v-2l1 -1q18 -54 21 -60q7 -15 31 -45q142 -180 199 -216q9 -6 13 -20v-13q0 -33 -38 -81q-47 -60 -83 -60q-8 0 -14 4
q-47 28 -147 140q-110 120 -146 194q0 1 -1 1q-13 0 -179 -165q-181 -180 -205 -236q-4 -8 -18 -8q-30 0 -83.5 37.5t-61.5 72.5l-1 3q-1 4 -1 7q0 7 2 13q15 34 175 221q167 195 177 211q13 22 13 53q0 12 -1 24q-2 10 -4 21q-10 38 -28 59l-114 128q-96 108 -101 128v7
q0 25 34 68q40 49 77 49q13 0 24 -6q72 -48 177 -182q57 -76 116 -152z" />
    <glyph glyph-name="y" unicode="y" horiz-adv-x="1131" 
d="M321 570q5 16 5 28q0 5 -1 9v3q-3 11 -11 12q-24 8 -151 160q-139 163 -159 240q-2 8 -2 14q-2 10 -2 18q0 36 23 64q32 32 73 32q38 0 48 -29q13 -40 151.5 -207.5t161.5 -167.5q1 0 3 1q36 118 194 327q124 166 201 166q60 0 111 -80q8 -12 12 -25q1 -4 2 -9
q1 -6 1 -12q0 -39 -31 -83q-40 -57 -110 -101q-108 -67 -305 -425q-174 -319 -236 -505q-5 -17 -21 -17q-35 0 -94.5 61t-68.5 97l-1 3v3q0 8 8 10q32 5 118 210q36 85 81 203z" />
    <glyph glyph-name="z" unicode="z" horiz-adv-x="1111" 
d="M66 1023l88 46q569 131 660 131h8q39 -3 78.5 -58t54.5 -112q3 -9 4 -18q1 -10 1 -18q0 -17 -6 -28q-12 -20 -269 -287q-246 -259 -257 -291q-4 -12 -4 -22q0 -5 1 -10l1 -5q8 -32 41 -32q8 0 18 3q75 24 150 49q136 41 181 41q15 0 21 -5q28 -23 66 -65q48 -56 56 -90
l1 -6q1 -4 1 -8q0 -14 -10 -20q-14 -9 -366 -102q-326 -87 -326 -122q-1 -12 -16 -12q-40 0 -140 67q-91 61 -98 90l-1 6q0 103 273 436q260 317 310 317h12q21 0 21 16q0 4 -1 7v4q-3 10 -8 20q-96 -25 -169 -44q-175 -51 -200 -81q-6 -5 -14 -5q-33 0 -92.5 65.5
t-71.5 113.5l-1 6v7q0 11 3 16z" />
    <glyph glyph-name="braceleft" unicode="{" horiz-adv-x="1029" 
d="M330 329q252 105 334 105q9 0 15 -1q49 -8 92 -66.5t58 -119.5q3 -11 4 -21q2 -10 2 -17q0 -21 -12 -30q-35 -28 -272 -106q-215 -73 -274 -73q-8 0 -13 1q-240 63 -262 150l-1 5q-1 8 -1 17q12 209 90 664q102 587 189 614q280 84 454 84q68 0 81 -21q42 -59 58 -127
q3 -12 5 -24t2 -22q0 -38 -24 -56q-28 -20 -205 -39q-164 -16 -165 -31.5t-20 -123.5q-15 -83 -15 -96v-3q-5 -8 -120 -663z" />
    <glyph glyph-name="bar" unicode="|" horiz-adv-x="840" 
d="M262 -296q-15 -4 -42 -4q-67 0 -124 27q-75 33 -91 98q-2 7 -3 14q-2 11 -2 22q0 23 7 48q97 414 195 827q196 816 239 871q13 18 38 18q51 0 130 -73q73 -68 81 -97q0 -4 -4 -4h-4q-44 0 -266 -1130q-106 -533 -154 -617z" />
    <glyph glyph-name="braceright" unicode="}" horiz-adv-x="1050" 
d="M571 1229q-285 -111 -424 -111h-14q-33 2 -43 39l-2 10q-1 10 -1 20q0 44 22 109q26 84 54 105q36 29 227 96q172 61 229 61q10 0 17 -2q241 -63 262 -147l1 -8q1 -8 1 -17q-13 -225 -87 -677q-94 -603 -183 -629q-92 -29 -295 -53q-180 -25 -252 -25q-45 0 -75 117
q-5 26 -9 48q-3 23 -3 41q0 49 23 66q28 21 217 39q179 19 179 33t47 295q41 252 41 269v1q3 9 68 320z" />
    <glyph glyph-name="asciitilde" unicode="~" horiz-adv-x="1000" 
d="M517 1890q58 0 93 179q25 8 50 8q45 0 93.5 -32t95.5 -64q1 -10 1 -23q0 -41 -14 -113q-31 -141 -105 -196q-68 -49 -129 -49q-64 0 -148.5 64.5t-117.5 64.5q-63 0 -125 -121q-82 41 -139 111q-45 57 -60 112q-2 12 -4 23q18 75 74 141.5t125 79.5q4 1 8 1q33 0 111 -45
q88 -50 125.5 -95.5t65.5 -45.5z" />
    <glyph glyph-name="exclamdown" unicode="&#xa1;" horiz-adv-x="968" 
d="M618 479q-6 -37 -58 -432q-17 -47 -156 -47q-37 0 -158 6q-69 3 -118 3q-24 0 -43 -1h-5q-65 0 -77 47l-2 8q-1 8 -1 16q0 125 229 437q142 349 142 406v7q-2 4 -4 5l-2 2q0 6 73 6q62 0 165 -4q37 -2 91 -4q-23 -23 -37 -154q-30 -250 -39 -301zM581 1086
q-119 45 -142 139l-1 8q-1 9 -1 19q0 23 8 51l19 40q35 51 70 81q54 40 107 41q38 0 70 -15q80 -46 101 -125q3 -10 4 -19q2 -13 2 -25q0 -44 -25 -78l-56 -71l-6 -8q-44 -42 -95 -43q-28 0 -55 5z" />
    <glyph glyph-name="cent" unicode="&#xa2;" horiz-adv-x="1368" 
d="M295 207q-72 35 -134 94q-103 102 -142 239q-10 33 -14 64q-5 29 -5 57q0 75 34 136q111 208 190 294q185 197 447 197q23 0 44 -1q30 62 43 74q14 13 39 13q51 0 127 -54q71 -50 77 -72v-1q0 -2 -3 -2h-4q-4 0 -10 -6q30 -10 59 -23q152 -66 175 -146q-2 -55 -82 -99
q-66 -37 -108 -37q-10 0 -18 2q-47 75 -109 119q-79 -209 -218 -646q-6 -19 -12 -37q79 10 141 40q76 39 76 89q0 5 -1 10t-3 10q-2 7 -6 16l225 72q67 -55 89 -132l4 -20q1 -9 1 -18q0 -23 -9 -42q-55 -103 -250 -173q-164 -59 -341 -65q-60 -167 -92 -206q-15 -3 -42 -3
q-67 0 -123 20q-74 24 -87 72q-2 6 -3 11t-1 10q0 19 9 42q19 51 37 102zM636 1106q-94 -26 -208 -156q-114 -129 -175 -262q-5 -24 -5 -48q0 -16 2 -32q3 -16 7 -31q25 -87 117 -157q55 148 111 296q90 239 151 390z" />
    <glyph glyph-name="sterling" unicode="&#xa3;" horiz-adv-x="1425" 
d="M301 1066q14 132 78 208q57 55 111 110q38 39 139 70q112 37 229 37q267 0 381 -188q21 -37 30 -74q2 -10 4 -19q2 -15 2 -29q0 -44 -21 -79q-33 -53 -82 -53q-74 0 -109 114q-13 43 -52.5 78t-117.5 35q-147 0 -249 -117q-60 -74 -60 -138q0 -10 1 -20l2 -1l1 -96
q125 25 201 25q86 0 93 -12t61 -65.5t61 -79.5l1 -4v-6q0 -21 -27 -33q-59 -28 -385 -98l11 -242q349 55 453 55q29 0 44 -11q49 -36 93 -88.5t55 -97.5q2 -7 3 -13t1 -10q0 -16 -10 -24q-36 -29 -515 -118q-369 -82 -434 -82q-6 0 -9 1q-241 63 -263 150v5q-1 5 -1 11v6
l260 123l6 268q-95 -3 -106.5 -3.5t-13.5 -0.5q-12 0 -77 59q-79 71 -90 112l4 24q8 7 291 74z" />
    <glyph glyph-name="currency" unicode="&#xa4;" horiz-adv-x="1613" 
d="M598 753q-1 -8 -1 -16t1 -15q1 -5 3 -10q11 -49 101 -49h5q98 0 98 63q0 7 -1 14q-2 7 -3 13q-17 68 -91 76q-11 1 -21 1q-85 0 -91 -77zM422 897q-2 3 -5 6l-142 160q-120 135 -126 159v9q0 31 42 85q50 62 97 62q16 0 29 -8q90 -60 222 -227q31 -42 63 -84q42 16 87 16
q16 0 32 -2q50 -6 99 -28q60 58 149 151q235 248 255 248q4 0 30 2h43q145 0 163 -72l2 -9q1 -7 1 -16q0 -20 -7 -45q-29 -90 -312 -331q-72 -61 -123 -109q30 -48 42 -96q3 -11 4 -21q3 -16 3 -32q0 -52 -29 -97q-28 -38 -57 -75q156 -196 222 -238q11 -8 16 -25v-6
q1 -5 1 -10q0 -42 -48 -102q-59 -74 -104 -74q-10 0 -17 4q-59 35 -184 176q-73 80 -120 143q-14 -1 -28 -1q-19 0 -38 1q-46 4 -91 21q-51 -48 -130 -127q-227 -225 -257 -295q-5 -10 -22 -10q-38 0 -104.5 47t-77.5 90l-1 4q-1 5 -1 9q0 9 3 16q18 43 218 276
q112 130 167 196q-2 4 -2 7q-3 9 -4 18l-1 5q-5 30 -5 59q0 92 46 170z" />
    <glyph glyph-name="yen" unicode="&#xa5;" horiz-adv-x="1376" 
d="M493 309q-78 -166 -119 -288q-7 -21 -27 -21q-43 0 -117.5 76t-85.5 121l-1 4v4q0 10 10 12q23 4 69 92q-19 13 -61 51q-80 72 -90 113l-1 6v3q0 9 4 14q7 6 246 32q26 61 54 133q-64 -2 -107 -2q-41 0 -63 2q0 -3 -2 -3q-12 0 -77 59q-80 71 -90 112l-1 5v5q0 9 5 14
q6 6 260 33q-39 45 -95 112q-174 204 -199 301q-2 9 -3 17q-2 12 -2 23q0 44 29 79q40 40 91 40q47 0 60 -36q16 -50 189.5 -259.5t201.5 -209.5q2 0 4 2q45 147 242 409q155 207 252 207q75 0 139 -100q10 -15 14 -31q2 -5 3 -11q1 -8 1 -16q0 -48 -38 -103
q-50 -71 -138 -126q-86 -54 -219 -257h7q86 0 93.5 -12t61.5 -65.5t61 -79.5v-10q0 -21 -27 -33q-54 -26 -343 -48q-8 -13 -15 -27q-27 -48 -51 -95q166 14 256 14q86 0 93 -12.5t61.5 -65.5t61.5 -80l1 -3v-6q0 -22 -27 -34q-61 -28 -410 -51q-89 -6 -161 -10z" />
    <glyph glyph-name="brokenbar" unicode="&#xa6;" horiz-adv-x="840" 
d="M486 598q-69 -270 -70 -277q-106 -533 -154 -617q-15 -4 -42 -4q-67 0 -124 27q-75 33 -91 98q-2 7 -3 14q-2 11 -2 22q0 23 7 48q90 384 175 668q67 34 157 40q14 1 27 1q63 0 120 -20zM241 820q162 739 200 787q13 18 38 18q51 0 130 -73q73 -68 81 -97q0 -4 -4 -4h-4
q-30 0 -145 -612q-90 -27 -188 -27q-53 0 -108 8z" />
    <glyph glyph-name="section" unicode="&#xa7;" horiz-adv-x="1400" 
d="M477 793v-11q0 -11 1 -20q0 -5 2 -10q12 -49 102 -49h5q97 0 97 62q0 7 -1 15q-1 7 -3 13q-16 68 -90 76q-11 1 -21 1q-85 0 -92 -77zM300 606h-2q-74 0 -160 60q-94 64 -113 151l-1 4q-5 27 -9 52q-15 99 -15 185q0 80 13 147q23 123 95 230q64 77 127 154q40 55 158 98
q130 52 266 52q312 0 452 -263q26 -52 37 -104q3 -14 5 -27q4 -26 4 -49q0 -57 -22 -102q-37 -74 -94 -74q-86 0 -131 159q-17 61 -105.5 110t-179.5 49q-89 0 -134 -55q-73 -69 -147 -137q-71 -80 -71 -158q0 -13 2 -26l3 -24q11 -37 53 -57q9 11 19 23q98 111 219 111
q16 0 31 -2q120 -14 224 -117q19 -19 36 -38q273 -69 361 -487q10 -43 20 -109l5 -35q4 -34 4 -67q0 -187 -131 -375q-165 -235 -396 -235q-397 0 -635 356q-5 5 -7 17l-1 4q-1 6 -1 13q0 51 54 133q64 93 113 93q25 0 35 -30q63 -192 461 -230q15 -2 30 -2q121 0 166 103
q32 68 32 201q0 65 -8 145l-2 14q-15 66 -103 108q-12 -16 -25 -31q-69 -94 -230 -94q-19 0 -39 1q-90 7 -179 70q-53 38 -84 85z" />
    <glyph glyph-name="dieresis" unicode="&#xa8;" horiz-adv-x="1070" 
d="M776 1979q119 -45 142 -139l1 -8q1 -9 1 -19q0 -23 -8 -51l-19 -40q-35 -51 -70 -81q-54 -40 -107 -41q-38 0 -70 15q-80 46 -101 125q-2 10 -4 19q-2 13 -2 25q0 44 25 78l56 71l6 8q45 42 95 43q28 0 55 -5zM237 1979q119 -45 142 -139l1 -8q1 -9 1 -19q0 -23 -8 -51
l-19 -40q-35 -51 -70 -81q-54 -40 -107 -41q-38 0 -69 15q-81 46 -102 125q-2 10 -4 19q-2 13 -2 25q0 44 25 78l56 71l6 8q45 42 95 43q28 0 55 -5z" />
    <glyph glyph-name="copyright" unicode="&#xa9;" horiz-adv-x="1216" 
d="M342 1111q-1 -12 -1 -24q0 -16 2 -31q1 -10 4 -20q15 -61 66 -110q35 -33 102 -33q68 0 113 31q36 25 36 57q0 5 -1 10l-1 7q-1 5 -3 10l110 49q35 -37 48 -89q2 -7 3 -13q1 -8 1 -15q0 -15 -4 -26q-25 -70 -121 -117q-90 -45 -190 -45q-34 0 -64 6q-76 17 -135 91
q-55 69 -77 161q-7 23 -10 44q-4 26 -4 50q0 44 13 80q50 141 88 199q88 133 219 133q103 0 187 -48q78 -45 92 -99q0 -37 -39 -67q-32 -25 -53 -25q-5 0 -9 1q-61 120 -157 120q-8 0 -17 -1q-53 -5 -117 -109q-54 -87 -81 -177zM462 1600q-176 0 -279 -139
q-81 -109 -81 -253q0 -40 6 -83q30 -197 175.5 -336t321.5 -139t280 139q80 108 80 250q0 42 -7 86q-29 197 -174.5 336t-321.5 139zM843.5 1531.5q179.5 -168.5 214.5 -406.5q8 -52 8 -101q0 -174 -100 -305q-129 -169 -346 -169q-218 0 -397 168.5t-215 406.5q-8 51 -8 99
q0 175 101 308q128 168 346 168q217 0 396.5 -168.5z" />
    <glyph glyph-name="ordfeminine" unicode="&#xaa;" 
d="M0 200v1100q0 200 200 200h1100q200 0 200 -200v-1100q0 -200 -200 -200h-1100q-200 0 -200 200zM1475 201v1099q0 175 -175 175h-1100q-174 0 -175 -175v-1100q1 -175 175 -175h1101q174 0 174 176z" />
    <glyph glyph-name="guillemotleft" unicode="&#xab;" horiz-adv-x="2160" 
d="M546 766q95 -10 266 -62q163 -49 170.5 -62t67.5 -77q54 -55 59 -80l1 -4v-4q0 -27 -64 -27q-101 0 -438.5 84t-437.5 84q-1 -3 -3 -3q-12 0 -77 59q-80 71 -90 112v9q0 11 5 16q14 14 374 164q382 159 456 159q10 0 14 -4q7 -12 61 -65t60 -80l1 -4v-6q0 -22 -26 -33
q-126 -62 -399 -176zM1446 766q95 -10 266 -62q163 -49 170.5 -62t67.5 -77q54 -55 59 -80l1 -4v-4q0 -27 -64 -27q-101 0 -438.5 84t-437.5 84q-1 -3 -3 -3q-12 0 -77 59q-80 71 -90 112v9q0 11 5 16q14 14 374 164q382 159 456 159q10 0 14 -4q7 -12 61 -65t60 -80l1 -4
v-6q0 -22 -26 -33q-126 -62 -399 -176z" />
    <glyph glyph-name="logicalnot" unicode="&#xac;" 
d="M0 200v1100q0 200 200 200h1100q200 0 200 -200v-1100q0 -200 -200 -200h-1100q-200 0 -200 200zM1475 201v1099q0 175 -175 175h-1100q-174 0 -175 -175v-1100q1 -175 175 -175h1101q174 0 174 176z" />
    <glyph glyph-name="registered" unicode="&#xae;" horiz-adv-x="1216" 
d="M422 1159q2 -5 15 -5q32 0 97.5 24t92.5 47q39 33 77 73q50 53 50 75v2l-1 2q0 2 -1 4q-18 25 -125 25q-115 0 -150 -42q-8 -11 -34 -99q-21 -75 -21 -97v-9zM738 1500q-127 100 -276 100q-176 0 -279 -139q-81 -109 -81 -253q0 -40 6 -83q19 -124 83 -224q37 59 71 191
q23 107 46 215q1 5 1 13q0 10 -2 24q-1 10 -4 23q-6 24 -8 41q-2 13 -2 21v5q2 47 209 94q19 4 54 4q90 0 169 -27q7 -2 13 -5zM301 773q139 -123 304 -123q176 0 280 139q80 108 80 250q0 42 -7 86q-17 116 -75 212q-11 -49 -75 -116q-86 -89 -211 -154q250 -103 283 -208
l1 -6v-5q0 -20 -19 -41q-27 -27 -51 -27q-13 0 -19 12q-36 96 -298 232q-50 -16 -94 -20q-6 -1 -37 -93q-32 -102 -42 -116q-9 -14 -20 -22zM1058 1125q8 -52 8 -101q0 -174 -100 -305q-129 -169 -346 -169q-218 0 -397 168.5t-215 406.5q-8 51 -8 99q0 175 101 308
q128 168 346 168q217 0 396.5 -168.5t214.5 -406.5z" />
    <glyph glyph-name="macron" unicode="&#xaf;" 
d="M0 200v1100q0 200 200 200h1100q200 0 200 -200v-1100q0 -200 -200 -200h-1100q-200 0 -200 200zM1475 201v1099q0 175 -175 175h-1100q-174 0 -175 -175v-1100q1 -175 175 -175h1101q174 0 174 176z" />
    <glyph glyph-name="degree" unicode="&#xb0;" horiz-adv-x="841" 
d="M684 1892q3 -12 5 -24q2 -15 2 -29q0 -51 -28 -96q-43 -57 -88 -115q-70 -93 -232 -93q-18 0 -38 1q-90 6 -180 70q-93 68 -116 163q-3 10 -4 19l-1 7q-4 30 -4 59q0 132 94 235q97 111 217 111q16 0 31 -2q121 -15 225 -117q94 -92 117 -189zM219 1878v-12q0 -11 1 -20
l1 -9q13 -49 103 -49h5q97 0 97 62q0 7 -1 15q-1 7 -3 13q-17 68 -91 76q-11 1 -21 1q-84 0 -91 -77z" />
    <glyph glyph-name="plusminus" unicode="&#xb1;" 
d="M0 200v1100q0 200 200 200h1100q200 0 200 -200v-1100q0 -200 -200 -200h-1100q-200 0 -200 200zM1475 201v1099q0 175 -175 175h-1100q-174 0 -175 -175v-1100q1 -175 175 -175h1101q174 0 174 176z" />
    <glyph glyph-name="uni00B2" unicode="&#xb2;" 
d="M0 200v1100q0 200 200 200h1100q200 0 200 -200v-1100q0 -200 -200 -200h-1100q-200 0 -200 200zM1475 201v1099q0 175 -175 175h-1100q-174 0 -175 -175v-1100q1 -175 175 -175h1101q174 0 174 176z" />
    <glyph glyph-name="uni00B3" unicode="&#xb3;" 
d="M0 200v1100q0 200 200 200h1100q200 0 200 -200v-1100q0 -200 -200 -200h-1100q-200 0 -200 200zM1475 201v1099q0 175 -175 175h-1100q-174 0 -175 -175v-1100q1 -175 175 -175h1101q174 0 174 176z" />
    <glyph glyph-name="acute" unicode="&#xb4;" horiz-adv-x="581" 
d="M39 1589q-19 0 -39 1q60 211 60 229q0 2 -1 2q-6 0 -11 24q-2 9 -2 18t2 19q1 7 3 15q25 100 153 145q24 8 46 8q50 0 93 -43q7 -6 62 -79q26 -35 26 -82q0 -13 -2 -26q-2 -9 -4 -19q-6 -21 -14 -39q-102 -173 -372 -173z" />
    <glyph glyph-name="mu" unicode="&#xb5;" horiz-adv-x="1427" 
d="M130 471q17 86 44 208q20 97 101 448q17 73 81 73q43 0 93 -29q44 -28 49 -48v-3q0 -4 -3 -6q-26 -15 -96 -318q-46 -197 -49 -262t-5 -94q-1 -9 -1 -18q0 -22 4 -47q2 -12 4 -23q17 -65 103 -65q103 0 240 56q127 51 127 85v12q0 52 97 349q100 310 134 370q10 19 40 19
q46 0 112 -41.5t71 -66.5l1 -3v-2q0 -7 -7 -10q-76 -28 -157 -464q-54 -300 -54 -444q0 -40 4 -68q2 -11 4 -20l1 -7q-53 -12 -104 -12q-118 0 -139 64q-7 22 -44 22q-84 0 -373 -133q-17 -8 -36 -8q-58 0 -108 55q-28 -230 -54 -278q-13 -3 -34 -3q-54 0 -99 21
q-60 27 -73 79q-2 5 -3 11q-1 7 -1 16q0 18 5 40q72 307 125 545z" />
    <glyph glyph-name="paragraph" unicode="&#xb6;" 
d="M0 200v1100q0 200 200 200h1100q200 0 200 -200v-1100q0 -200 -200 -200h-1100q-200 0 -200 200zM1475 201v1099q0 175 -175 175h-1100q-174 0 -175 -175v-1100q1 -175 175 -175h1101q174 0 174 176z" />
    <glyph glyph-name="periodcentered" unicode="&#xb7;" horiz-adv-x="531" 
d="M237 929q118 -45 142 -139l1 -8q1 -8 1 -16q0 -25 -9 -54l-19 -40q-34 -51 -70 -81q-54 -40 -106 -41q-38 0 -70 15q-81 46 -101 125q-3 10 -4 19q-2 14 -2 26q0 44 24 77l57 71l5 8q45 42 96 43q28 0 55 -5z" />
    <glyph glyph-name="periodcentered" unicode="&#x2219;" horiz-adv-x="531" 
d="M237 929q118 -45 142 -139l1 -8q1 -8 1 -16q0 -25 -9 -54l-19 -40q-34 -51 -70 -81q-54 -40 -106 -41q-38 0 -70 15q-81 46 -101 125q-3 10 -4 19q-2 14 -2 26q0 44 24 77l57 71l5 8q45 42 96 43q28 0 55 -5z" />
    <glyph glyph-name="cedilla" unicode="&#xb8;" horiz-adv-x="405" 
d="M44 -290q97 -52 164 -52q66 0 90 22q15 14 15 39q0 6 -1 13t-3 14q-11 45 -64 64q-45 16 -107 16q-16 0 -33 -2l4 176h63l-11 -104q31 4 61 5q86 0 144 -40.5t76 -113.5q2 -10 4 -19q2 -11 2 -22q0 -48 -34 -79q-47 -45 -149 -45q-109 0 -197 32z" />
    <glyph glyph-name="uni00B9" unicode="&#xb9;" 
d="M0 200v1100q0 200 200 200h1100q200 0 200 -200v-1100q0 -200 -200 -200h-1100q-200 0 -200 200zM1475 201v1099q0 175 -175 175h-1100q-174 0 -175 -175v-1100q1 -175 175 -175h1101q174 0 174 176z" />
    <glyph glyph-name="ordmasculine" unicode="&#xba;" 
d="M0 200v1100q0 200 200 200h1100q200 0 200 -200v-1100q0 -200 -200 -200h-1100q-200 0 -200 200zM1475 201v1099q0 175 -175 175h-1100q-174 0 -175 -175v-1100q1 -175 175 -175h1101q174 0 174 176z" />
    <glyph glyph-name="guillemotright" unicode="&#xbb;" horiz-adv-x="2160" 
d="M1464 818q-95 10 -266 62q-163 49 -170.5 62t-68.5 77q-53 55 -59 80v8q0 27 64 27q101 0 438.5 -84t437.5 -84q1 3 3 3q12 0 77 -59q79 -71 90 -112v-9q0 -11 -5 -16q-15 -14 -374 -164q-382 -159 -456 -159q-10 0 -14 4q-7 12 -61.5 65t-60.5 80v10q0 22 26 33
q126 62 399 176zM564 818q-95 10 -266 62q-163 49 -170.5 62t-68.5 77q-53 55 -59 80v8q0 27 64 27q101 0 438.5 -84t437.5 -84q1 3 3 3q12 0 77 -59q79 -71 90 -112v-9q0 -11 -5 -16q-15 -14 -374 -164q-382 -159 -456 -159q-10 0 -14 4q-7 12 -61.5 65t-60.5 80v10
q0 22 26 33q126 62 399 176z" />
    <glyph glyph-name="onequarter" unicode="&#xbc;" 
d="M0 200v1100q0 200 200 200h1100q200 0 200 -200v-1100q0 -200 -200 -200h-1100q-200 0 -200 200zM1475 201v1099q0 175 -175 175h-1100q-174 0 -175 -175v-1100q1 -175 175 -175h1101q174 0 174 176z" />
    <glyph glyph-name="onehalf" unicode="&#xbd;" 
d="M0 200v1100q0 200 200 200h1100q200 0 200 -200v-1100q0 -200 -200 -200h-1100q-200 0 -200 200zM1475 201v1099q0 175 -175 175h-1100q-174 0 -175 -175v-1100q1 -175 175 -175h1101q174 0 174 176z" />
    <glyph glyph-name="threequarters" unicode="&#xbe;" 
d="M0 200v1100q0 200 200 200h1100q200 0 200 -200v-1100q0 -200 -200 -200h-1100q-200 0 -200 200zM1475 201v1099q0 175 -175 175h-1100q-174 0 -175 -175v-1100q1 -175 175 -175h1101q174 0 174 176z" />
    <glyph glyph-name="questiondown" unicode="&#xbf;" horiz-adv-x="1440" 
d="M1057 714q-73 -49 -143 -84q-102 -88 -160 -104q-136 -19 -272 -39q-108 -21 -144 -68q-15 -19 -15 -44q0 -7 1 -15q0 -6 2 -11q17 -67 122 -100q111 -49 231 -49q28 0 57 3q22 13 203 72q147 61 181 86q4 2 9 2q28 0 90.5 -67t70.5 -96v-6q0 -10 -10 -13
q-104 -51 -209 -102q-194 -79 -395 -79q-23 0 -47 1q-185 8 -384 119q-185 102 -216 184q-12 31 -19 60q-5 18 -7 35q-3 23 -3 44q0 185 259 255q7 2 302 51q224 39 277.5 79t89.5 140q151 -71 165 -128l1 -11v-6q0 -59 -37 -109zM838 1104q-119 45 -142 139l-1 8
q-1 9 -1 19q0 23 8 51l19 40q35 51 70 81q54 40 107 41q38 0 70 -15q80 -46 101 -125q3 -10 4 -19q2 -13 2 -25q0 -44 -25 -78l-56 -71l-6 -8q-44 -42 -95 -43q-28 0 -55 5z" />
    <glyph glyph-name="Agrave" unicode="&#xc0;" horiz-adv-x="1492" 
d="M234 0q-202 20 -230 131q-2 6 -3 13q-1 9 -1 19q0 17 3 34q49 227 435 731q381 497 502 497h3q9 -1 18 -1q18 0 37 3q32 3 38 3q51 0 138 -78q34 -31 64 -154q25 -95 44 -222q28 -191 46 -456q14 -211 14 -320q0 -110 -14 -118q-34 -21 -104 -21q-86 0 -114 37
q-9 15 -16 39q-2 11 -4 24q-5 31 -5 72q0 25 2 54q-98 24 -208 24q-160 0 -317 -49q-134 -41 -199 -90zM596 549l371 24q79 48 79 71v3q-1 4 -14 117q-6 57 -12 96t-11 60q-7 28 -13 30q-25 11 -50 11q-96 0 -203 -150q-57 -82 -147 -262zM920 1762q-8 18 -14 39
q-2 10 -4 19q-2 13 -2 26q0 47 26 82q55 73 62 79q43 43 93 43q22 0 46 -8q128 -45 153 -145q2 -8 3 -15q2 -10 2 -19t-2 -18q-5 -24 -11 -24q-1 0 -1 -2q0 -18 60 -229q-20 -1 -39 -1q-270 0 -372 173z" />
    <glyph glyph-name="Aacute" unicode="&#xc1;" horiz-adv-x="1492" 
d="M234 0q-202 20 -230 131q-2 6 -3 13q-1 9 -1 19q0 17 3 34q49 227 435 731q381 497 502 497h3q9 -1 18 -1q18 0 37 3q32 3 38 3q51 0 138 -78q34 -31 64 -154q25 -95 44 -222q28 -191 46 -456q14 -211 14 -320q0 -110 -14 -118q-34 -21 -104 -21q-86 0 -114 37
q-9 15 -16 39q-2 11 -4 24q-5 31 -5 72q0 25 2 54q-98 24 -208 24q-160 0 -317 -49q-134 -41 -199 -90zM596 549l371 24q79 48 79 71v3q-1 4 -14 117q-6 57 -12 96t-11 60q-7 28 -13 30q-25 11 -50 11q-96 0 -203 -150q-57 -82 -147 -262zM939 1589q-19 0 -39 1
q60 211 60 229q0 2 -1 2q-6 0 -11 24q-2 9 -2 18t2 19q1 7 3 15q25 100 153 145q24 8 46 8q50 0 93 -43q7 -6 62 -79q26 -35 26 -82q0 -13 -2 -26q-2 -9 -4 -19q-6 -21 -14 -39q-102 -173 -372 -173z" />
    <glyph glyph-name="Acircumflex" unicode="&#xc2;" horiz-adv-x="1492" 
d="M234 0q-202 20 -230 131q-2 6 -3 13q-1 9 -1 19q0 17 3 34q49 227 435 731q381 497 502 497h3q9 -1 18 -1q18 0 37 3q32 3 38 3q51 0 138 -78q34 -31 64 -154q25 -95 44 -222q28 -191 46 -456q14 -211 14 -320q0 -110 -14 -118q-34 -21 -104 -21q-86 0 -114 37
q-9 15 -16 39q-2 11 -4 24q-5 31 -5 72q0 25 2 54q-98 24 -208 24q-160 0 -317 -49q-134 -41 -199 -90zM596 549l371 24q79 48 79 71v3q-1 4 -14 117q-6 57 -12 96t-11 60q-7 28 -13 30q-25 11 -50 11q-96 0 -203 -150q-57 -82 -147 -262zM1340 1953q98 -112 126 -225
q5 -18 8 -39q-26 -59 -91.5 -105.5t-120.5 -46.5q-24 0 -44 11l-3 16q-11 45 -58 121q-49 80 -61.5 86t-26.5 6q-94 0 -265 -217q-82 41 -139 111q-46 57 -59 112q-4 12 -6 23q286 340 379 340h3q10 -1 21 -1q17 0 36 2q31 3 37 3q52 0 138 -78q98 -88 126 -119z" />
    <glyph glyph-name="Atilde" unicode="&#xc3;" horiz-adv-x="1492" 
d="M234 0q-202 20 -230 131q-2 6 -3 13q-1 9 -1 19q0 17 3 34q49 227 435 731q381 497 502 497h3q9 -1 18 -1q18 0 37 3q32 3 38 3q51 0 138 -78q34 -31 64 -154q25 -95 44 -222q28 -191 46 -456q14 -211 14 -320q0 -110 -14 -118q-34 -21 -104 -21q-86 0 -114 37
q-9 15 -16 39q-2 11 -4 24q-5 31 -5 72q0 25 2 54q-98 24 -208 24q-160 0 -317 -49q-134 -41 -199 -90zM596 549l371 24q79 48 79 71v3q-1 4 -14 117q-6 57 -12 96t-11 60q-7 28 -13 30q-25 11 -50 11q-96 0 -203 -150q-57 -82 -147 -262zM1117 1890q58 0 93 179q25 8 50 8
q45 0 93.5 -32t95.5 -64q1 -10 1 -23q0 -41 -14 -113q-31 -141 -105 -196q-68 -49 -129 -49q-64 0 -148.5 64.5t-117.5 64.5q-63 0 -125 -121q-82 41 -139 111q-45 57 -60 112q-2 12 -4 23q18 75 74 141.5t125 79.5q4 1 8 1q33 0 111 -45q88 -50 125.5 -95.5t65.5 -45.5z
" />
    <glyph glyph-name="Adieresis" unicode="&#xc4;" horiz-adv-x="1492" 
d="M234 0q-202 20 -230 131q-2 6 -3 13q-1 9 -1 19q0 17 3 34q49 227 435 731q381 497 502 497h3q9 -1 18 -1q18 0 37 3q32 3 38 3q51 0 138 -78q34 -31 64 -154q25 -95 44 -222q28 -191 46 -456q14 -211 14 -320q0 -110 -14 -118q-34 -21 -104 -21q-86 0 -114 37
q-9 15 -16 39q-2 11 -4 24q-5 31 -5 72q0 25 2 54q-98 24 -208 24q-160 0 -317 -49q-134 -41 -199 -90zM596 549l371 24q79 48 79 71v3q-1 4 -14 117q-6 57 -12 96t-11 60q-7 28 -13 30q-25 11 -50 11q-96 0 -203 -150q-57 -82 -147 -262zM1336 1979q119 -45 142 -139l1 -8
q1 -9 1 -19q0 -23 -8 -51l-19 -40q-35 -51 -70 -81q-54 -40 -107 -41q-38 0 -70 15q-80 46 -101 125q-2 10 -4 19q-2 13 -2 25q0 44 25 78l56 71l6 8q45 42 95 43q28 0 55 -5zM797 1979q119 -45 142 -139l1 -8q1 -9 1 -19q0 -23 -8 -51l-19 -40q-35 -51 -70 -81
q-54 -40 -107 -41q-38 0 -69 15q-81 46 -102 125q-2 10 -4 19q-2 13 -2 25q0 44 25 78l56 71l6 8q45 42 95 43q28 0 55 -5z" />
    <glyph glyph-name="Aring" unicode="&#xc5;" horiz-adv-x="1492" 
d="M234 0q-202 20 -230 131q-2 6 -3 13q-1 9 -1 19q0 17 3 34q49 227 435 731q381 497 502 497h3q9 -1 18 -1q18 0 37 3q32 3 38 3q51 0 138 -78q34 -31 64 -154q25 -95 44 -222q28 -191 46 -456q14 -211 14 -320q0 -110 -14 -118q-34 -21 -104 -21q-86 0 -114 37
q-9 15 -16 39q-2 11 -4 24q-5 31 -5 72q0 25 2 54q-98 24 -208 24q-160 0 -317 -49q-134 -41 -199 -90zM596 549l371 24q79 48 79 71v3q-1 4 -14 117q-6 57 -12 96t-11 60q-7 28 -13 30q-25 11 -50 11q-96 0 -203 -150q-57 -82 -147 -262zM1345 1892q3 -12 5 -24
q2 -15 2 -29q0 -51 -28 -96q-43 -57 -88 -115q-70 -93 -232 -93q-18 0 -38 1q-90 6 -180 70q-93 68 -116 163q-3 10 -4 19l-1 7q-4 30 -4 59q0 132 94 235q97 111 217 111q16 0 31 -2q121 -15 225 -117q94 -92 117 -189zM880 1878v-12q0 -11 1 -20l1 -9q13 -49 103 -49h5
q97 0 97 62q0 7 -1 15q-1 7 -3 13q-17 68 -91 76q-11 1 -21 1q-84 0 -91 -77z" />
    <glyph glyph-name="AE" unicode="&#xc6;" horiz-adv-x="2298" 
d="M596 550l371 24q79 48 79 71v3q-1 4 -14 117q-6 57 -12 96t-11 60q-7 28 -13 30q-25 11 -50 11q-96 0 -203 -150q-57 -82 -147 -262zM1021 301q-68 11 -142 11q-160 0 -317 -49q-134 -41 -199 -90l-129 -172q-202 20 -230 131q-2 6 -3 13q-1 9 -1 19q0 17 3 34
q49 227 435 731q381 497 502 497h3q9 -1 18 -1q18 0 37 3q32 3 38 3q51 0 138 -78q15 -14 30 -48q44 133 85 146q99 31 330 70q262 45 385 45q69 0 79 -17q42 -59 59 -127q3 -11 4 -21q2 -13 2 -24q0 -39 -24 -57q-28 -21 -334 -55q-294 -35 -295 -50.5t-20 -123.5l-18 -91
l7 -8q0 3 176 35q193 35 274 35q50 0 57 -12.5t61.5 -65.5t61.5 -80v-10q0 -21 -27 -33q-50 -22 -359 -119q-299 -92 -301 -94q-6 -8 -67 -319q453 215 602 215q29 0 43 -11q50 -36 95 -98.5t56 -107.5q2 -7 3 -13t1 -10q0 -16 -10 -24q-35 -29 -419 -158
q-363 -122 -428 -122q-6 0 -9 1q-240 63 -262 150l-1 5q-1 8 -1 17q3 55 11 128z" />
    <glyph glyph-name="Ccedilla" unicode="&#xc7;" horiz-adv-x="1360" 
d="M596 18h-15q-68 0 -128 12q-153 33 -272 182q-109 137 -155 322q-11 45 -18 87q-8 52 -8 99q0 88 27 162q100 281 175 397q175 267 437 267q207 0 375 -97q156 -90 183 -198v-2q0 -73 -77 -132q-64 -50 -106 -50q-10 0 -18 3q-121 240 -313 240q-17 0 -34 -2
q-107 -10 -236 -219q-107 -174 -161 -354q-3 -24 -3 -47q0 -31 5 -62q3 -21 8 -41q30 -121 132 -219q70 -66 205 -66t226 62q72 50 72 114q0 9 -2 19q-1 7 -3 14q-2 10 -7 21l221 98q70 -74 96 -178q3 -14 5 -27q3 -17 3 -33q0 -27 -8 -49q-49 -139 -241 -233
q-37 -18 -75 -33q41 -58 56 -118q3 -12 5 -24q4 -27 4 -54q0 -41 -9 -81q-20 -77 -88 -115q-91 -83 -253 -83q-18 0 -39 1q-90 6 -179 70q-17 12 -21 40q-1 9 -1 20q0 10 1 22q6 62 52.5 87t97.5 25q25 -12 70 -12h5q97 0 97 62q0 7 -1 15q-1 7 -3 13q-17 65 -84 75z" />
    <glyph glyph-name="Egrave" unicode="&#xc8;" horiz-adv-x="1288" 
d="M0 173q12 209 90 664q102 587 189 614q99 31 330 70q262 45 385 45q69 0 79 -17q42 -59 59 -127q3 -11 4 -21q2 -13 2 -24q0 -39 -24 -57q-28 -21 -334 -55q-294 -35 -295 -50.5t-20 -123.5l-18 -91l7 -8q0 3 176 35q193 35 274 35q50 0 57 -12.5t61.5 -65.5t61.5 -80
v-10q0 -21 -27 -33q-50 -22 -359 -119q-299 -92 -301 -94q-6 -8 -67 -319q453 215 602 215q29 0 43 -11q50 -36 95 -98.5t56 -107.5q2 -7 3 -13t1 -10q0 -16 -10 -24q-35 -29 -419 -158q-363 -122 -428 -122q-6 0 -9 1q-240 63 -262 150l-1 5q-1 8 -1 17zM460 1762
q-8 18 -14 39q-2 10 -4 19q-2 13 -2 26q0 47 26 82q55 73 62 79q43 43 93 43q22 0 46 -8q128 -45 153 -145q2 -8 3 -15q2 -10 2 -19t-2 -18q-5 -24 -11 -24q-1 0 -1 -2q0 -18 60 -229q-20 -1 -39 -1q-270 0 -372 173z" />
    <glyph glyph-name="Eacute" unicode="&#xc9;" horiz-adv-x="1288" 
d="M0 173q12 209 90 664q102 587 189 614q99 31 330 70q262 45 385 45q69 0 79 -17q42 -59 59 -127q3 -11 4 -21q2 -13 2 -24q0 -39 -24 -57q-28 -21 -334 -55q-294 -35 -295 -50.5t-20 -123.5l-18 -91l7 -8q0 3 176 35q193 35 274 35q50 0 57 -12.5t61.5 -65.5t61.5 -80
v-10q0 -21 -27 -33q-50 -22 -359 -119q-299 -92 -301 -94q-6 -8 -67 -319q453 215 602 215q29 0 43 -11q50 -36 95 -98.5t56 -107.5q2 -7 3 -13t1 -10q0 -16 -10 -24q-35 -29 -419 -158q-363 -122 -428 -122q-6 0 -9 1q-240 63 -262 150l-1 5q-1 8 -1 17zM549 1589
q-19 0 -39 1q60 211 60 229q0 2 -1 2q-6 0 -11 24q-2 9 -2 18t2 19q1 7 3 15q25 100 153 145q24 8 46 8q50 0 93 -43q7 -6 62 -79q26 -35 26 -82q0 -13 -2 -26q-2 -9 -4 -19q-6 -21 -14 -39q-102 -173 -372 -173z" />
    <glyph glyph-name="Ecircumflex" unicode="&#xca;" horiz-adv-x="1288" 
d="M985 1566h9q69 0 79 -17q42 -59 59 -127q3 -11 4 -21q2 -13 2 -24q0 -39 -24 -57q-28 -21 -334 -55q-294 -35 -295 -50.5t-20 -123.5l-18 -91l7 -8q0 3 176 35q193 35 274 35q50 0 57 -12.5t61.5 -65.5t61.5 -80v-10q0 -21 -27 -33q-50 -22 -359 -119q-299 -92 -301 -94
q-6 -8 -67 -319q453 215 602 215q29 0 43 -11q50 -36 95 -98.5t56 -107.5q2 -7 3 -13t1 -10q0 -16 -10 -24q-35 -29 -419 -158q-363 -122 -428 -122q-6 0 -9 1q-240 63 -262 150l-1 5q-1 8 -1 17q12 209 90 664q102 587 189 614q99 31 330 70q138 24 238 35l-2 8
q-11 45 -58 121q-49 80 -61.5 86t-26.5 6q-94 0 -265 -217q-82 41 -139 111q-46 57 -59 112q-4 12 -6 23q286 340 379 340h3q10 -1 21 -1q17 0 36 2q31 3 37 3q52 0 138 -78q98 -88 126 -119q98 -112 126 -225q5 -18 8 -39q-26 -59 -91 -105q-14 -10 -28 -18z" />
    <glyph glyph-name="Edieresis" unicode="&#xcb;" horiz-adv-x="1288" 
d="M0 173q12 209 90 664q102 587 189 614q99 31 330 70q262 45 385 45q69 0 79 -17q42 -59 59 -127q3 -11 4 -21q2 -13 2 -24q0 -39 -24 -57q-28 -21 -334 -55q-294 -35 -295 -50.5t-20 -123.5l-18 -91l7 -8q0 3 176 35q193 35 274 35q50 0 57 -12.5t61.5 -65.5t61.5 -80
v-10q0 -21 -27 -33q-50 -22 -359 -119q-299 -92 -301 -94q-6 -8 -67 -319q453 215 602 215q29 0 43 -11q50 -36 95 -98.5t56 -107.5q2 -7 3 -13t1 -10q0 -16 -10 -24q-35 -29 -419 -158q-363 -122 -428 -122q-6 0 -9 1q-240 63 -262 150l-1 5q-1 8 -1 17zM1076 1979
q119 -45 142 -139l1 -8q1 -9 1 -19q0 -23 -8 -51l-19 -40q-35 -51 -70 -81q-54 -40 -107 -41q-38 0 -70 15q-80 46 -101 125q-2 10 -4 19q-2 13 -2 25q0 44 25 78l56 71l6 8q45 42 95 43q28 0 55 -5zM537 1979q119 -45 142 -139l1 -8q1 -9 1 -19q0 -23 -8 -51l-19 -40
q-35 -51 -70 -81q-54 -40 -107 -41q-38 0 -69 15q-81 46 -102 125q-2 10 -4 19q-2 13 -2 25q0 44 25 78l56 71l6 8q45 42 95 43q28 0 55 -5z" />
    <glyph glyph-name="Igrave" unicode="&#xcc;" horiz-adv-x="1225" 
d="M232 1475q116 5 298 5t431 -5q65 -66 101 -185q6 -23 10 -41q2 -17 3 -31v-7q0 -31 -16 -40q-69 -33 -238 -33q-26 0 -55 1q-182 -708 -182 -805v-10l1 -2q0 -2 1 -3q8 -4 31 -4q65 0 232 29l2 -10q10 -45 11 -83q1 -9 1 -18t-1 -18q-11 -131 -120 -141
q-160 -15 -740 -74l-1 15q-1 25 -1 48q0 45 4 82q10 146 66 150h102q64 0 89.5 27.5t97.5 338t94 486.5v2q-4 14 -82 14q-111 0 -326 -24q15 98 34 196q38 135 153 140zM510 1762q-8 18 -14 39q-2 10 -4 19q-2 13 -2 26q0 47 26 82q55 73 62 79q43 43 93 43q22 0 46 -8
q128 -45 153 -145q2 -8 3 -15q2 -10 2 -19t-2 -18q-5 -24 -11 -24q-1 0 -1 -2q0 -18 60 -229q-20 -1 -39 -1q-270 0 -372 173z" />
    <glyph glyph-name="Iacute" unicode="&#xcd;" horiz-adv-x="1225" 
d="M232 1475q116 5 298 5t431 -5q65 -66 101 -185q6 -23 10 -41q2 -17 3 -31v-7q0 -31 -16 -40q-69 -33 -238 -33q-26 0 -55 1q-182 -708 -182 -805v-10l1 -2q0 -2 1 -3q8 -4 31 -4q65 0 232 29l2 -10q10 -45 11 -83q1 -9 1 -18t-1 -18q-11 -131 -120 -141
q-160 -15 -740 -74l-1 15q-1 25 -1 48q0 45 4 82q10 146 66 150h102q64 0 89.5 27.5t97.5 338t94 486.5v2q-4 14 -82 14q-111 0 -326 -24q15 98 34 196q38 135 153 140zM529 1589q-19 0 -39 1q60 211 60 229q0 2 -1 2q-6 0 -11 24q-2 9 -2 18t2 19q1 7 3 15q25 100 153 145
q24 8 46 8q50 0 93 -43q7 -6 62 -79q26 -35 26 -82q0 -13 -2 -26q-2 -9 -4 -19q-6 -21 -14 -39q-102 -173 -372 -173z" />
    <glyph glyph-name="Icircumflex" unicode="&#xce;" horiz-adv-x="1225" 
d="M232 1475q116 5 298 5t431 -5q65 -66 101 -185q6 -23 10 -41q2 -17 3 -31v-7q0 -31 -16 -40q-69 -33 -238 -33q-26 0 -55 1q-182 -708 -182 -805v-10l1 -2q0 -2 1 -3q8 -4 31 -4q65 0 232 29l2 -10q10 -45 11 -83q1 -9 1 -18t-1 -18q-11 -131 -120 -141
q-160 -15 -740 -74l-1 15q-1 25 -1 48q0 45 4 82q10 146 66 150h102q64 0 89.5 27.5t97.5 338t94 486.5v2q-4 14 -82 14q-111 0 -326 -24q15 98 34 196q38 135 153 140zM970 1953q98 -112 126 -225q5 -18 8 -39q-26 -59 -91.5 -105.5t-120.5 -46.5q-24 0 -44 11l-3 16
q-11 45 -58 121q-49 80 -61.5 86t-26.5 6q-94 0 -265 -217q-82 41 -139 111q-46 57 -59 112q-4 12 -6 23q286 340 379 340h3q10 -1 21 -1q17 0 36 2q31 3 37 3q52 0 138 -78q98 -88 126 -119z" />
    <glyph glyph-name="Idieresis" unicode="&#xcf;" horiz-adv-x="1225" 
d="M232 1475q116 5 298 5t431 -5q65 -66 101 -185q6 -23 10 -41q2 -17 3 -31v-7q0 -31 -16 -40q-69 -33 -238 -33q-26 0 -55 1q-182 -708 -182 -805v-10l1 -2q0 -2 1 -3q8 -4 31 -4q65 0 232 29l2 -10q10 -45 11 -83q1 -9 1 -18t-1 -18q-11 -131 -120 -141
q-160 -15 -740 -74l-1 15q-1 25 -1 48q0 45 4 82q10 146 66 150h102q64 0 89.5 27.5t97.5 338t94 486.5v2q-4 14 -82 14q-111 0 -326 -24q15 98 34 196q38 135 153 140zM996 1979q119 -45 142 -139l1 -8q1 -9 1 -19q0 -23 -8 -51l-19 -40q-35 -51 -70 -81q-54 -40 -107 -41
q-38 0 -70 15q-80 46 -101 125q-2 10 -4 19q-2 13 -2 25q0 44 25 78l56 71l6 8q45 42 95 43q28 0 55 -5zM457 1979q119 -45 142 -139l1 -8q1 -9 1 -19q0 -23 -8 -51l-19 -40q-35 -51 -70 -81q-54 -40 -107 -41q-38 0 -69 15q-81 46 -102 125q-2 10 -4 19q-2 13 -2 25
q0 44 25 78l56 71l6 8q45 42 95 43q28 0 55 -5z" />
    <glyph glyph-name="Eth" unicode="&#xd0;" horiz-adv-x="1694" 
d="M543 812q-25 -156 -62 -398l3 -16q11 -45 85 -45q22 0 50 4q69 12 327 229q142 119 244 267q85 125 85 182q0 5 -1 9l-2 9q-39 113 -145 158q-59 24 -121 24q-17 0 -33 -2q-208 -20 -221 -24q-105 -27 -152 -123q-3 -9 -9 -29q134 10 213 10q86 0 93.5 -12t61.5 -65.5
t61 -79.5v-10q0 -21 -27 -33q-60 -29 -409 -52q-21 -1 -41 -3zM257 1025q43 274 52 274q32 82 257 139q158 42 218 42q7 0 13 -1q325 -33 492 -107q204 -91 244 -253q5 -15 7 -31q4 -26 4 -53q0 -31 -5 -64q-47 -317 -369 -655q-96 -101 -257 -170q-153 -64 -446 -133
q-56 -13 -103 -13q-170 0 -210 162q-5 18 -7 35q-4 22 -4 44q0 8 1 17q46 320 78 541q-33 0 -52 2q0 -3 -2 -3q-12 0 -77 59q-80 71 -90 112l-1 5v6q0 8 4 13q7 6 253 32z" />
    <glyph glyph-name="Ntilde" unicode="&#xd1;" horiz-adv-x="1582" 
d="M299 1404q18 2 56.5 25t60.5 23q25 0 49 -23q75 -68 228 -371q137 -268 243 -530q4 -8 6 -8q23 0 106.5 481t114.5 485q18 3 38 3q49 0 113 -17q106 -27 118 -76v-5q0 -62 -149 -642q-141 -539 -141 -612v-8q0 -2 1 -3q4 -4 4 -8l1 -2v-3q0 -13 -20 -27q-24 -17 -63 -17
q-102 0 -184 123q-19 29 -215 403q-151 285 -194 285h-1q-44 -4 -60 -51q-10 -31 -17 -64q-9 -22 -59 -366q-43 -302 -43 -365q0 -8 1 -12v-5q0 -17 -50 -17q-74 0 -141 38q-79 47 -100 129l-2 9q49 307 97 612q113 604 202 616zM1017 1890q58 0 93 179q25 8 50 8
q45 0 93.5 -32t95.5 -64q1 -10 1 -23q0 -41 -14 -113q-31 -141 -105 -196q-68 -49 -129 -49q-64 0 -148.5 64.5t-117.5 64.5q-63 0 -125 -121q-82 41 -139 111q-45 57 -60 112q-2 12 -4 23q18 75 74 141.5t125 79.5q4 1 8 1q33 0 111 -45q88 -50 125.5 -95.5t65.5 -45.5z
" />
    <glyph glyph-name="Ograve" unicode="&#xd2;" horiz-adv-x="1646" 
d="M1481 983q5 -23 9 -47q6 -42 6 -88q0 -242 -179 -582q-67 -127 -292 -203q-190 -63 -389 -63q-219 0 -369 76q-188 96 -238 297q-12 47 -19 94q-10 69 -10 137q0 148 49 295q86 260 284 422q207 172 471 172q227 0 423.5 -141.5t253.5 -368.5zM466 305q97 -47 216 -47
q209 0 404 269q153 212 153 386q0 29 -4 56q-3 18 -8 35q-26 106 -155 170q-105 51 -222 51q-282 0 -441 -235q-112 -163 -112 -350q0 -48 8 -99q5 -34 14 -70q28 -109 147 -166zM720 1762q-8 18 -14 39q-2 10 -4 19q-2 13 -2 26q0 47 26 82q55 73 62 79q43 43 93 43
q22 0 46 -8q128 -45 153 -145q2 -8 3 -15q2 -10 2 -19t-2 -18q-5 -24 -11 -24q-1 0 -1 -2q0 -18 60 -229q-20 -1 -39 -1q-270 0 -372 173z" />
    <glyph glyph-name="Oacute" unicode="&#xd3;" horiz-adv-x="1646" 
d="M1481 983q5 -23 9 -47q6 -42 6 -88q0 -242 -179 -582q-67 -127 -292 -203q-190 -63 -389 -63q-219 0 -369 76q-188 96 -238 297q-12 47 -19 94q-10 69 -10 137q0 148 49 295q86 260 284 422q207 172 471 172q227 0 423.5 -141.5t253.5 -368.5zM466 305q97 -47 216 -47
q209 0 404 269q153 212 153 386q0 29 -4 56q-3 18 -8 35q-26 106 -155 170q-105 51 -222 51q-282 0 -441 -235q-112 -163 -112 -350q0 -48 8 -99q5 -34 14 -70q28 -109 147 -166zM739 1589q-19 0 -39 1q60 211 60 229q0 2 -1 2q-6 0 -11 24q-2 9 -2 18t2 19q1 7 3 15
q25 100 153 145q24 8 46 8q50 0 93 -43q7 -6 62 -79q26 -35 26 -82q0 -13 -2 -26q-2 -9 -4 -19q-6 -21 -14 -39q-102 -173 -372 -173z" />
    <glyph glyph-name="Ocircumflex" unicode="&#xd4;" horiz-adv-x="1646" 
d="M1481 983q5 -23 9 -47q6 -42 6 -88q0 -242 -179 -582q-67 -127 -292 -203q-190 -63 -389 -63q-219 0 -369 76q-188 96 -238 297q-12 47 -19 94q-10 69 -10 137q0 148 49 295q86 260 284 422q207 172 471 172q227 0 423.5 -141.5t253.5 -368.5zM466 305q97 -47 216 -47
q209 0 404 269q153 212 153 386q0 29 -4 56q-3 18 -8 35q-26 106 -155 170q-105 51 -222 51q-282 0 -441 -235q-112 -163 -112 -350q0 -48 8 -99q5 -34 14 -70q28 -109 147 -166zM1240 1953q98 -112 126 -225q5 -18 8 -39q-26 -59 -91.5 -105.5t-120.5 -46.5q-24 0 -44 11
l-3 16q-11 45 -58 121q-49 80 -61.5 86t-26.5 6q-94 0 -265 -217q-82 41 -139 111q-46 57 -59 112q-4 12 -6 23q286 340 379 340h3q10 -1 21 -1q17 0 36 2q31 3 37 3q52 0 138 -78q98 -88 126 -119z" />
    <glyph glyph-name="Otilde" unicode="&#xd5;" horiz-adv-x="1646" 
d="M1481 983q5 -23 9 -47q6 -42 6 -88q0 -242 -179 -582q-67 -127 -292 -203q-190 -63 -389 -63q-219 0 -369 76q-188 96 -238 297q-12 47 -19 94q-10 69 -10 137q0 148 49 295q86 260 284 422q207 172 471 172q227 0 423.5 -141.5t253.5 -368.5zM466 305q97 -47 216 -47
q209 0 404 269q153 212 153 386q0 29 -4 56q-3 18 -8 35q-26 106 -155 170q-105 51 -222 51q-282 0 -441 -235q-112 -163 -112 -350q0 -48 8 -99q5 -34 14 -70q28 -109 147 -166zM1017 1890q58 0 93 179q25 8 50 8q45 0 93.5 -32t95.5 -64q1 -10 1 -23q0 -41 -14 -113
q-31 -141 -105 -196q-68 -49 -129 -49q-64 0 -148.5 64.5t-117.5 64.5q-63 0 -125 -121q-82 41 -139 111q-45 57 -60 112q-2 12 -4 23q18 75 74 141.5t125 79.5q4 1 8 1q33 0 111 -45q88 -50 125.5 -95.5t65.5 -45.5z" />
    <glyph glyph-name="Odieresis" unicode="&#xd6;" horiz-adv-x="1646" 
d="M1481 983q5 -23 9 -47q6 -42 6 -88q0 -242 -179 -582q-67 -127 -292 -203q-190 -63 -389 -63q-219 0 -369 76q-188 96 -238 297q-12 47 -19 94q-10 69 -10 137q0 148 49 295q86 260 284 422q207 172 471 172q227 0 423.5 -141.5t253.5 -368.5zM466 305q97 -47 216 -47
q209 0 404 269q153 212 153 386q0 29 -4 56q-3 18 -8 35q-26 106 -155 170q-105 51 -222 51q-282 0 -441 -235q-112 -163 -112 -350q0 -48 8 -99q5 -34 14 -70q28 -109 147 -166zM1236 1979q119 -45 142 -139l1 -8q1 -9 1 -19q0 -23 -8 -51l-19 -40q-35 -51 -70 -81
q-54 -40 -107 -41q-38 0 -70 15q-80 46 -101 125q-2 10 -4 19q-2 13 -2 25q0 44 25 78l56 71l6 8q45 42 95 43q28 0 55 -5zM697 1979q119 -45 142 -139l1 -8q1 -9 1 -19q0 -23 -8 -51l-19 -40q-35 -51 -70 -81q-54 -40 -107 -41q-38 0 -69 15q-81 46 -102 125q-2 10 -4 19
q-2 13 -2 25q0 44 25 78l56 71l6 8q45 42 95 43q28 0 55 -5z" />
    <glyph glyph-name="multiply" unicode="&#xd7;" horiz-adv-x="1272" 
d="M513 964q3 -4 9 -4q41 0 191.5 148t170.5 148q4 0 29 2h43q145 0 164 -72l1 -9q1 -8 1 -17q0 -20 -6 -44q-29 -90 -313 -331q-82 -21 -82 -60v-7q23 -67 28 -75q8 -19 39 -56q62 -125 132 -170q12 -8 16 -25l1 -6q1 -5 1 -10q0 -42 -48 -102q-59 -74 -104 -74
q-10 0 -18 4q-58 35 -183 176q-22 50 -68 142q0 1 -1 1q-16 0 -54 -6q-227 -225 -256 -295q-6 -10 -23 -10q-38 0 -104 47t-77 90l-1 4q-1 6 -1 11q0 7 2 14q19 43 219 276q38 44 50 64q18 29 18 69q0 14 -2 28q-2 12 -5 26q-12 47 -35 74l-142 160q-5 35 -11 59l-1 3v5
q0 31 43 86q50 62 97 62q16 0 29 -8q90 -60 107 -127q71 -95 144 -191z" />
    <glyph glyph-name="Oslash" unicode="&#xd8;" 
d="M496 300q87 -35 190 -35q209 0 404 269q153 212 153 386q0 29 -4 56q-3 18 -8 35q-14 59 -60 105q-74 -92 -185 -218q-296 -336 -314 -377v1q-11 0 -170 -214zM320 493q13 19 28 40q248 346 254 357q50 35 247 282q25 31 47 58q-21 2 -42 2q-282 0 -441 -235
q-112 -163 -112 -350q0 -48 8 -99q4 -27 11 -55zM1300 1303q138 -128 185 -313q5 -23 9 -47q6 -42 6 -88q0 -242 -179 -582q-67 -127 -292 -203q-190 -63 -389 -63q-180 0 -314 51q-18 -31 -26 -51q-3 -10 -22 -10q-38 0 -104.5 47t-77.5 90l-1 4q-1 5 -1 9q0 9 3 16
q4 11 23 40q-62 75 -87 177q-12 47 -19 94q-10 69 -10 137q0 148 49 295q86 260 284 422q207 172 471 172q141 0 270 -55q35 16 98 16q119 0 137 -72l1 -8q1 -7 1 -14q0 -20 -8 -43q-2 -9 -7 -21z" />
    <glyph glyph-name="Ugrave" unicode="&#xd9;" horiz-adv-x="1615" 
d="M314 1519q53 0 116 -36q53 -35 60 -60v-5q0 -5 -3 -7q-32 -19 -121 -397q-68 -294 -68 -452q0 -42 5 -75q3 -15 6 -28q20 -82 128 -82q129 0 299 70q160 65 160 108v3l-1 4v6q0 64 122 437q126 387 167 463q14 23 51 23q57 0 139 -51.5t90 -83.5l1 -4v-2q0 -9 -10 -13
q-94 -35 -195 -579q-68 -375 -68 -555q0 -50 5 -85q2 -14 5 -26l2 -8q-67 -15 -131 -15q-147 0 -173 80q-9 27 -56 27q-105 0 -466 -166q-20 -10 -44 -10q-88 0 -191.5 101.5t-133.5 221.5q-4 15 -6 29q-2 9 -2 18q-1 6 -1 15q0 97 85 483q25 121 126 559q23 92 103 92z
M660 1762q-8 18 -14 39q-2 10 -4 19q-2 13 -2 26q0 47 26 82q55 73 62 79q43 43 93 43q22 0 46 -8q128 -45 153 -145q2 -8 3 -15q2 -10 2 -19t-2 -18q-5 -24 -11 -24q-1 0 -1 -2q0 -18 60 -229q-20 -1 -39 -1q-270 0 -372 173z" />
    <glyph glyph-name="Uacute" unicode="&#xda;" horiz-adv-x="1615" 
d="M314 1519q53 0 116 -36q53 -35 60 -60v-5q0 -5 -3 -7q-32 -19 -121 -397q-68 -294 -68 -452q0 -42 5 -75q3 -15 6 -28q20 -82 128 -82q129 0 299 70q160 65 160 108v3l-1 4v6q0 64 122 437q126 387 167 463q14 23 51 23q57 0 139 -51.5t90 -83.5l1 -4v-2q0 -9 -10 -13
q-94 -35 -195 -579q-68 -375 -68 -555q0 -50 5 -85q2 -14 5 -26l2 -8q-67 -15 -131 -15q-147 0 -173 80q-9 27 -56 27q-105 0 -466 -166q-20 -10 -44 -10q-88 0 -191.5 101.5t-133.5 221.5q-4 15 -6 29q-2 9 -2 18q-1 6 -1 15q0 97 85 483q25 121 126 559q23 92 103 92z
M749 1589q-19 0 -39 1q60 211 60 229q0 2 -1 2q-6 0 -11 24q-2 9 -2 18t2 19q1 7 3 15q25 100 153 145q24 8 46 8q50 0 93 -43q7 -6 62 -79q26 -35 26 -82q0 -13 -2 -26q-2 -9 -4 -19q-6 -21 -14 -39q-102 -173 -372 -173z" />
    <glyph glyph-name="Ucircumflex" unicode="&#xdb;" horiz-adv-x="1615" 
d="M314 1519q53 0 116 -36q53 -35 60 -60v-5q0 -5 -3 -7q-32 -19 -121 -397q-68 -294 -68 -452q0 -42 5 -75q3 -15 6 -28q20 -82 128 -82q129 0 299 70q160 65 160 108v3l-1 4v6q0 64 122 437q126 387 167 463q14 23 51 23q57 0 139 -51.5t90 -83.5l1 -4v-2q0 -9 -10 -13
q-94 -35 -195 -579q-68 -375 -68 -555q0 -50 5 -85q2 -14 5 -26l2 -8q-67 -15 -131 -15q-147 0 -173 80q-9 27 -56 27q-105 0 -466 -166q-20 -10 -44 -10q-88 0 -191.5 101.5t-133.5 221.5q-4 15 -6 29q-2 9 -2 18q-1 6 -1 15q0 97 85 483q25 121 126 559q23 92 103 92z
M1170 1953q98 -112 126 -225q5 -18 8 -39q-26 -59 -91.5 -105.5t-120.5 -46.5q-24 0 -44 11l-3 16q-11 45 -58 121q-49 80 -61.5 86t-26.5 6q-94 0 -265 -217q-82 41 -139 111q-46 57 -59 112q-4 12 -6 23q286 340 379 340h3q10 -1 21 -1q17 0 36 2q31 3 37 3q52 0 138 -78
q98 -88 126 -119z" />
    <glyph glyph-name="Udieresis" unicode="&#xdc;" horiz-adv-x="1615" 
d="M314 1519q53 0 116 -36q53 -35 60 -60v-5q0 -5 -3 -7q-32 -19 -121 -397q-68 -294 -68 -452q0 -42 5 -75q3 -15 6 -28q20 -82 128 -82q129 0 299 70q160 65 160 108v3l-1 4v6q0 64 122 437q126 387 167 463q14 23 51 23q57 0 139 -51.5t90 -83.5l1 -4v-2q0 -9 -10 -13
q-94 -35 -195 -579q-68 -375 -68 -555q0 -50 5 -85q2 -14 5 -26l2 -8q-67 -15 -131 -15q-147 0 -173 80q-9 27 -56 27q-105 0 -466 -166q-20 -10 -44 -10q-88 0 -191.5 101.5t-133.5 221.5q-4 15 -6 29q-2 9 -2 18q-1 6 -1 15q0 97 85 483q25 121 126 559q23 92 103 92z
M1196 1979q119 -45 142 -139l1 -8q1 -9 1 -19q0 -23 -8 -51l-19 -40q-35 -51 -70 -81q-54 -40 -107 -41q-38 0 -70 15q-80 46 -101 125q-2 10 -4 19q-2 13 -2 25q0 44 25 78l56 71l6 8q45 42 95 43q28 0 55 -5zM657 1979q119 -45 142 -139l1 -8q1 -9 1 -19q0 -23 -8 -51
l-19 -40q-35 -51 -70 -81q-54 -40 -107 -41q-38 0 -69 15q-81 46 -102 125q-2 10 -4 19q-2 13 -2 25q0 44 25 78l56 71l6 8q45 42 95 43q28 0 55 -5z" />
    <glyph glyph-name="Yacute" unicode="&#xdd;" horiz-adv-x="1376" 
d="M401 712q6 21 6 36q0 6 -1 11v3q-4 14 -14 16q-30 10 -188 199q-174 204 -199 301q-2 9 -3 17q-2 12 -2 23q0 44 29 79q40 40 91 40q47 0 60 -36q16 -50 189.5 -259.5t201.5 -209.5q2 0 4 2q45 147 242 409q155 207 252 207q75 0 139 -100q10 -15 14 -31q2 -5 3 -11
q1 -8 1 -16q0 -48 -38 -103q-50 -71 -138 -126q-135 -84 -381 -532q-218 -398 -295 -631q-7 -21 -27 -21q-43 0 -117.5 76t-85.5 121l-1 4v4q0 10 10 12q39 7 147 263q45 106 101 253zM549 1589q-19 0 -39 1q60 211 60 229q0 2 -1 2q-6 0 -11 24q-2 9 -2 18t2 19q1 7 3 15
q25 100 153 145q24 8 46 8q50 0 93 -43q7 -6 62 -79q26 -35 26 -82q0 -13 -2 -26q-2 -9 -4 -19q-6 -21 -14 -39q-102 -173 -372 -173z" />
    <glyph glyph-name="Thorn" unicode="&#xde;" horiz-adv-x="1450" 
d="M402 578q64 0 195 48t185 94q79 65 155 145q99 105 99 149v9q-1 4 -4 8q-35 51 -250 51q-229 0 -299 -84q-16 -22 -69 -199q-43 -151 -43 -196v-8l1 -7q5 -10 30 -10zM532 1326q39 8 109 8q180 0 337 -55q214 -76 304 -232q8 -14 13 -31q2 -6 3 -12q2 -10 2 -21
q0 -103 -137 -251q-152 -166 -385 -297q-248 -139 -449 -158q-5 -1 -48 -4q-19 -103 -19 -140q-27 -47 -57 -94q-24 -39 -70 -39q-10 0 -20 2q-81 12 -110 115q16 70 54.5 310.5t84.5 455.5q148 618 187 628q68 16 119 16q108 0 124 -66z" />
    <glyph glyph-name="germandbls" unicode="&#xdf;" horiz-adv-x="1477" 
d="M476 1110q-15 -94 -26 -109q-45 -186 -92 -372q-101 -410 -101 -494v-2q-27 -47 -57 -94q-24 -39 -70 -39q-10 0 -20 2q-81 12 -110 115q129 544 156.5 727.5t29.5 184.5q18 109 50 240q40 138 268 181q189 35 394 35q137 0 181 -17q135 -49 160 -143q2 -8 3 -17
q2 -13 2 -27q0 -139 -199 -329q74 -49 148 -166q84 -129 128 -284l2 -5q2 -6 3 -12q1 -10 1 -19q0 -144 -319 -292q-205 -94 -398 -140q-89 56 -98 112q-1 6 -1 11q0 63 102 125q40 9 81 25q50 23 99 47q62 29 121 94q62 69 62 126q0 7 -1 14l-2 10q-14 57 -100 92
q-36 14 -89 14q-74 0 -168 -25q-88 60 -97 120q-1 7 -1 13q0 68 101 135q79 18 141 46q168 78 168 215v6l-1 10q-12 44 -122 44q-126 0 -278 -54q-50 -40 -51 -104z" />
    <glyph glyph-name="agrave" unicode="&#xe0;" horiz-adv-x="1224" 
d="M187 0q-161 16 -184 105l-2 10q-1 7 -1 15q0 14 2 28q40 181 348 584q305 398 402 398h2q8 -1 15 -1q14 0 29 3q26 2 31 2q41 0 110 -62q27 -25 51 -124q20 -76 36 -177q22 -153 36 -365q12 -169 12 -256q0 -88 -12 -94q-27 -17 -83 -17q-69 0 -91 29q-7 12 -13 32
q-1 8 -3 19q-4 25 -4 57q0 20 2 44q-79 19 -167 19q-128 0 -253 -39q-108 -33 -160 -72zM477 439l297 19q63 39 63 57v3q-1 3 -11 93q-5 46 -10 77t-9 48q-5 22 -10 24q-20 9 -40 9q-77 0 -163 -120q-45 -66 -117 -210zM736 1410q-6 14 -11 31q-2 8 -3 15q-2 10 -2 21
q0 37 21 65q44 59 49 64q35 34 75 34q17 0 37 -6q102 -36 122 -116q2 -7 2 -12q2 -8 2 -16q0 -7 -2 -14q-4 -19 -8 -19q-1 0 -1 -2q0 -14 48 -183q-16 -1 -31 -1q-216 0 -298 139z" />
    <glyph glyph-name="aacute" unicode="&#xe1;" horiz-adv-x="1224" 
d="M187 0q-161 16 -184 105l-2 10q-1 7 -1 15q0 14 2 28q40 181 348 584q305 398 402 398h2q8 -1 15 -1q14 0 29 3q26 2 31 2q41 0 110 -62q27 -25 51 -124q20 -76 36 -177q22 -153 36 -365q12 -169 12 -256q0 -88 -12 -94q-27 -17 -83 -17q-69 0 -91 29q-7 12 -13 32
q-1 8 -3 19q-4 25 -4 57q0 20 2 44q-79 19 -167 19q-128 0 -253 -39q-108 -33 -160 -72zM477 439l297 19q63 39 63 57v3q-1 3 -11 93q-5 46 -10 77t-9 48q-5 22 -10 24q-20 9 -40 9q-77 0 -163 -120q-45 -66 -117 -210zM751 1271q-15 0 -31 1q48 169 48 183q0 2 -1 2
q-5 0 -9 19q-1 7 -1 14q0 8 1 16q1 5 3 12q20 80 122 116q19 6 37 6q40 0 74 -34q6 -5 50 -64q21 -28 21 -65q0 -11 -2 -21q-1 -7 -3 -15q-5 -17 -11 -31q-82 -139 -298 -139z" />
    <glyph glyph-name="acircumflex" unicode="&#xe2;" horiz-adv-x="1197" 
d="M187 0q-161 16 -184 105l-2 10q-1 7 -1 15q0 14 2 28q40 181 348 584q305 398 402 398h2q8 -1 15 -1q14 0 29 3q26 2 31 2q41 0 110 -62q27 -25 51 -124q20 -76 36 -177q22 -153 36 -365q12 -169 12 -256q0 -88 -12 -94q-27 -17 -83 -17q-69 0 -91 29q-7 12 -13 32
q-1 8 -3 19q-4 25 -4 57q0 20 2 44q-79 19 -167 19q-128 0 -253 -39q-108 -33 -160 -72zM477 439l297 19q63 39 63 57v3q-1 3 -11 93q-5 46 -10 77t-9 48q-5 22 -10 24q-20 9 -40 9q-77 0 -163 -120q-45 -66 -117 -210zM1072 1562q78 -89 101 -180q4 -14 6 -31
q-21 -47 -73 -84t-96 -37q-20 0 -36 8l-2 13q-9 36 -46 97q-40 64 -50 69t-21 5q-75 0 -212 -174q-65 33 -111 89q-37 45 -47 89q-3 10 -5 19q229 272 303 272h3q8 -1 16 -1q14 0 29 2q25 2 30 2q41 0 110 -62q79 -71 101 -96z" />
    <glyph glyph-name="atilde" unicode="&#xe3;" horiz-adv-x="1202" 
d="M187 0q-161 16 -184 105l-2 10q-1 7 -1 15q0 14 2 28q40 181 348 584q305 398 402 398h2q8 -1 15 -1q14 0 29 3q26 2 31 2q41 0 110 -62q27 -25 51 -124q20 -76 36 -177q22 -153 36 -365q12 -169 12 -256q0 -88 -12 -94q-27 -17 -83 -17q-69 0 -91 29q-7 12 -13 32
q-1 8 -3 19q-4 25 -4 57q0 20 2 44q-79 19 -167 19q-128 0 -253 -39q-108 -33 -160 -72zM477 439l297 19q63 39 63 57v3q-1 3 -11 93q-5 46 -10 77t-9 48q-5 22 -10 24q-20 9 -40 9q-77 0 -163 -120q-45 -66 -117 -210zM894 1512q46 0 74 143q20 7 40 7q36 0 75 -26t76 -51
q1 -8 1 -19q0 -32 -11 -90q-25 -113 -84 -157q-55 -39 -103 -39q-52 0 -119.5 51.5t-93.5 51.5q-51 0 -100 -97q-66 33 -111 89q-36 46 -48 90l-4 18q15 60 59.5 113.5t100.5 63.5q3 1 6 1q26 0 89 -36q70 -40 100 -76.5t53 -36.5z" />
    <glyph glyph-name="adieresis" unicode="&#xe4;" horiz-adv-x="1196" 
d="M187 0q-161 16 -184 105l-2 10q-1 7 -1 15q0 14 2 28q40 181 348 584q305 398 402 398h2q8 -1 15 -1q14 0 29 3q26 2 31 2q41 0 110 -62q27 -25 51 -124q20 -76 36 -177q22 -153 36 -365q12 -169 12 -256q0 -88 -12 -94q-27 -17 -83 -17q-69 0 -91 29q-7 12 -13 32
q-1 8 -3 19q-4 25 -4 57q0 20 2 44q-79 19 -167 19q-128 0 -253 -39q-108 -33 -160 -72zM477 439l297 19q63 39 63 57v3q-1 3 -11 93q-5 46 -10 77t-9 48q-5 22 -10 24q-20 9 -40 9q-77 0 -163 -120q-45 -66 -117 -210zM1069 1583q95 -36 113 -111l1 -6q1 -8 1 -16
q0 -18 -6 -40l-16 -32q-28 -41 -56 -65q-43 -32 -85 -33q-31 0 -56 12q-64 37 -81 100q-2 8 -3 15q-2 11 -2 20q0 35 20 63l45 56l5 7q36 33 76 34q22 0 44 -4zM638 1583q95 -36 113 -111l1 -6q1 -8 1 -16q0 -18 -7 -40l-15 -32q-28 -41 -56 -65q-43 -32 -85 -33
q-31 0 -56 12q-64 37 -81 100q-2 8 -3 15q-2 11 -2 20q0 35 20 63l45 56l5 7q36 33 76 34q22 0 44 -4z" />
    <glyph glyph-name="aring" unicode="&#xe5;" horiz-adv-x="1222" 
d="M187 0q-161 16 -184 105l-2 10q-1 7 -1 15q0 14 2 28q40 181 348 584q305 398 402 398h2q8 -1 15 -1q14 0 29 3q26 2 31 2q41 0 110 -62q27 -25 51 -124q20 -76 36 -177q22 -153 36 -365q12 -169 12 -256q0 -88 -12 -94q-27 -17 -83 -17q-69 0 -91 29q-7 12 -13 32
q-1 8 -3 19q-4 25 -4 57q0 20 2 44q-79 19 -167 19q-128 0 -253 -39q-108 -33 -160 -72zM477 439l297 19q63 39 63 57v3q-1 3 -11 93q-5 46 -10 77t-9 48q-5 22 -10 24q-20 9 -40 9q-77 0 -163 -120q-45 -66 -117 -210zM1076 1514l4 -20q2 -12 2 -23q0 -41 -23 -77
q-34 -45 -70 -92q-56 -74 -186 -74q-14 0 -30 1q-72 5 -144 56q-75 54 -93 130q-2 8 -3 15l-1 6q-3 24 -3 47q0 106 75 188q78 89 174 89q12 0 24 -2q97 -12 180 -93q76 -74 94 -151zM704 1502v-9q0 -9 1 -16l1 -7q10 -40 82 -40h4q78 0 78 50q0 6 -1 12t-3 10
q-13 55 -72 61q-9 1 -17 1q-67 0 -73 -62z" />
    <glyph glyph-name="ae" unicode="&#xe6;" horiz-adv-x="1868" 
d="M477 440l297 19q63 39 63 57v2q-1 4 -11 94q-5 46 -10 77t-9 48q-5 22 -10 24q-20 9 -40 9q-77 0 -163 -120q-45 -66 -117 -210zM817 241q-55 9 -114 9q-128 0 -253 -40q-108 -32 -160 -72l-103 -137q-161 16 -184 105q-1 4 -2 10q-1 7 -1 15q0 14 2 27q40 182 348 585
q305 398 402 398h2q8 -1 15 -1q14 0 29 2q26 3 31 3q41 0 110 -63q12 -11 24 -38q35 106 68 117q79 25 264 56q210 36 308 36q55 0 63 -14q34 -47 48 -101q2 -9 3 -17q1 -11 1 -19q0 -32 -19 -46q-22 -17 -267 -44q-235 -28 -236 -40.5t-16 -98.5l-14 -73l5 -6q0 2 141 28
q154 28 219 28q40 0 45.5 -10t49.5 -52.5t49 -64.5v-8q0 -17 -21 -26q-40 -18 -288 -95q-239 -74 -240 -76q-5 -6 -54 -255q362 172 482 172q23 0 34 -9q40 -28 76 -78t45 -86q1 -6 2 -11t1 -8q0 -13 -8 -19q-28 -23 -335 -126q-291 -98 -343 -98q-4 0 -7 1
q-192 50 -209 120l-1 4q-1 6 -1 13q2 44 9 103z" />
    <glyph glyph-name="ccedilla" unicode="&#xe7;" horiz-adv-x="1118" 
d="M477 14h-12q-55 0 -103 10q-122 26 -217 146q-87 109 -124 257q-9 36 -15 70q-6 41 -6 79q0 70 22 130q80 224 140 317q140 214 349 214q166 0 300 -78q125 -72 147 -158v-2q0 -58 -62 -105q-51 -40 -85 -40q-8 0 -14 2q-97 192 -251 192q-13 0 -27 -2q-85 -8 -189 -175
q-85 -139 -128 -283q-3 -19 -3 -38q0 -24 4 -49q3 -17 7 -33q24 -97 105 -175q56 -53 164 -53t181 50q58 40 58 91q0 7 -2 15q-1 6 -2 11q-2 8 -6 17l177 78q56 -59 77 -142l4 -22q2 -13 2 -26q0 -22 -6 -39q-40 -111 -193 -187q-30 -14 -60 -26q33 -46 45 -94l4 -20
q3 -21 3 -43q0 -33 -7 -65q-16 -61 -71 -92q-73 -66 -202 -66q-15 0 -31 1q-72 5 -144 56q-13 9 -16 32q-1 7 -1 16q0 8 1 17q4 50 41.5 70t78.5 20q20 -10 56 -10h4q77 0 77 50q0 6 -1 12q0 6 -2 10q-14 52 -67 60z" />
    <glyph glyph-name="egrave" unicode="&#xe8;" horiz-adv-x="1060" 
d="M0 138q10 168 72 532q82 469 151 491q79 25 264 56q210 36 308 36q55 0 63 -14q34 -47 48 -101q2 -9 3 -17q1 -11 1 -19q0 -32 -19 -46q-22 -17 -267 -44q-235 -28 -236 -40.5t-16 -98.5l-14 -73l5 -6q0 2 141 28q154 28 219 28q40 0 45.5 -10t49.5 -52.5t49 -64.5v-8
q0 -17 -21 -26q-40 -18 -288 -95q-239 -74 -240 -76q-5 -6 -54 -255q362 172 482 172q23 0 34 -9q40 -28 76 -78t45 -86q1 -6 2 -11t1 -8q0 -13 -8 -19q-28 -23 -335 -126q-291 -98 -343 -98q-4 0 -7 1q-192 50 -209 120l-1 4q-1 6 -1 13zM368 1410q-6 14 -11 31q-2 8 -3 15
q-2 10 -2 21q0 37 21 65q44 59 49 64q35 34 75 34q17 0 37 -6q102 -36 122 -116q2 -7 2 -12q2 -8 2 -16q0 -7 -2 -14q-4 -19 -8 -19q-1 0 -1 -2q0 -14 48 -183q-16 -1 -31 -1q-216 0 -298 139z" />
    <glyph glyph-name="eacute" unicode="&#xe9;" horiz-adv-x="1060" 
d="M0 138q10 168 72 532q82 469 151 491q79 25 264 56q210 36 308 36q55 0 63 -14q34 -47 48 -101q2 -9 3 -17q1 -11 1 -19q0 -32 -19 -46q-22 -17 -267 -44q-235 -28 -236 -40.5t-16 -98.5l-14 -73l5 -6q0 2 141 28q154 28 219 28q40 0 45.5 -10t49.5 -52.5t49 -64.5v-8
q0 -17 -21 -26q-40 -18 -288 -95q-239 -74 -240 -76q-5 -6 -54 -255q362 172 482 172q23 0 34 -9q40 -28 76 -78t45 -86q1 -6 2 -11t1 -8q0 -13 -8 -19q-28 -23 -335 -126q-291 -98 -343 -98q-4 0 -7 1q-192 50 -209 120l-1 4q-1 6 -1 13zM439 1271q-15 0 -31 1
q48 169 48 183q0 2 -1 2q-5 0 -9 19q-1 7 -1 14q0 8 1 16q1 5 3 12q20 80 122 116q19 6 37 6q40 0 74 -34q6 -5 50 -64q21 -28 21 -65q0 -11 -2 -21q-1 -7 -3 -15q-5 -17 -11 -31q-82 -139 -298 -139z" />
    <glyph glyph-name="ecircumflex" unicode="&#xea;" horiz-adv-x="1060" 
d="M788 1253h7q55 0 63 -14q34 -47 48 -101q2 -9 3 -17q1 -11 1 -19q0 -32 -19 -46q-22 -17 -267 -44q-235 -28 -236 -40.5t-16 -98.5l-14 -73l5 -6q0 2 141 28q154 28 219 28q40 0 45.5 -10t49.5 -52.5t49 -64.5v-8q0 -17 -21 -26q-40 -18 -288 -95q-239 -74 -240 -76
q-5 -6 -54 -255q362 172 482 172q23 0 34 -9q40 -28 76 -78t45 -86q1 -6 2 -11t1 -8q0 -13 -8 -19q-28 -23 -335 -126q-291 -98 -343 -98q-4 0 -7 1q-192 50 -209 120l-1 4q-1 6 -1 13q10 168 72 532q82 469 151 491q79 25 264 56q111 19 190 28l-1 6q-9 36 -46 97
q-40 64 -50 69t-21 5q-75 0 -212 -174q-65 33 -111 89q-37 45 -47 89q-3 10 -5 19q229 272 303 272h3q8 -1 16 -1q14 0 29 2q25 2 30 2q41 0 110 -62q79 -71 101 -96q78 -89 101 -180q4 -14 6 -31q-21 -47 -73 -84q-11 -8 -22 -14z" />
    <glyph glyph-name="edieresis" unicode="&#xeb;" horiz-adv-x="1044" 
d="M0 138q10 168 72 532q82 469 151 491q79 25 264 56q210 36 308 36q55 0 63 -14q34 -47 48 -101q2 -9 3 -17q1 -11 1 -19q0 -32 -19 -46q-22 -17 -267 -44q-235 -28 -236 -40.5t-16 -98.5l-14 -73l5 -6q0 2 141 28q154 28 219 28q40 0 45.5 -10t49.5 -52.5t49 -64.5v-8
q0 -17 -21 -26q-40 -18 -288 -95q-239 -74 -240 -76q-5 -6 -54 -255q362 172 482 172q23 0 34 -9q40 -28 76 -78t45 -86q1 -6 2 -11t1 -8q0 -13 -8 -19q-28 -23 -335 -126q-291 -98 -343 -98q-4 0 -7 1q-192 50 -209 120l-1 4q-1 6 -1 13zM861 1583q95 -36 113 -111l1 -6
q1 -8 1 -16q0 -18 -6 -40l-16 -32q-28 -41 -56 -65q-43 -32 -85 -33q-31 0 -56 12q-64 37 -81 100q-2 8 -3 15q-2 11 -2 20q0 35 20 63l45 56l5 7q36 33 76 34q22 0 44 -4zM430 1583q95 -36 113 -111l1 -6q1 -8 1 -16q0 -18 -7 -40l-15 -32q-28 -41 -56 -65q-43 -32 -85 -33
q-31 0 -56 12q-64 37 -81 100q-2 8 -3 15q-2 11 -2 20q0 35 20 63l45 56l5 7q36 33 76 34q22 0 44 -4z" />
    <glyph glyph-name="igrave" unicode="&#xec;" horiz-adv-x="1010" 
d="M186 1180q92 4 238 4t345 -4q52 -53 81 -148q4 -18 8 -33q1 -13 2 -25v-5q0 -25 -13 -32q-55 -27 -190 -27q-21 0 -44 1q-146 -566 -146 -644v-8l1 -1q0 -2 1 -3q6 -3 25 -3q52 0 185 23l2 -8q8 -36 9 -66v-29q-9 -105 -96 -113q-128 -12 -592 -59l-1 12q-1 20 -1 38
q0 36 3 66q8 117 53 120h82q51 0 71.5 22t78 270.5t74.5 389.5v1q-3 11 -65 11q-89 0 -261 -19q12 79 27 157q31 108 123 112zM408 1410q-6 14 -11 31q-2 8 -3 15q-2 10 -2 21q0 37 21 65q44 59 49 64q35 34 75 34q17 0 37 -6q102 -36 122 -116q2 -7 2 -12q2 -8 2 -16
q0 -7 -2 -14q-4 -19 -8 -19q-1 0 -1 -2q0 -14 48 -183q-16 -1 -31 -1q-216 0 -298 139z" />
    <glyph glyph-name="iacute" unicode="&#xed;" horiz-adv-x="1010" 
d="M186 1180q92 4 238 4t345 -4q52 -53 81 -148q4 -18 8 -33q1 -13 2 -25v-5q0 -25 -13 -32q-55 -27 -190 -27q-21 0 -44 1q-146 -566 -146 -644v-8l1 -1q0 -2 1 -3q6 -3 25 -3q52 0 185 23l2 -8q8 -36 9 -66v-29q-9 -105 -96 -113q-128 -12 -592 -59l-1 12q-1 20 -1 38
q0 36 3 66q8 117 53 120h82q51 0 71.5 22t78 270.5t74.5 389.5v1q-3 11 -65 11q-89 0 -261 -19q12 79 27 157q31 108 123 112zM423 1271q-15 0 -31 1q48 169 48 183q0 2 -1 2q-5 0 -9 19q-1 7 -1 14q0 8 1 16q1 5 3 12q20 80 122 116q19 6 37 6q40 0 74 -34q6 -5 50 -64
q21 -28 21 -65q0 -11 -2 -21q-1 -7 -3 -15q-5 -17 -11 -31q-82 -139 -298 -139z" />
    <glyph glyph-name="icircumflex" unicode="&#xee;" horiz-adv-x="1004" 
d="M186 1180q92 4 238 4t345 -4q52 -53 81 -148q4 -18 8 -33q1 -13 2 -25v-5q0 -25 -13 -32q-55 -27 -190 -27q-21 0 -44 1q-146 -566 -146 -644v-8l1 -1q0 -2 1 -3q6 -3 25 -3q52 0 185 23l2 -8q8 -36 9 -66v-29q-9 -105 -96 -113q-128 -12 -592 -59l-1 12q-1 20 -1 38
q0 36 3 66q8 117 53 120h82q51 0 71.5 22t78 270.5t74.5 389.5v1q-3 11 -65 11q-89 0 -261 -19q12 79 27 157q31 108 123 112zM776 1562q78 -89 101 -180q4 -14 6 -31q-21 -47 -73 -84t-96 -37q-20 0 -36 8l-2 13q-9 36 -46 97q-40 64 -50 69t-21 5q-75 0 -212 -174
q-65 33 -111 89q-37 45 -47 89q-3 10 -5 19q229 272 303 272h3q8 -1 16 -1q14 0 29 2q25 2 30 2q41 0 110 -62q79 -71 101 -96z" />
    <glyph glyph-name="idieresis" unicode="&#xef;" horiz-adv-x="997" 
d="M186 1180q92 4 238 4t345 -4q52 -53 81 -148q4 -18 8 -33q1 -13 2 -25v-5q0 -25 -13 -32q-55 -27 -190 -27q-21 0 -44 1q-146 -566 -146 -644v-8l1 -1q0 -2 1 -3q6 -3 25 -3q52 0 185 23l2 -8q8 -36 9 -66v-29q-9 -105 -96 -113q-128 -12 -592 -59l-1 12q-1 20 -1 38
q0 36 3 66q8 117 53 120h82q51 0 71.5 22t78 270.5t74.5 389.5v1q-3 11 -65 11q-89 0 -261 -19q12 79 27 157q31 108 123 112zM797 1583q95 -36 113 -111l1 -6q1 -8 1 -16q0 -18 -6 -40l-16 -32q-28 -41 -56 -65q-43 -32 -85 -33q-31 0 -56 12q-64 37 -81 100q-2 8 -3 15
q-2 11 -2 20q0 35 20 63l45 56l5 7q36 33 76 34q22 0 44 -4zM366 1583q95 -36 113 -111l1 -6q1 -8 1 -16q0 -18 -7 -40l-15 -32q-28 -41 -56 -65q-43 -32 -85 -33q-31 0 -56 12q-64 37 -81 100q-2 8 -3 15q-2 11 -2 20q0 35 20 63l45 56l5 7q36 33 76 34q22 0 44 -4z" />
    <glyph glyph-name="eth" unicode="&#xf0;" horiz-adv-x="1385" 
d="M434 650q-20 -125 -49 -319l2 -13q9 -36 68 -36q18 0 40 4q55 9 262 183q113 95 195 213q68 100 68 146q0 4 -1 7l-1 7q-32 91 -116 127q-48 19 -97 19q-14 0 -27 -2q-166 -16 -176 -19q-84 -21 -122 -98q-2 -7 -7 -23q107 8 170 8q69 0 75 -10t49 -52.5t49 -63.5v-8
q0 -17 -22 -26q-48 -24 -327 -42q-17 -1 -33 -2zM206 820q34 219 41 219q26 66 206 111q126 34 174 34q6 0 11 -1q260 -26 393 -85q163 -73 195 -203q4 -12 6 -25q3 -20 3 -42q0 -25 -4 -51q-37 -254 -295 -524q-77 -81 -206 -136q-122 -51 -356 -107q-45 -10 -83 -10
q-136 0 -168 130q-4 14 -5 28q-4 17 -4 35q0 6 1 13q37 256 63 433q-27 0 -42 2q0 -3 -2 -3q-9 0 -61 48q-64 56 -72 89l-1 4v5q0 6 3 10q6 5 203 26z" />
    <glyph glyph-name="ntilde" unicode="&#xf1;" horiz-adv-x="1296" 
d="M239 1123q15 2 45.5 20.5t48.5 18.5q20 0 39 -19q60 -54 182 -297q110 -214 195 -424q3 -6 5 -6q18 0 85 385t91 388q15 2 31 2q39 0 90 -13q85 -22 95 -61v-4q0 -50 -120 -514q-112 -431 -112 -489v-9q4 -3 4 -7v-4q0 -10 -16 -21q-19 -14 -50 -14q-82 0 -147 99
q-15 23 -172 322q-121 228 -155 228h-1q-35 -3 -48 -41q-8 -25 -14 -51q-7 -18 -47 -293q-34 -241 -34 -292v-13q0 -14 -40 -14q-59 0 -112 30q-64 38 -80 104l-2 7q39 245 78 489q90 484 161 493zM814 1512q46 0 74 143q20 7 40 7q36 0 75 -26t76 -51q1 -8 1 -19
q0 -32 -11 -90q-25 -113 -84 -157q-55 -39 -103 -39q-52 0 -119.5 51.5t-93.5 51.5q-51 0 -100 -97q-66 33 -111 89q-36 46 -48 90l-4 18q15 60 59.5 113.5t100.5 63.5q3 1 6 1q26 0 89 -36q70 -40 100 -76.5t53 -36.5z" />
    <glyph glyph-name="ograve" unicode="&#xf2;" horiz-adv-x="1347" 
d="M1185 786q4 -18 7 -37q5 -34 5 -71q0 -193 -143 -465q-54 -102 -234 -163q-152 -50 -311 -50q-175 0 -295 61q-151 77 -191 237q-9 38 -15 76q-8 55 -8 109q0 119 39 236q69 208 227 338q166 137 377 137q182 0 339 -113t203 -295zM373 244q77 -38 173 -38q167 0 323 216
q122 169 122 308q0 24 -3 45q-2 15 -6 28q-21 85 -124 136q-84 41 -178 41q-226 0 -353 -188q-89 -130 -89 -280q0 -38 6 -79q4 -27 11 -56q23 -87 118 -133zM576 1410q-6 14 -11 31q-2 8 -3 15q-2 10 -2 21q0 37 21 65q44 59 49 64q35 34 75 34q17 0 37 -6
q102 -36 122 -116q2 -7 2 -12q2 -8 2 -16q0 -7 -2 -14q-4 -19 -8 -19q-1 0 -1 -2q0 -14 48 -183q-16 -1 -31 -1q-216 0 -298 139z" />
    <glyph glyph-name="oacute" unicode="&#xf3;" horiz-adv-x="1347" 
d="M1185 786q4 -18 7 -37q5 -34 5 -71q0 -193 -143 -465q-54 -102 -234 -163q-152 -50 -311 -50q-175 0 -295 61q-151 77 -191 237q-9 38 -15 76q-8 55 -8 109q0 119 39 236q69 208 227 338q166 137 377 137q182 0 339 -113t203 -295zM373 244q77 -38 173 -38q167 0 323 216
q122 169 122 308q0 24 -3 45q-2 15 -6 28q-21 85 -124 136q-84 41 -178 41q-226 0 -353 -188q-89 -130 -89 -280q0 -38 6 -79q4 -27 11 -56q23 -87 118 -133zM591 1271q-15 0 -31 1q48 169 48 183q0 2 -1 2q-5 0 -9 19q-1 7 -1 14q0 8 1 16q1 5 3 12q20 80 122 116
q19 6 37 6q40 0 74 -34q6 -5 50 -64q21 -28 21 -65q0 -11 -2 -21q-1 -7 -3 -15q-5 -17 -11 -31q-82 -139 -298 -139z" />
    <glyph glyph-name="ocircumflex" unicode="&#xf4;" horiz-adv-x="1347" 
d="M1185 786q4 -18 7 -37q5 -34 5 -71q0 -193 -143 -465q-54 -102 -234 -163q-152 -50 -311 -50q-175 0 -295 61q-151 77 -191 237q-9 38 -15 76q-8 55 -8 109q0 119 39 236q69 208 227 338q166 137 377 137q182 0 339 -113t203 -295zM373 244q77 -38 173 -38q167 0 323 216
q122 169 122 308q0 24 -3 45q-2 15 -6 28q-21 85 -124 136q-84 41 -178 41q-226 0 -353 -188q-89 -130 -89 -280q0 -38 6 -79q4 -27 11 -56q23 -87 118 -133zM992 1562q78 -89 101 -180q4 -14 6 -31q-21 -47 -73 -84t-96 -37q-20 0 -36 8l-2 13q-9 36 -46 97q-40 64 -50 69
t-21 5q-75 0 -212 -174q-65 33 -111 89q-37 45 -47 89q-3 10 -5 19q229 272 303 272h3q8 -1 16 -1q14 0 29 2q25 2 30 2q41 0 110 -62q79 -71 101 -96z" />
    <glyph glyph-name="otilde" unicode="&#xf5;" horiz-adv-x="1347" 
d="M1185 786q4 -18 7 -37q5 -34 5 -71q0 -193 -143 -465q-54 -102 -234 -163q-152 -50 -311 -50q-175 0 -295 61q-151 77 -191 237q-9 38 -15 76q-8 55 -8 109q0 119 39 236q69 208 227 338q166 137 377 137q182 0 339 -113t203 -295zM373 244q77 -38 173 -38q167 0 323 216
q122 169 122 308q0 24 -3 45q-2 15 -6 28q-21 85 -124 136q-84 41 -178 41q-226 0 -353 -188q-89 -130 -89 -280q0 -38 6 -79q4 -27 11 -56q23 -87 118 -133zM814 1512q46 0 74 143q20 7 40 7q36 0 75 -26t76 -51q1 -8 1 -19q0 -32 -11 -90q-25 -113 -84 -157
q-55 -39 -103 -39q-52 0 -119.5 51.5t-93.5 51.5q-51 0 -100 -97q-66 33 -111 89q-36 46 -48 90l-4 18q15 60 59.5 113.5t100.5 63.5q3 1 6 1q26 0 89 -36q70 -40 100 -76.5t53 -36.5z" />
    <glyph glyph-name="odieresis" unicode="&#xf6;" horiz-adv-x="1347" 
d="M1185 786q4 -18 7 -37q5 -34 5 -71q0 -193 -143 -465q-54 -102 -234 -163q-152 -50 -311 -50q-175 0 -295 61q-151 77 -191 237q-9 38 -15 76q-8 55 -8 109q0 119 39 236q69 208 227 338q166 137 377 137q182 0 339 -113t203 -295zM373 244q77 -38 173 -38q167 0 323 216
q122 169 122 308q0 24 -3 45q-2 15 -6 28q-21 85 -124 136q-84 41 -178 41q-226 0 -353 -188q-89 -130 -89 -280q0 -38 6 -79q4 -27 11 -56q23 -87 118 -133zM989 1583q95 -36 113 -111l1 -6q1 -8 1 -16q0 -18 -6 -40l-16 -32q-28 -41 -56 -65q-43 -32 -85 -33q-31 0 -56 12
q-64 37 -81 100q-2 8 -3 15q-2 11 -2 20q0 35 20 63l45 56l5 7q36 33 76 34q22 0 44 -4zM558 1583q95 -36 113 -111l1 -6q1 -8 1 -16q0 -18 -7 -40l-15 -32q-28 -41 -56 -65q-43 -32 -85 -33q-31 0 -56 12q-64 37 -81 100q-2 8 -3 15q-2 11 -2 20q0 35 20 63l45 56l5 7
q36 33 76 34q22 0 44 -4z" />
    <glyph glyph-name="divide" unicode="&#xf7;" horiz-adv-x="1170" 
d="M321 910q337 35 482 35q86 0 94 -12t62.5 -65.5t60.5 -80.5v-10q0 -21 -26 -33q-62 -28 -409 -51q-242 -16 -352 -16q-41 0 -63 2q-1 -3 -3 -3q-12 0 -76 59q-80 71 -90 112l-1 3v7q0 9 4 14q7 7 317 39zM590 579q119 -45 142 -139l1 -8q1 -9 1 -19q0 -23 -8 -51l-19 -40
q-35 -51 -70 -81q-54 -40 -107 -41q-38 0 -70 15q-80 46 -101 125q-3 10 -4 19q-2 13 -2 25q0 44 25 78l56 71l6 8q44 42 95 43q28 0 55 -5zM506 1398q119 -45 142 -139l1 -8q1 -9 1 -19q0 -23 -8 -51l-19 -40q-35 -51 -70 -81q-54 -40 -107 -41q-38 0 -69 15
q-81 46 -102 125q-2 10 -4 19q-2 13 -2 25q0 44 25 78l56 71l6 8q45 42 95 43q28 0 55 -5z" />
    <glyph glyph-name="oslash" unicode="&#xf8;" horiz-adv-x="1351" 
d="M398 240q69 -28 152 -28q167 0 323 215q122 170 122 309q0 23 -3 45q-2 14 -6 28q-11 47 -48 84q-59 -74 -148 -175q-237 -268 -251 -301v1q-9 0 -136 -172q-3 -3 -5 -6zM257 394q10 16 22 32q199 277 204 286q40 28 197 226q20 24 38 46q-17 2 -34 2q-225 0 -353 -188
q-89 -131 -89 -280q0 -39 6 -80q3 -21 9 -44zM1041 1042q110 -102 148 -250q4 -18 7 -38q5 -33 5 -70q0 -194 -143 -466q-54 -101 -234 -162q-152 -50 -311 -50q-144 0 -251 40q-15 -24 -21 -40q-2 -8 -18 -8q-30 0 -83 37.5t-62 71.5l-1 3q-1 4 -1 8q0 7 3 12q3 9 18 32
q-50 60 -70 142q-9 38 -15 75q-8 55 -8 110q0 118 39 236q69 208 228 337q165 138 376 138q113 0 216 -44q28 13 79 13q95 0 109 -58l1 -6q1 -6 1 -11q0 -16 -6 -35q-2 -7 -6 -17z" />
    <glyph glyph-name="ugrave" unicode="&#xf9;" horiz-adv-x="1322" 
d="M251 1215q43 0 93 -29q42 -28 48 -48v-4q0 -4 -2 -5q-26 -15 -97 -318q-55 -235 -55 -361q0 -34 4 -60q3 -12 5 -23q16 -65 103 -65q103 0 239 56q128 52 128 86v2l-1 4v4q0 52 98 350q100 310 133 370q11 19 41 19q46 0 111.5 -41.5t71.5 -66.5l1 -3v-2q0 -7 -8 -10
q-75 -28 -156 -464q-54 -300 -54 -444q0 -40 4 -68q1 -11 4 -20l1 -7q-53 -12 -105 -12q-117 0 -138 64q-7 22 -45 22q-84 0 -373 -133q-16 -8 -35 -8q-70 0 -153 81t-107 177q-3 12 -5 24q-1 7 -1 14q-1 5 -1 12q0 78 68 386q20 97 101 448q18 73 82 73zM528 1410
q-6 14 -11 31q-2 8 -3 15q-2 10 -2 21q0 37 21 65q44 59 49 64q35 34 75 34q17 0 37 -6q102 -36 122 -116q2 -7 2 -12q2 -8 2 -16q0 -7 -2 -14q-4 -19 -8 -19q-1 0 -1 -2q0 -14 48 -183q-16 -1 -31 -1q-216 0 -298 139z" />
    <glyph glyph-name="uacute" unicode="&#xfa;" horiz-adv-x="1322" 
d="M251 1215q43 0 93 -29q42 -28 48 -48v-4q0 -4 -2 -5q-26 -15 -97 -318q-55 -235 -55 -361q0 -34 4 -60q3 -12 5 -23q16 -65 103 -65q103 0 239 56q128 52 128 86v2l-1 4v4q0 52 98 350q100 310 133 370q11 19 41 19q46 0 111.5 -41.5t71.5 -66.5l1 -3v-2q0 -7 -8 -10
q-75 -28 -156 -464q-54 -300 -54 -444q0 -40 4 -68q1 -11 4 -20l1 -7q-53 -12 -105 -12q-117 0 -138 64q-7 22 -45 22q-84 0 -373 -133q-16 -8 -35 -8q-70 0 -153 81t-107 177q-3 12 -5 24q-1 7 -1 14q-1 5 -1 12q0 78 68 386q20 97 101 448q18 73 82 73zM599 1271
q-15 0 -31 1q48 169 48 183q0 2 -1 2q-5 0 -9 19q-1 7 -1 14q0 8 1 16q1 5 3 12q20 80 122 116q19 6 37 6q40 0 74 -34q6 -5 50 -64q21 -28 21 -65q0 -11 -2 -21q-1 -7 -3 -15q-5 -17 -11 -31q-82 -139 -298 -139z" />
    <glyph glyph-name="ucircumflex" unicode="&#xfb;" horiz-adv-x="1322" 
d="M251 1215q43 0 93 -29q42 -28 48 -48v-4q0 -4 -2 -5q-26 -15 -97 -318q-55 -235 -55 -361q0 -34 4 -60q3 -12 5 -23q16 -65 103 -65q103 0 239 56q128 52 128 86v2l-1 4v4q0 52 98 350q100 310 133 370q11 19 41 19q46 0 111.5 -41.5t71.5 -66.5l1 -3v-2q0 -7 -8 -10
q-75 -28 -156 -464q-54 -300 -54 -444q0 -40 4 -68q1 -11 4 -20l1 -7q-53 -12 -105 -12q-117 0 -138 64q-7 22 -45 22q-84 0 -373 -133q-16 -8 -35 -8q-70 0 -153 81t-107 177q-3 12 -5 24q-1 7 -1 14q-1 5 -1 12q0 78 68 386q20 97 101 448q18 73 82 73zM936 1562
q78 -89 101 -180q4 -14 6 -31q-21 -47 -73 -84t-96 -37q-20 0 -36 8l-2 13q-9 36 -46 97q-40 64 -50 69t-21 5q-75 0 -212 -174q-65 33 -111 89q-37 45 -47 89q-3 10 -5 19q229 272 303 272h3q8 -1 16 -1q14 0 29 2q25 2 30 2q41 0 110 -62q79 -71 101 -96z" />
    <glyph glyph-name="udieresis" unicode="&#xfc;" horiz-adv-x="1322" 
d="M251 1215q43 0 93 -29q42 -28 48 -48v-4q0 -4 -2 -5q-26 -15 -97 -318q-55 -235 -55 -361q0 -34 4 -60q3 -12 5 -23q16 -65 103 -65q103 0 239 56q128 52 128 86v2l-1 4v4q0 52 98 350q100 310 133 370q11 19 41 19q46 0 111.5 -41.5t71.5 -66.5l1 -3v-2q0 -7 -8 -10
q-75 -28 -156 -464q-54 -300 -54 -444q0 -40 4 -68q1 -11 4 -20l1 -7q-53 -12 -105 -12q-117 0 -138 64q-7 22 -45 22q-84 0 -373 -133q-16 -8 -35 -8q-70 0 -153 81t-107 177q-3 12 -5 24q-1 7 -1 14q-1 5 -1 12q0 78 68 386q20 97 101 448q18 73 82 73zM957 1583
q95 -36 113 -111l1 -6q1 -8 1 -16q0 -18 -6 -40l-16 -32q-28 -41 -56 -65q-43 -32 -85 -33q-31 0 -56 12q-64 37 -81 100q-2 8 -3 15q-2 11 -2 20q0 35 20 63l45 56l5 7q36 33 76 34q22 0 44 -4zM526 1583q95 -36 113 -111l1 -6q1 -8 1 -16q0 -18 -7 -40l-15 -32
q-28 -41 -56 -65q-43 -32 -85 -33q-31 0 -56 12q-64 37 -81 100q-2 8 -3 15q-2 11 -2 20q0 35 20 63l45 56l5 7q36 33 76 34q22 0 44 -4z" />
    <glyph glyph-name="yacute" unicode="&#xfd;" horiz-adv-x="1131" 
d="M321 570q5 16 5 28q0 5 -1 9v3q-3 11 -11 12q-24 8 -151 160q-139 163 -159 240q-2 8 -2 14q-2 10 -2 18q0 36 23 64q32 32 73 32q38 0 48 -29q13 -40 151.5 -207.5t161.5 -167.5q1 0 3 1q36 118 194 327q124 166 201 166q60 0 111 -80q8 -12 12 -25q1 -4 2 -9
q1 -6 1 -12q0 -39 -31 -83q-40 -57 -110 -101q-108 -67 -305 -425q-174 -319 -236 -505q-5 -17 -21 -17q-35 0 -94.5 61t-68.5 97l-1 3v3q0 8 8 10q32 5 118 210q36 85 81 203zM439 1271q-15 0 -31 1q48 169 48 183q0 2 -1 2q-5 0 -9 19q-1 7 -1 14q0 8 1 16q1 5 3 12
q20 80 122 116q19 6 37 6q40 0 74 -34q6 -5 50 -64q21 -28 21 -65q0 -11 -2 -21q-1 -7 -3 -15q-5 -17 -11 -31q-82 -139 -298 -139z" />
    <glyph glyph-name="thorn" unicode="&#xfe;" horiz-adv-x="1191" 
d="M323 462q51 0 155.5 38.5t148.5 75.5q63 52 124 116q79 84 79 119v7q-1 4 -3 7q-28 41 -200 41q-184 0 -240 -68q-12 -17 -55 -159q-34 -121 -34 -157v-6l1 -6q4 -8 24 -8zM427 1061q31 6 87 6q144 0 269 -44q172 -61 244 -185q6 -12 10 -25q2 -5 2 -10q2 -8 2 -17
q0 -82 -110 -200q-121 -133 -308 -238q-198 -111 -359 -126q-4 -1 -38 -4q-15 -82 -15 -112q-22 -37 -46 -75q-19 -31 -56 -31q-8 0 -16 2q-65 9 -88 92q13 56 43.5 248t67.5 364q119 495 150 503q54 13 95 13q86 0 99 -53z" />
    <glyph glyph-name="ydieresis" unicode="&#xff;" horiz-adv-x="1131" 
d="M321 570q5 16 5 28q0 5 -1 9v3q-3 11 -11 12q-24 8 -151 160q-139 163 -159 240q-2 8 -2 14q-2 10 -2 18q0 36 23 64q32 32 73 32q38 0 48 -29q13 -40 151.5 -207.5t161.5 -167.5q1 0 3 1q36 118 194 327q124 166 201 166q60 0 111 -80q8 -12 12 -25q1 -4 2 -9
q1 -6 1 -12q0 -39 -31 -83q-40 -57 -110 -101q-108 -67 -305 -425q-174 -319 -236 -505q-5 -17 -21 -17q-35 0 -94.5 61t-68.5 97l-1 3v3q0 8 8 10q32 5 118 210q36 85 81 203zM749 1583q95 -36 113 -111l1 -6q1 -8 1 -16q0 -18 -6 -40l-16 -32q-28 -41 -56 -65
q-43 -32 -85 -33q-31 0 -56 12q-64 37 -81 100q-2 8 -3 15q-2 11 -2 20q0 35 20 63l45 56l5 7q36 33 76 34q22 0 44 -4zM318 1583q95 -36 113 -111l1 -6q1 -8 1 -16q0 -18 -7 -40l-15 -32q-28 -41 -56 -65q-43 -32 -85 -33q-31 0 -56 12q-64 37 -81 100q-2 8 -3 15
q-2 11 -2 20q0 35 20 63l45 56l5 7q36 33 76 34q22 0 44 -4z" />
    <glyph glyph-name="dotlessi" unicode="&#x131;" horiz-adv-x="1010" 
d="M186 1180q92 4 238 4t345 -4q52 -53 81 -148q4 -18 8 -33q1 -13 2 -25v-5q0 -25 -13 -32q-55 -27 -190 -27q-21 0 -44 1q-146 -566 -146 -644v-8l1 -1q0 -2 1 -3q6 -3 25 -3q52 0 185 23l2 -8q8 -36 9 -66v-29q-9 -105 -96 -113q-128 -12 -592 -59l-1 12q-1 20 -1 38
q0 36 3 66q8 117 53 120h82q51 0 71.5 22t78 270.5t74.5 389.5v1q-3 11 -65 11q-89 0 -261 -19q12 79 27 157q31 108 123 112z" />
    <glyph glyph-name="circumflex" unicode="&#x2c6;" horiz-adv-x="1024" 
d="M740 1953q98 -112 126 -225q5 -18 8 -39q-26 -59 -91.5 -105.5t-120.5 -46.5q-24 0 -44 11l-3 16q-11 45 -58 121q-49 80 -61.5 86t-26.5 6q-94 0 -265 -217q-82 41 -139 111q-46 57 -59 112q-4 12 -6 23q286 340 379 340h3q10 -1 21 -1q17 0 36 2q31 3 37 3
q52 0 138 -78q98 -88 126 -119z" />
    <glyph glyph-name="caron" unicode="&#x2c7;" horiz-adv-x="1024" 
d="M134 1734q-98 112 -126 225q-5 18 -8 39q26 59 91.5 105.5t120.5 46.5q24 0 44 -11l3 -16q11 -45 58 -121q49 -80 61.5 -86t26.5 -6q94 0 265 217q82 -41 139 -111q46 -57 59 -112q4 -12 6 -23q-286 -340 -379 -340h-3q-10 1 -21 1q-17 0 -36 -2q-31 -3 -37 -3
q-52 0 -138 78q-98 88 -126 119z" />
    <glyph glyph-name="uni02C9" unicode="&#x2c9;" horiz-adv-x="529" 
d="M-166 1195l-32 125h516l32 -125h-516z" />
    <glyph glyph-name="breve" unicode="&#x2d8;" horiz-adv-x="584" 
d="M-202 1349h51q35 -73 101.5 -107t175.5 -34t158 34q47 32 47 101v6h51q2 -25 2 -47q0 -99 -46 -154q-57 -69 -180 -69q-122 0 -214.5 69t-145.5 201z" />
    <glyph glyph-name="dotaccent" unicode="&#x2d9;" horiz-adv-x="215" 
d="M-182 1289l51 72q4 6 10.5 9t13.5 3q6 0 13 -3t15 -9l90 -76q6 -4 9.5 -10t5.5 -14q1 -6 1 -11v-4q-1 -6 -5 -12l-53 -76q-9 -11 -12 -13.5t-6 -2.5q-10 0 -17.5 2.5t-12.5 8.5l-97 87q-5 4 -8 9.5t-5 13.5l-1 3v3q0 4 1 7q1 6 7 13z" />
    <glyph glyph-name="ring" unicode="&#x2da;" horiz-adv-x="841" 
d="M684 1892q3 -12 5 -24q2 -15 2 -29q0 -51 -28 -96q-43 -57 -88 -115q-70 -93 -232 -93q-18 0 -38 1q-90 6 -180 70q-93 68 -116 163q-3 10 -4 19l-1 7q-4 30 -4 59q0 132 94 235q97 111 217 111q16 0 31 -2q121 -15 225 -117q94 -92 117 -189zM219 1878v-12q0 -11 1 -20
l1 -9q13 -49 103 -49h5q97 0 97 62q0 7 -1 15q-1 7 -3 13q-17 68 -91 76q-11 1 -21 1q-84 0 -91 -77z" />
    <glyph glyph-name="ogonek" unicode="&#x2db;" horiz-adv-x="799" 
d="M235 -322q0 -82 88 -82h5q40 0 62 16q45 0 143 -72l-27 -86q-81 -86 -161 -94q-19 -1 -35 -1q-145 0 -227 111q-61 50 -80 153q5 147 55 253q25 74 58 127q31 83 93 133q81 111 226 111q17 0 36 -1q80 -8 175 -110l-9 -77q-76 -65 -121 -65q-23 16 -63 16h-5
q-88 0 -125 -102q-61 -115 -88 -230z" />
    <glyph glyph-name="tilde" unicode="&#x2dc;" horiz-adv-x="1000" 
d="M517 1890q58 0 93 179q25 8 50 8q45 0 93.5 -32t95.5 -64q1 -10 1 -23q0 -41 -14 -113q-31 -141 -105 -196q-68 -49 -129 -49q-64 0 -148.5 64.5t-117.5 64.5q-63 0 -125 -121q-82 41 -139 111q-45 57 -60 112q-2 12 -4 23q18 75 74 141.5t125 79.5q4 1 8 1q33 0 111 -45
q88 -50 125.5 -95.5t65.5 -45.5z" />
    <glyph glyph-name="hungarumlaut" unicode="&#x2dd;" horiz-adv-x="560" 
d="M-162 1079l76 273q13 44 30 63t42 19q28 0 53 -20t31 -47l1 -6q1 -5 1 -10q0 -9 -3 -19q-6 -19 -21 -41l-152 -212h-58zM123 1079l76 273q13 44 30 63t42 19q28 0 53 -20t31 -47l1 -6q1 -5 1 -10q0 -9 -3 -19q-6 -19 -21 -41l-152 -212h-58z" />
    <glyph glyph-name="endash" unicode="&#x2013;" horiz-adv-x="1170" 
d="M321 915q337 35 482 35q86 0 94 -12t62.5 -65.5t60.5 -80.5v-10q0 -21 -26 -33q-62 -28 -409 -51q-242 -16 -352 -16q-41 0 -63 2q-1 -3 -3 -3q-12 0 -76 59q-80 71 -90 112l-1 3v7q0 9 4 14q7 7 317 39z" />
    <glyph glyph-name="emdash" unicode="&#x2014;" horiz-adv-x="1170" 
d="M321 915q337 35 482 35q86 0 94 -12t62.5 -65.5t60.5 -80.5v-10q0 -21 -26 -33q-62 -28 -409 -51q-242 -16 -352 -16q-41 0 -63 2q-1 -3 -3 -3q-12 0 -76 59q-80 71 -90 112l-1 3v7q0 9 4 14q7 7 317 39z" />
    <glyph glyph-name="quoteleft" unicode="&#x2018;" horiz-adv-x="532" 
d="M145 955q-118 45 -141 139q-2 5 -3 10q-1 7 -1 15q0 24 10 53q17 50 63 123q37 88 95 121q16 4 33 4q44 0 88 -26q-46 -59 -48 -104l1 -13q18 -67 135 -67q2 -10 3 -19q2 -15 2 -29q0 -47 -24 -90l-56 -71l-6 -8q-45 -42 -95 -43q-28 0 -56 5z" />
    <glyph glyph-name="quoteright" unicode="&#x2019;" horiz-adv-x="532" 
d="M238 1415q118 -45 141 -139l2 -10q1 -8 1 -16q0 -24 -10 -52q-16 -50 -62 -123q-37 -88 -95 -121q-16 -4 -33 -4q-44 0 -88 26q46 59 48 104l-2 13q-17 67 -134 67q-2 10 -4 19q-2 14 -2 28q0 47 24 91l57 71l5 8q45 42 96 43q28 0 56 -5z" />
    <glyph glyph-name="quotesinglbase" unicode="&#x201a;" horiz-adv-x="532" 
d="M237 295q118 -45 141 -139q2 -5 3 -10q1 -7 1 -15q0 -24 -10 -53q-17 -50 -63 -123q-37 -88 -95 -121q-16 -4 -33 -4q-44 0 -88 26q46 59 49 104l-2 13q-17 67 -134 67q-3 10 -4 19q-2 15 -2 29q0 47 24 90l56 71l6 8q45 42 96 43q28 0 55 -5z" />
    <glyph glyph-name="quotedblleft" unicode="&#x201c;" horiz-adv-x="982" 
d="M594 955q-118 45 -141 139l-2 10q-1 8 -1 16q0 24 10 52q16 50 62 123q37 88 95 121q16 4 33 4q44 0 88 -26q-46 -59 -48 -104l2 -13q17 -67 134 -67q2 -10 4 -19q2 -14 2 -28q0 -47 -24 -91l-57 -71l-5 -8q-45 -42 -96 -43q-28 0 -56 5zM144 958q-118 45 -142 139l-1 8
q-1 9 -1 19q0 23 8 51q17 50 64 123q36 88 95 121q16 4 33 4q44 0 87 -26q-45 -59 -47 -104v-7q0 -3 1 -6q18 -67 135 -67q2 -9 3 -19q2 -14 2 -29q0 -46 -25 -90l-55 -71l-7 -8q-44 -42 -94 -43q-28 0 -56 5z" />
    <glyph glyph-name="quotedblright" unicode="&#x201d;" horiz-adv-x="981" 
d="M238 1418q118 -45 141 -139l2 -10q1 -8 1 -16q0 -24 -10 -52q-16 -50 -62 -123q-37 -88 -95 -121q-16 -4 -33 -4q-44 0 -88 26q46 59 48 104l-2 13q-17 67 -134 67q-2 10 -4 19q-2 14 -2 28q0 47 24 91l57 71l5 8q45 42 96 43q28 0 56 -5zM687 1415q118 -45 142 -139
l1 -8q1 -9 1 -19q0 -23 -8 -51q-17 -50 -64 -123q-36 -88 -95 -121q-16 -4 -33 -4q-44 0 -87 26q45 59 47 104q1 2 1 4t-1 3q0 3 -1 6q-18 67 -135 67q-2 9 -3 19q-2 14 -2 29q0 46 25 90l55 71l7 8q44 42 94 43q28 0 56 -5z" />
    <glyph glyph-name="quotedblbase" unicode="&#x201e;" horiz-adv-x="981" 
d="M231 268q118 -45 141 -139l2 -10q1 -8 1 -16q0 -24 -10 -52q-16 -50 -62 -123q-37 -88 -95 -121q-16 -4 -33 -4q-44 0 -88 26q46 59 48 104l-2 13q-17 67 -134 67q-2 10 -4 19q-2 14 -2 28q0 47 24 91l57 71l6 8q44 42 95 43q28 0 56 -5zM687 265q118 -45 142 -139l1 -8
q1 -9 1 -19q0 -23 -8 -51q-17 -50 -64 -123q-36 -88 -95 -121q-16 -4 -33 -4q-44 0 -87 26q45 59 48 104q0 4 -1 7q0 3 -1 6q-17 67 -134 67q-3 9 -4 19q-2 14 -2 29q0 46 25 90l55 71l7 8q44 42 95 43q28 0 55 -5z" />
    <glyph glyph-name="dagger" unicode="&#x2020;" horiz-adv-x="875" 
d="M288 1022q-13 97 -63 178q-62 101 -63 129q-1 6 -1 12q1 8 2 15q6 31 31 52q33 29 93 29q57 0 96.5 -27.5t41.5 -71.5v-4q0 -6 -2 -13q-7 -38 -46 -120q-26 -53 -38 -110q-6 -31 -8 -64v-5q96 8 174 54q99 57 127 57q49 0 80.5 -36t34.5 -96q1 -5 1 -11q0 -5 -1 -11
q-1 -13 -3 -24q-5 -27 -20 -48q-25 -38 -70 -38q-32 0 -139 55q-87 46 -182 57q17 -176 124 -277q-47 -263 -61 -543q-6 -117 -6 -237q0 -96 4 -194h-38q-32 514 -163 974q68 69 89 174q6 34 8 72v31q-96 -10 -176 -55q-97 -57 -125 -57q-49 0 -80.5 36t-34.5 96v7q0 8 1 15
q0 14 3 26q5 27 19 47q26 37 70 37q32 0 138 -56q88 -46 183 -55z" />
    <glyph glyph-name="daggerdbl" unicode="&#x2021;" horiz-adv-x="958" 
d="M372 186q93 11 178 57q100 55 132 55q45 0 75 -37.5t31 -94.5q1 -5 1 -11q0 -5 -1 -11q-1 -14 -3 -26q-6 -28 -21 -48q-28 -36 -77 -36q-28 0 -133 57q-84 46 -179 54q13 -94 63 -179q61 -105 63 -137v-11l-2 -12q-5 -28 -32 -48q-36 -28 -93 -28q-60 0 -97.5 29.5
t-40.5 78.5v4q0 4 1 10q7 34 49 115q27 51 38 107q6 32 8 66v5q-94 -9 -176 -55q-102 -56 -134 -56q-44 0 -73.5 37.5t-33.5 94.5v7q0 8 1 15q0 13 3 25q5 28 21 49q28 36 77 36q28 0 132 -57q84 -45 180 -55q-20 226 -130 398q52 95 74 206q12 62 16 128q1 21 1 42v21
q-96 -10 -176 -55q-97 -57 -125 -57q-49 0 -80.5 36t-34.5 96v7q0 8 1 15q0 14 3 26q5 27 19 47q26 37 70 37q32 0 138 -56q88 -46 183 -55q-13 97 -63 178q-62 101 -63 129q-1 6 -1 12q1 8 2 15q6 31 31 52q33 29 93 29q57 0 96.5 -27.5t41.5 -71.5v-4q0 -6 -2 -13
q-7 -38 -46 -120q-26 -53 -38 -110q-6 -31 -8 -64v-5q96 8 174 54q99 57 127 57q49 0 80.5 -36t34.5 -96q1 -5 1 -11q0 -5 -1 -11q-1 -13 -3 -24q-5 -27 -20 -48q-25 -38 -70 -38q-32 0 -139 55q-87 46 -182 57q20 -226 130 -397q-51 -95 -73 -206q-13 -62 -16 -129
q-2 -31 -2 -63z" />
    <glyph glyph-name="bullet" unicode="&#x2022;" horiz-adv-x="605" 
d="M-139 718v32q1 22 6 43q15 75 71 134q83 86 206 86q122 0 212.5 -86.5t96.5 -208.5q1 -8 1 -16t-1 -16q-1 -22 -5 -42q-15 -76 -71 -135q-84 -88 -206 -88q-123 0 -213 87t-97 210z" />
    <glyph glyph-name="ellipsis" unicode="&#x2026;" horiz-adv-x="1354" 
d="M237 380q119 -45 142 -139l1 -8q1 -9 1 -19q0 -23 -8 -51l-19 -40q-35 -51 -70 -81q-54 -40 -107 -41q-38 0 -70 15q-80 46 -101 125q-3 10 -4 19q-2 13 -2 25q0 44 25 78l56 71l6 8q44 42 95 43q28 0 55 -5zM649 379q119 -45 142 -139l1 -8q1 -9 1 -19q0 -23 -8 -51
l-19 -40q-35 -51 -70 -81q-54 -40 -107 -41q-38 0 -69 15q-81 46 -102 125q-2 10 -4 19q-2 13 -2 25q0 44 25 78l56 71l6 8q45 42 95 43q28 0 55 -5zM1060 379q119 -45 142 -139l1 -8q1 -9 1 -19q0 -23 -8 -51l-19 -40q-35 -51 -70 -81q-54 -40 -107 -41q-38 0 -69 15
q-81 46 -102 125q-2 10 -4 19q-2 13 -2 25q0 44 25 78l56 71l6 8q45 42 95 43q28 0 55 -5z" />
    <glyph glyph-name="guilsinglleft" unicode="&#x2039;" horiz-adv-x="1229" 
d="M544 766q94 -10 260 -62q158 -49 164.5 -62t59.5 -77q49 -55 51 -80l1 -4l-1 -4q-2 -27 -66 -27q-101 0 -430 84t-429 84q-2 -3 -4 -3q-12 0 -71 59q-73 71 -79 112l1 9q1 11 7 16q15 14 390 164q398 159 472 159q10 0 14 -4q6 -12 54.5 -65t51.5 -80l1 -4l-1 -6
q-2 -22 -29 -33q-132 -62 -417 -176z" />
    <glyph glyph-name="guilsinglright" unicode="&#x203a;" horiz-adv-x="1178" 
d="M7 1099q1 1 4 1q38 0 449 -97q446 -105 461 -136q6 -12 55 -65.5t51 -79.5l1 -4l-1 -6q-2 -22 -29 -33q-653 -289 -765 -289h-7q0 -3 -2 -3q-12 0 -71 59q-73 71 -79 112l-1 6l1 4q1 8 5 14q8 7 152 64q171 70 295 104q-164 50 -364 101v-2q0 -1 -1 -1q-11 0 -76 81
q-77 96 -85 143v10q1 11 7 17z" />
    <glyph glyph-name="fraction" unicode="&#x2044;" horiz-adv-x="1371" 
d="M206 10q-3 -10 -22 -10q-38 0 -104.5 47t-77.5 90l-1 4q-1 5 -1 9q0 9 3 16q18 43 251 370q248 346 254 357q50 35 247 282q202 256 206 258q33 31 121 31q119 0 137 -72l1 -8q1 -7 1 -14q0 -20 -8 -43q-30 -96 -321 -426q-296 -336 -314 -377v1q-11 0 -170 -214
q-173 -229 -202 -301z" />
    <glyph glyph-name="fraction" unicode="&#x2215;" horiz-adv-x="1371" 
d="M206 10q-3 -10 -22 -10q-38 0 -104.5 47t-77.5 90l-1 4q-1 5 -1 9q0 9 3 16q18 43 251 370q248 346 254 357q50 35 247 282q202 256 206 258q33 31 121 31q119 0 137 -72l1 -8q1 -7 1 -14q0 -20 -8 -43q-30 -96 -321 -426q-296 -336 -314 -377v1q-11 0 -170 -214
q-173 -229 -202 -301z" />
    <glyph glyph-name="franc" unicode="&#x20a3;" horiz-adv-x="1474" 
d="M495 261q-22 -100 -49 -226q-25 -35 -72 -35q-58 0 -114.5 43t-69.5 96q-2 6 -3 12t-1 12v5q3 38 7 84q-13 0 -24 1v-1q0 -2 -2 -2q-12 0 -76 58q-80 72 -90 113l-1 6v3q0 9 5 14q6 6 214 29q21 155 57 359q102 587 189 614q99 31 330 70q262 45 385 45q69 0 79 -17
q42 -59 59 -127q3 -11 4 -21q2 -13 2 -24q0 -39 -24 -57q-28 -21 -334 -55q-294 -35 -295 -50.5t-20 -123.5l-18 -92l2 -7q0 2 181 35q193 35 274 35q50 0 57 -12.5t61.5 -65.5t61.5 -80v-10q0 -21 -27 -33q-50 -22 -359 -119q-299 -92 -301 -94q-2 -4 -32 -137
q163 13 253 13q86 0 93 -12.5t61.5 -65.5t61.5 -80l1 -3v-6q0 -22 -27 -34q-61 -28 -410 -51q-46 -3 -89 -6z" />
    <glyph glyph-name="lira" unicode="&#x20a4;" horiz-adv-x="1425" 
d="M301 1066q14 132 78 208q57 55 111 110q38 39 139 70q112 37 229 37q267 0 381 -188q21 -37 30 -74q2 -10 4 -19q2 -15 2 -29q0 -44 -21 -79q-33 -53 -82 -53q-74 0 -109 114q-13 43 -52.5 78t-117.5 35q-147 0 -249 -117q-60 -74 -60 -138q0 -10 1 -20l2 -1l1 -96
q125 25 201 25q86 0 93 -12t61 -65.5t61 -79.5l1 -4v-6q0 -21 -27 -33q-59 -28 -385 -98l11 -242q349 55 453 55q29 0 44 -11q49 -36 93 -88.5t55 -97.5q2 -7 3 -13t1 -10q0 -16 -10 -24q-36 -29 -515 -118q-369 -82 -434 -82q-6 0 -9 1q-241 63 -263 150v5q-1 5 -1 11v6
l260 123l6 268q-95 -3 -106.5 -3.5t-13.5 -0.5q-12 0 -77 59q-79 71 -90 112l4 24q8 7 291 74z" />
    <glyph glyph-name="peseta" unicode="&#x20a7;" horiz-adv-x="1806" 
d="M758 788q64 0 195 48t185 94q79 65 155 145q99 105 99 149v9q-1 4 -4 8q-35 51 -250 51q-229 0 -299 -84q-16 -22 -69 -199q-43 -151 -43 -196v-8l1 -7q5 -10 30 -10zM362 504q23 72 46 159l92 430q3 12 3 28q0 20 -4 46q-3 21 -9 47q-11 48 -16 81q-4 26 -4 42v10
q4 95 418 189q39 8 109 8q180 0 337 -55q214 -76 304 -232q8 -14 13 -31q2 -6 3 -12q2 -10 2 -21q0 -103 -137 -251q-152 -166 -385 -297q-134 -75 -254 -115q14 -3 17 -7q7 -13 61.5 -66t61.5 -80l1 -3v-6q0 -22 -27 -34q-59 -27 -388 -50q-62 -187 -81 -215
q-45 -69 -115 -69q-71 0 -147 67q-66 58 -79 109v10q0 10 6 14q34 20 66 67h-22q-41 0 -65 2v-1q0 -2 -2 -2q-12 0 -76 58q-80 72 -90 113l-1 6v3q0 9 5 14q7 7 316 40q21 2 41 4z" />
    <glyph glyph-name="Euro" unicode="&#x20ac;" horiz-adv-x="1400" 
d="M545 478q34 -78 88 -130q50 -66 255 -66q135 0 226 62q101 -73 136 -254q-181 -90 -380 -90q-68 0 -178 12q-153 33 -272 182q-82 103 -128 273h-22q-41 0 -65 2v-1q0 -2 -2 -2q-12 0 -76 58q-80 72 -90 113l-1 6v3q0 9 5 14q5 6 204 28q-7 49 -7 97q0 19 1 38h-6
q-41 0 -63 2q0 -3 -2 -3q-12 0 -77 59q-80 71 -90 112l-1 5v6q0 8 4 13q8 7 285 36q43 130 100 218q175 267 437 267q239 -10 407 -107q-46 -159 -127 -159q-182 28 -269 28q-108 -10 -236 -218q127 9 203 9q86 0 93.5 -12t61.5 -65.5t61 -79.5v-10q0 -21 -27 -33
q-60 -29 -409 -52q-46 -3 -86 -5q-5 -23 -7 -47q-3 -23 -3 -46q0 -14 1 -28q236 22 351 22q86 0 93 -12.5t61.5 -65.5t61.5 -80l1 -3v-6q0 -22 -27 -34q-61 -28 -410 -51q-39 -3 -75 -5z" />
    <glyph glyph-name="uni2116" unicode="&#x2116;" horiz-adv-x="1600" 
d="M156 1402q9 1 28.5 12.5t30.5 11.5q13 0 24 -11q37 -34 114 -186q68 -134 122 -265q2 -4 3 -4q12 0 53 240.5t57 242.5q9 2 19 2q25 0 57 -9q53 -13 59 -38v-2q0 -31 -75 -321q-70 -269 -70 -307v-5q2 -2 3 -4v-2q0 -7 -10 -14q-13 -8 -32 -8q-51 0 -92 61
q-9 15 -107 202q-75 142 -97 142q-23 -2 -31 -25l-8 -32q-5 -11 -29 -183q-22 -152 -22 -183v-8q0 -9 -24 -9q-37 0 -71 19q-40 24 -50 65l-2 4q25 154 49 306q57 302 101 308zM1442 1202q3 -12 5 -24q3 -21 3 -44q0 -121 -89 -291q-33 -63 -147 -101q-94 -32 -194 -32
q-109 0 -185 38q-93 48 -118 149q-6 23 -10 47q-5 34 -5 67q0 75 25 149q43 130 142 211q103 86 235 86q114 0 212 -71t126 -184zM935 863q49 -24 109 -24q104 0 201 135q76 105 76 192q0 15 -2 29q-1 9 -3 17q-13 53 -78 85q-52 26 -111 26q-141 0 -220 -118
q-57 -82 -57 -176q0 -24 4 -48q3 -17 8 -35q14 -55 73 -83z" />
    <glyph glyph-name="trademark" unicode="&#x2122;" horiz-adv-x="1611" 
d="M575 1437q26 -4 45 -77q5 -19 7 -32q1 -9 1 -15q0 -9 -3 -12q-9 -7 -210 -28q-34 -37 -34 -44q0 -1 1 -1q-40 -36 -76 -246q-16 -113 -32 -225q-36 -57 -67 -57q-33 0 -65 57q-1 3 -3 7v6q-1 9 -1 22q0 63 33 224q45 220 61 220q1 2 3 3q-2 4 -11 11q-4 2 -9 6
q-39 -3 -67 -6q-71 -9 -86 -22q-3 -2 -5 -2q-24 0 -53 113q-3 14 -4 20v4q114 19 228 39q222 36 316 36q18 0 31 -1zM776 1403q28 0 66 -6q32 -5 43 -52l4 -16q2 -16 2 -33q-3 -22 -8 -22h-2q-1 0 -1 -4q0 -3 1 -11q4 -24 19 -86q16 -63 44 -166q196 315 378 455
q136 -59 139 -74q0 -3 -5 -4q-23 -3 -59 -312q-31 -261 -31 -330v-14q0 -14 -18 -14q-46 0 -145 60q-6 3 -9 16l-2 11q-2 17 -2 42q0 75 22 226l-27 24q-136 -161 -147 -200q-27 -96 -41 -119q-19 -30 -62 -30q-11 0 -24 1q-69 6 -84 68l-2 15q-5 31 -6 89q-7 90 -14 137
l-2 16q-2 7 -3 13q-11 43 -54 43q-16 0 -60 -181q-50 -212 -55 -224q-6 -19 -23 -19q-23 0 -51.5 32t-38.5 73q-2 7 -3 15q-2 11 -2 22q3 52 84 282q78 221 99 249t80 28z" />
    <glyph glyph-name="partialdiff" unicode="&#x2202;" 
d="M0 200v1100q0 200 200 200h1100q200 0 200 -200v-1100q0 -200 -200 -200h-1100q-200 0 -200 200zM1475 201v1099q0 175 -175 175h-1100q-174 0 -175 -175v-1100q1 -175 175 -175h1101q174 0 174 176z" />
    <glyph glyph-name="Delta" unicode="&#x2206;" 
d="M0 200v1100q0 200 200 200h1100q200 0 200 -200v-1100q0 -200 -200 -200h-1100q-200 0 -200 200zM1475 201v1099q0 175 -175 175h-1100q-174 0 -175 -175v-1100q1 -175 175 -175h1101q174 0 174 176z" />
    <glyph glyph-name="product" unicode="&#x220f;" 
d="M0 200v1100q0 200 200 200h1100q200 0 200 -200v-1100q0 -200 -200 -200h-1100q-200 0 -200 200zM1475 201v1099q0 175 -175 175h-1100q-174 0 -175 -175v-1100q1 -175 175 -175h1101q174 0 174 176z" />
    <glyph glyph-name="summation" unicode="&#x2211;" 
d="M0 200v1100q0 200 200 200h1100q200 0 200 -200v-1100q0 -200 -200 -200h-1100q-200 0 -200 200zM1475 201v1099q0 175 -175 175h-1100q-174 0 -175 -175v-1100q1 -175 175 -175h1101q174 0 174 176z" />
    <glyph glyph-name="minus" unicode="&#x2212;" horiz-adv-x="1170" 
d="M321 915q337 35 482 35q86 0 94 -12t62.5 -65.5t60.5 -80.5v-10q0 -21 -26 -33q-62 -28 -409 -51q-242 -16 -352 -16q-41 0 -63 2q-1 -3 -3 -3q-12 0 -76 59q-80 71 -90 112l-1 3v7q0 9 4 14q7 7 317 39z" />
    <glyph glyph-name="approxequal" unicode="&#x2248;" 
d="M0 200v1100q0 200 200 200h1100q200 0 200 -200v-1100q0 -200 -200 -200h-1100q-200 0 -200 200zM1475 201v1099q0 175 -175 175h-1100q-174 0 -175 -175v-1100q1 -175 175 -175h1101q174 0 174 176z" />
    <glyph glyph-name="lessequal" unicode="&#x2264;" 
d="M0 200v1100q0 200 200 200h1100q200 0 200 -200v-1100q0 -200 -200 -200h-1100q-200 0 -200 200zM1475 201v1099q0 175 -175 175h-1100q-174 0 -175 -175v-1100q1 -175 175 -175h1101q174 0 174 176z" />
    <glyph glyph-name="greaterequal" unicode="&#x2265;" 
d="M0 200v1100q0 200 200 200h1100q200 0 200 -200v-1100q0 -200 -200 -200h-1100q-200 0 -200 200zM1475 201v1099q0 175 -175 175h-1100q-174 0 -175 -175v-1100q1 -175 175 -175h1101q174 0 174 176z" />
    <glyph glyph-name="OE" unicode="&#x152;" horiz-adv-x="2401" 
d="M1117 99q-42 -19 -92 -36q-190 -63 -389 -63q-219 0 -369 76q-188 96 -238 297q-12 47 -19 94q-10 69 -10 137q0 148 49 295q86 260 284 422q207 172 471 172q227 0 424 -141q26 -19 49 -40q43 127 82 139q99 31 330 70q262 45 385 45q69 0 79 -17q42 -59 59 -127
q3 -11 4 -21q2 -13 2 -24q0 -39 -24 -57q-28 -21 -334 -55q-294 -35 -295 -50.5t-20 -123.5l-18 -91l7 -8q0 3 176 35q193 35 274 35q50 0 57 -12.5t61.5 -65.5t61.5 -80v-10q0 -21 -27 -33q-50 -22 -359 -119q-299 -92 -301 -94q-6 -8 -67 -319q453 215 602 215
q29 0 43 -11q50 -36 95 -98.5t56 -107.5q2 -7 3 -13t1 -10q0 -16 -10 -24q-35 -29 -419 -158q-363 -122 -428 -122q-6 0 -9 1q-165 43 -227 98zM1130 592q17 112 40 245q20 117 40 212q-38 75 -138 125q-105 51 -222 51q-282 0 -441 -235q-112 -163 -112 -350q0 -48 8 -99
q5 -34 14 -70q28 -109 147 -166q97 -47 216 -47q209 0 404 269q24 33 44 65z" />
    <glyph glyph-name="oe" unicode="&#x153;" horiz-adv-x="2401" 
d="M893 79q-33 -15 -73 -29q-152 -50 -311 -50q-175 0 -295 61q-151 77 -191 237q-9 38 -15 76q-8 55 -8 109q0 119 39 236q69 208 227 338q166 137 377 137q182 0 339 -113q21 -15 40 -31q34 101 65 111q79 25 264 56q210 36 308 36q55 0 63 -14q34 -47 48 -101q2 -9 3 -17
q1 -11 1 -19q0 -32 -19 -46q-22 -17 -267 -44q-235 -28 -236 -40.5t-16 -98.5l-14 -73l5 -6q0 2 141 28q154 28 219 28q40 0 45.5 -10t49.5 -52.5t49 -64.5v-8q0 -17 -21 -26q-40 -18 -288 -95q-239 -74 -240 -76q-5 -6 -54 -255q362 172 482 172q23 0 34 -9q40 -28 76 -78
t45 -86q1 -6 2 -11t1 -8q0 -13 -8 -19q-28 -23 -335 -126q-291 -98 -343 -98q-4 0 -7 1q-132 35 -182 78zM904 474q14 89 32 196q16 94 32 170q-30 59 -110 99q-84 41 -178 41q-226 0 -353 -188q-89 -130 -89 -280q0 -38 6 -79q4 -27 11 -56q23 -87 118 -133q77 -38 173 -38
q167 0 323 216q19 26 35 52z" />
    <glyph glyph-name="perthousand" unicode="&#x2030;" horiz-adv-x="1993" 
d="M340 -4q-3 -10 -21 -10q-39 0 -105.5 47t-77.5 90l-1 4q-1 5 -1 9q0 9 3 16q18 43 252 370q247 346 254 357q49 35 246 282q202 256 206 258q33 31 121 31q119 0 137 -72l1 -9q1 -7 1 -15q0 -19 -7 -41q-31 -96 -321 -426q-296 -336 -315 -377v1q-11 0 -170 -214
q-173 -229 -202 -301zM964 338v-12q0 -11 1 -20l1 -9q12 -49 102 -49h5q98 0 98 63q0 7 -1 14t-3 13q-17 68 -92 76q-11 1 -21 1q-84 0 -90 -77zM686 1137q3 -11 4 -21q2 -16 2 -31q0 -52 -29 -98q-42 -57 -88 -114q-69 -94 -230 -94q-19 0 -39 1q-90 7 -179 70
q-94 69 -119 164q-2 9 -3 18l-1 5q-4 30 -4 59q0 133 93 237q98 111 219 111q16 0 31 -2q120 -14 224 -117q94 -92 119 -188zM220 1122v-11q0 -11 1 -20l2 -10q12 -49 102 -49h5q97 0 97 62q0 7 -1 15q-1 7 -3 13q-16 68 -90 76q-11 1 -21 1q-85 0 -92 -77zM1414 338v-12
q0 -11 1 -20l1 -9q12 -49 102 -49h5q98 0 98 63q0 7 -1 14t-3 13q-17 68 -92 76q-11 1 -21 1q-84 0 -90 -77zM1308 75q-71 -80 -221 -80q-18 0 -38 1q-90 6 -179 70q-94 68 -117 163q-2 10 -4 19l-1 7q-4 30 -4 59q0 132 94 235q97 111 217 111q16 0 32 -2q111 -14 208 -102
q94 104 210 104q16 0 32 -2q120 -15 224 -117q94 -92 118 -189l4 -24q2 -15 2 -29q0 -51 -28 -96q-42 -57 -88 -115q-70 -93 -232 -93q-18 0 -38 1q-90 6 -179 70q-6 4 -12 9z" />
    <glyph glyph-name="Aogonek" unicode="&#x104;" horiz-adv-x="1492" 
d="M596 549l371 24q79 48 79 71v3q-1 4 -14 117q-6 57 -12 96t-11 60q-7 28 -13 30q-25 11 -50 11q-96 0 -203 -150q-57 -82 -147 -262zM1085 243q0 21 2 44q-98 24 -208 24q-160 0 -317 -49q-134 -41 -199 -90l-129 -172q-202 20 -230 131q-2 6 -3 13q-1 9 -1 19q0 17 3 34
q49 227 435 731q381 497 502 497h3q9 -1 18 -1q18 0 37 3q32 3 38 3q51 0 138 -78q34 -31 64 -154q25 -95 44 -222q28 -191 46 -456q14 -211 14 -320q0 -34 -1 -58q2 -3 5 -6l-9 -77q-76 -65 -121 -65q-23 16 -63 16h-5q-88 0 -125 -102q-61 -115 -88 -230q0 -82 88 -82h5
q40 0 62 16q45 0 143 -72l-27 -86q-81 -86 -161 -94q-19 -1 -35 -1q-145 0 -227 111q-61 50 -80 153q5 147 55 253q25 74 58 127q31 83 93 133q66 91 176 107z" />
    <glyph glyph-name="aogonek" unicode="&#x105;" horiz-adv-x="1194" 
d="M477 439l297 19q63 39 63 57v3q-1 3 -11 93q-5 46 -10 77t-9 48q-5 22 -10 24q-20 9 -40 9q-77 0 -163 -120q-45 -66 -117 -210zM868 195q0 16 2 35q-79 19 -167 19q-128 0 -253 -39q-108 -33 -160 -72l-103 -138q-161 16 -184 105l-2 10q-1 7 -1 15q0 14 2 28
q40 181 348 584q305 398 402 398h2q8 -1 15 -1q14 0 29 3q26 2 31 2q41 0 110 -62q27 -25 51 -124q20 -76 36 -177q22 -153 36 -365q12 -169 12 -256q0 -27 -1 -47l4 -4l-7 -62q-61 -52 -97 -52q-19 13 -51 13h-4q-70 0 -100 -82q-48 -92 -70 -184q0 -65 70 -65h4
q32 0 50 13q36 0 114 -58l-21 -69q-65 -69 -129 -75q-15 -1 -28 -1q-116 0 -182 89q-48 40 -64 122q4 118 44 203q20 59 47 101q25 67 74 107q53 73 141 86z" />
    <glyph glyph-name="Cacute" unicode="&#x106;" horiz-adv-x="1360" 
d="M252 717q-3 -24 -3 -47q0 -31 5 -62q3 -21 8 -41q30 -121 132 -219q70 -66 205 -66t226 62q72 50 72 114q0 9 -2 19q-1 7 -3 14q-2 10 -7 21l221 98q70 -74 96 -178q3 -14 5 -27q3 -17 3 -33q0 -27 -8 -49q-49 -139 -241 -233q-181 -90 -380 -90q-68 0 -128 12
q-153 33 -272 182q-109 137 -155 322q-11 45 -18 87q-8 52 -8 99q0 88 27 162q100 281 175 397q175 267 437 267q207 0 375 -97q156 -90 183 -198v-2q0 -73 -77 -132q-64 -50 -106 -50q-10 0 -18 3q-121 240 -313 240q-17 0 -34 -2q-107 -10 -236 -219q-107 -174 -161 -354z
M639 1589q-19 0 -39 1q60 211 60 229q0 2 -1 2q-6 0 -11 24q-2 9 -2 18t2 19q1 7 3 15q25 100 153 145q24 8 46 8q50 0 93 -43q7 -6 62 -79q26 -35 26 -82q0 -13 -2 -26q-2 -9 -4 -19q-6 -21 -14 -39q-102 -173 -372 -173z" />
    <glyph glyph-name="cacute" unicode="&#x107;" horiz-adv-x="1088" 
d="M202 574q-3 -20 -3 -38q0 -25 4 -50q3 -16 7 -32q24 -97 105 -176q56 -52 164 -52t181 49q58 40 58 91q0 8 -2 16q-1 5 -2 11q-2 8 -6 17l177 78q56 -59 77 -142q2 -12 4 -22q2 -14 2 -26q0 -22 -6 -40q-40 -111 -193 -186q-145 -72 -304 -72q-55 0 -103 10
q-122 26 -217 145q-87 110 -124 258q-9 36 -15 69q-6 42 -6 80q0 70 22 129q80 225 140 318q140 213 349 213q166 0 300 -77q125 -72 147 -159v-1q0 -59 -62 -106q-51 -40 -85 -40q-8 0 -14 3q-97 192 -251 192q-13 0 -27 -2q-85 -8 -189 -175q-85 -139 -128 -283zM511 1271
q-15 0 -31 1q48 169 48 183q0 2 -1 2q-5 0 -9 19q-1 7 -1 14q0 8 1 16q1 5 3 12q20 80 122 116q19 6 37 6q40 0 74 -34q6 -5 50 -64q21 -28 21 -65q0 -11 -2 -21q-1 -7 -3 -15q-5 -17 -11 -31q-82 -139 -298 -139z" />
    <glyph glyph-name="Eogonek" unicode="&#x118;" horiz-adv-x="1288" 
d="M543 70q-221 -70 -270 -70q-6 0 -9 1q-240 63 -262 150l-1 5q-1 8 -1 17q12 209 90 664q102 587 189 614q99 31 330 70q262 45 385 45q69 0 79 -17q42 -59 59 -127q3 -11 4 -21q2 -13 2 -24q0 -39 -24 -57q-28 -21 -334 -55q-294 -35 -295 -50.5t-20 -123.5l-18 -91l7 -8
q0 3 176 35q193 35 274 35q50 0 57 -12.5t61.5 -65.5t61.5 -80v-10q0 -21 -27 -33q-50 -22 -359 -119q-299 -92 -301 -94q-6 -8 -67 -319q453 215 602 215q29 0 43 -11q50 -36 95 -98.5t56 -107.5q2 -7 3 -13t1 -10q0 -14 -8 -22l-5 -43q-76 -65 -121 -65q-23 16 -63 16h-5
q-88 0 -125 -102q-61 -115 -88 -230q0 -82 88 -82h5q40 0 62 16q45 0 143 -72l-27 -86q-81 -86 -161 -94q-19 -1 -35 -1q-145 0 -227 111q-61 50 -80 153q5 147 55 253q2 7 5 14z" />
    <glyph glyph-name="eogonek" unicode="&#x119;" horiz-adv-x="1030" 
d="M434 56q-176 -56 -216 -56q-4 0 -7 1q-192 50 -209 120l-1 4q-1 6 -1 13q10 168 72 532q82 469 151 491q79 25 264 56q210 36 308 36q55 0 63 -14q34 -47 48 -101q2 -9 3 -17q1 -11 1 -19q0 -32 -19 -46q-22 -17 -267 -44q-235 -28 -236 -40.5t-16 -98.5l-14 -73l5 -6
q0 2 141 28q154 28 219 28q40 0 45.5 -10t49.5 -52.5t49 -64.5v-8q0 -17 -21 -26q-40 -18 -288 -95q-239 -74 -240 -76q-5 -6 -54 -255q362 172 482 172q23 0 34 -9q40 -28 76 -78t45 -86q1 -6 2 -11t1 -8q0 -11 -6 -18l-4 -34q-61 -52 -97 -52q-19 13 -51 13h-4
q-70 0 -100 -82q-48 -92 -70 -184q0 -65 70 -65h4q32 0 50 13q36 0 114 -58l-21 -69q-65 -69 -129 -75q-15 -1 -28 -1q-116 0 -182 89q-48 40 -64 122q4 118 44 203q2 6 4 11z" />
    <glyph glyph-name="Lslash" unicode="&#x141;" horiz-adv-x="1436" 
d="M363 919q125 523 159 576q12 18 37 18q51 0 137 -73q80 -68 90 -97v-3q0 -1 -1 -1h-4q-29 0 -102 -393q74 4 124 4q86 0 94 -12t62.5 -65.5t60.5 -80.5v-10q0 -21 -26 -33q-57 -26 -358 -48q-22 -130 -47 -287q-2 -12 -2 -23q0 -7 1 -13q0 -6 2 -12l1 -6q9 -24 40 -24
q16 0 105 2q111 12 171 16q77 5 83 82q1 8 1 17q0 8 -1 17q-1 16 -6 34l-2 6q52 19 118 19q123 0 170 -43q8 -7 9 -15l2 -6q2 -6 2 -14q1 -9 1 -20q0 -37 -10 -97q-13 -72 -24 -143q-4 -45 -335 -119q-250 -29 -437 -68q-15 -4 -42 -4q-67 0 -126 27q-77 32 -101 98
q-3 6 -4 13q-3 11 -5 22q-1 7 -1 13q0 17 4 36q8 63 104 474q-42 -1 -74 -1q-41 0 -63 2q-1 -3 -3 -3q-12 0 -76 59q-80 71 -90 112l-1 3v7q0 9 4 14q7 7 317 39q22 2 42 4z" />
    <glyph glyph-name="lslash" unicode="&#x142;" horiz-adv-x="1149" 
d="M291 735q99 419 127 461q9 14 29 14q41 0 110 -58q64 -54 72 -78v-2q0 -1 -1 -1h-3q-24 0 -82 -314q59 3 99 3q69 0 75.5 -9.5t50 -52.5t48.5 -64v-8q0 -17 -21 -27q-46 -21 -286 -38q-18 -104 -38 -230q-1 -9 -1 -18v-11q0 -4 2 -9l1 -5q7 -19 32 -19q13 0 84 1
q89 10 137 13q61 4 66 66q1 6 1 13t-1 14q-1 13 -5 27l-1 5q41 15 94 15q98 0 136 -34q6 -6 7 -12l2 -5q1 -5 1 -11q1 -7 1 -16q0 -30 -8 -78q-10 -57 -19 -114q-3 -36 -268 -95q-200 -24 -350 -55q-12 -3 -33 -3q-54 0 -101 22q-62 25 -81 78q-2 5 -3 10l-4 18q-1 6 -1 10
q0 14 3 29q7 51 84 380q-34 -1 -60 -1q-32 0 -50 1q-1 -2 -2 -2q-10 0 -61 47q-64 57 -72 90l-1 2v6q0 7 3 11q6 5 254 31q17 2 34 3z" />
    <glyph glyph-name="Nacute" unicode="&#x143;" horiz-adv-x="1582" 
d="M299 1404q18 2 56.5 25t60.5 23q25 0 49 -23q75 -68 228 -371q137 -268 243 -530q4 -8 6 -8q23 0 106.5 481t114.5 485q18 3 38 3q49 0 113 -17q106 -27 118 -76v-5q0 -62 -149 -642q-141 -539 -141 -612v-8q0 -2 1 -3q4 -4 4 -8l1 -2v-3q0 -13 -20 -27q-24 -17 -63 -17
q-102 0 -184 123q-19 29 -215 403q-151 285 -194 285h-1q-44 -4 -60 -51q-10 -31 -17 -64q-9 -22 -59 -366q-43 -302 -43 -365q0 -8 1 -12v-5q0 -17 -50 -17q-74 0 -141 38q-79 47 -100 129l-2 9q49 307 97 612q113 604 202 616zM719 1589q-19 0 -39 1q60 211 60 229
q0 2 -1 2q-6 0 -11 24q-2 9 -2 18t2 19q1 7 3 15q25 100 153 145q24 8 46 8q50 0 93 -43q7 -6 62 -79q26 -35 26 -82q0 -13 -2 -26q-2 -9 -4 -19q-6 -21 -14 -39q-102 -173 -372 -173z" />
    <glyph glyph-name="nacute" unicode="&#x144;" horiz-adv-x="1266" 
d="M239 1123q15 2 45.5 20.5t48.5 18.5q20 0 39 -19q60 -54 182 -297q110 -214 195 -424q3 -6 5 -6q18 0 85 385t91 388q15 2 31 2q39 0 90 -13q85 -22 95 -61v-4q0 -50 -120 -514q-112 -431 -112 -489v-9q4 -3 4 -7v-4q0 -10 -16 -21q-19 -14 -50 -14q-82 0 -147 99
q-15 23 -172 322q-121 228 -155 228h-1q-35 -3 -48 -41q-8 -25 -14 -51q-7 -18 -47 -293q-34 -241 -34 -292v-13q0 -14 -40 -14q-59 0 -112 30q-64 38 -80 104l-2 7q39 245 78 489q90 484 161 493zM575 1271q-15 0 -31 1q48 169 48 183q0 2 -1 2q-5 0 -9 19q-1 7 -1 14
q0 8 1 16q1 5 3 12q20 80 122 116q19 6 37 6q40 0 74 -34q6 -5 50 -64q21 -28 21 -65q0 -11 -2 -21q-1 -7 -3 -15q-5 -17 -11 -31q-82 -139 -298 -139z" />
    <glyph glyph-name="Sacute" unicode="&#x15a;" horiz-adv-x="1500" 
d="M1302 1229q2 -10 4 -19q2 -12 2 -23q0 -48 -32 -85q-45 -53 -109 -53q-96 0 -136 114q-16 43 -111.5 78t-196.5 35q-100 0 -155 -39q-85 -49 -171 -98q-90 -60 -90 -119q0 -6 1 -12l1 -8l2 -9q21 -59 218 -59q36 0 254 10q24 1 47 1q411 0 499 -357q8 -31 15 -78l4 -25
q2 -14 2 -28q0 -143 -170 -287q-199 -168 -457 -168q-443 0 -686 254q-6 4 -8 12v9q0 37 68 98q77 67 131 67q28 0 37 -22q60 -137 501 -164q17 -1 34 -1q135 0 191 73q49 61 49 194q0 25 -2 53l-1 10q-16 61 -172 93q-133 26 -321 26q-158 0 -198 -14q-14 -6 -39 -6
q-82 0 -175 43q-102 46 -117 108l-1 3q-4 19 -7 37q-7 46 -7 89q0 82 26 148q32 88 119 164q76 55 150 110q50 39 183 70q148 37 300 37q348 0 488 -188q26 -37 36 -74zM649 1589q-19 0 -39 1q60 211 60 229q0 2 -1 2q-6 0 -11 24q-2 9 -2 18t2 19q1 7 3 15q25 100 153 145
q24 8 46 8q50 0 93 -43q7 -6 62 -79q26 -35 26 -82q0 -13 -2 -26q-2 -9 -4 -19q-6 -21 -14 -39q-102 -173 -372 -173z" />
    <glyph glyph-name="sacute" unicode="&#x15b;" horiz-adv-x="1200" 
d="M1042 983q1 -8 3 -15q1 -10 1 -18q0 -39 -25 -68q-36 -43 -87 -43q-77 0 -109 91q-13 35 -89.5 63t-157.5 28q-80 0 -124 -31q-68 -40 -136 -79q-72 -48 -72 -95v-10l1 -6l2 -7q17 -47 174 -47q29 0 203 8h38q329 0 399 -285q7 -25 12 -63l3 -20q2 -11 2 -22
q0 -114 -136 -230q-159 -134 -366 -134q-354 0 -548 203q-5 3 -7 10v7q0 30 55 78q61 54 104 54q23 0 30 -18q48 -109 401 -131q13 -1 27 -1q108 0 153 59q39 49 39 155q0 20 -2 42v8q-13 49 -138 75q-106 21 -257 21q-126 0 -158 -12q-11 -4 -31 -4q-66 0 -140 34
q-82 37 -94 86l-1 3q-3 15 -5 29q-6 37 -6 72q0 65 21 118q25 70 95 131q61 44 120 88q40 31 146 56q119 30 240 30q279 0 391 -151q21 -29 29 -59zM519 1271q-15 0 -31 1q48 169 48 183q0 2 -1 2q-5 0 -9 19q-1 7 -1 14q0 8 1 16q1 5 3 12q20 80 122 116q19 6 37 6
q40 0 74 -34q6 -5 50 -64q21 -28 21 -65q0 -11 -2 -21q-1 -7 -3 -15q-5 -17 -11 -31q-82 -139 -298 -139z" />
    <glyph glyph-name="Zacute" unicode="&#x179;" horiz-adv-x="1350" 
d="M81 1279l110 57q712 164 825 164h10q49 -4 98.5 -72.5t68.5 -140.5q3 -11 4 -22q2 -13 2 -23q0 -21 -8 -34q-15 -25 -336 -359q-308 -324 -321 -364q-5 -15 -5 -28q0 -6 1 -12l1 -6q10 -40 51 -40q10 0 23 4q94 30 188 61q169 51 226 51q18 0 26 -6q35 -29 82 -82
q60 -69 71 -112l1 -8q1 -5 1 -10q0 -17 -12 -24q-18 -12 -458 -128q-408 -109 -408 -152q-1 -16 -19 -16q-51 0 -175 84q-114 77 -123 113l-1 7q0 129 341 545q325 397 388 397h3q6 -1 11 -1q27 0 27 21q0 4 -1 8v5q-4 13 -11 25q-120 -31 -211 -55q-218 -64 -250 -101
q-7 -6 -17 -6q-41 0 -115.5 82t-89.5 141l-2 8v9q0 13 4 20zM639 1589q-19 0 -39 1q60 211 60 229q0 2 -1 2q-6 0 -11 24q-2 9 -2 18t2 19q1 7 3 15q25 100 153 145q24 8 46 8q50 0 93 -43q7 -6 62 -79q26 -35 26 -82q0 -13 -2 -26q-2 -9 -4 -19q-6 -21 -14 -39
q-102 -173 -372 -173z" />
    <glyph glyph-name="zacute" unicode="&#x17a;" horiz-adv-x="1080" 
d="M65 1023l88 46q569 131 660 131h8q39 -3 78.5 -58t54.5 -112q3 -9 4 -18q1 -10 1 -18q0 -17 -6 -28q-12 -20 -269 -287q-246 -259 -257 -291q-4 -12 -4 -22q0 -5 1 -10l1 -5q8 -32 41 -32q8 0 18 3q75 24 150 49q136 41 181 41q15 0 21 -5q28 -23 66 -65q48 -56 56 -90
l1 -6q1 -4 1 -8q0 -14 -10 -20q-14 -9 -366 -102q-326 -87 -326 -122q-1 -12 -16 -12q-40 0 -140 67q-91 61 -98 90l-1 6q0 103 273 436q260 317 310 317h12q21 0 21 16q0 4 -1 7v4q-3 10 -8 20q-96 -25 -169 -44q-175 -51 -200 -81q-6 -5 -14 -5q-33 0 -92.5 65.5
t-71.5 113.5l-1 6v7q0 11 3 16zM511 1271q-15 0 -31 1q48 169 48 183q0 2 -1 2q-5 0 -9 19q-1 7 -1 14q0 8 1 16q1 5 3 12q20 80 122 116q19 6 37 6q40 0 74 -34q6 -5 50 -64q21 -28 21 -65q0 -11 -2 -21q-1 -7 -3 -15q-5 -17 -11 -31q-82 -139 -298 -139z" />
    <glyph glyph-name="Zdotaccent" unicode="&#x17b;" horiz-adv-x="1350" 
d="M81 1279l110 57q712 164 825 164h10q49 -4 98.5 -72.5t68.5 -140.5q3 -11 4 -22q2 -13 2 -23q0 -21 -8 -34q-15 -25 -336 -359q-308 -324 -321 -364q-5 -15 -5 -28q0 -6 1 -12l1 -6q10 -40 51 -40q10 0 23 4q94 30 188 61q169 51 226 51q18 0 26 -6q35 -29 82 -82
q60 -69 71 -112l1 -8q1 -5 1 -10q0 -17 -12 -24q-18 -12 -458 -128q-408 -109 -408 -152q-1 -16 -19 -16q-51 0 -175 84q-114 77 -123 113l-1 7q0 129 341 545q325 397 388 397h3q6 -1 11 -1q27 0 27 21q0 4 -1 8v5q-4 13 -11 25q-120 -31 -211 -55q-218 -64 -250 -101
q-7 -6 -17 -6q-41 0 -115.5 82t-89.5 141l-2 8v9q0 13 4 20zM807 1979q119 -45 142 -139l1 -8q1 -9 1 -19q0 -23 -8 -51l-19 -40q-35 -51 -70 -81q-54 -40 -107 -41q-38 0 -69 15q-81 46 -102 125q-2 10 -4 19q-2 13 -2 25q0 44 25 78l56 71l6 8q45 42 95 43q28 0 55 -5z
" />
    <glyph glyph-name="zdotaccent" unicode="&#x17c;" horiz-adv-x="1080" 
d="M65 1023l88 46q569 131 660 131h8q39 -3 78.5 -58t54.5 -112q3 -9 4 -18q1 -10 1 -18q0 -17 -6 -28q-12 -20 -269 -287q-246 -259 -257 -291q-4 -12 -4 -22q0 -5 1 -10l1 -5q8 -32 41 -32q8 0 18 3q75 24 150 49q136 41 181 41q15 0 21 -5q28 -23 66 -65q48 -56 56 -90
l1 -6q1 -4 1 -8q0 -14 -10 -20q-14 -9 -366 -102q-326 -87 -326 -122q-1 -12 -16 -12q-40 0 -140 67q-91 61 -98 90l-1 6q0 103 273 436q260 317 310 317h12q21 0 21 16q0 4 -1 7v4q-3 10 -8 20q-96 -25 -169 -44q-175 -51 -200 -81q-6 -5 -14 -5q-33 0 -92.5 65.5
t-71.5 113.5l-1 6v7q0 11 3 16zM646 1583q95 -36 113 -111l1 -6q1 -8 1 -16q0 -18 -7 -40l-15 -32q-28 -41 -56 -65q-43 -32 -85 -33q-31 0 -56 12q-64 37 -81 100q-2 8 -3 15q-2 11 -2 20q0 35 20 63l45 56l5 7q36 33 76 34q22 0 44 -4z" />
    </font>
</defs>
</svg>
