<?xml version="1.0" encoding="utf-8"?>
<!-- Generator: Adobe Illustrator 22.0.0, SVG Export Plug-In . SVG Version: 6.00 Build 0)  -->
<svg version="1.1" id="Layer_1" xmlns="http://www.w3.org/2000/svg" xmlns:xlink="http://www.w3.org/1999/xlink" x="0px" y="0px"
	 viewBox="0 0 209.9 209.9" style="enable-background:new 0 0 209.9 209.9;" xml:space="preserve">
<style type="text/css">
	.st0{clip-path:url(#SVGID_2_);fill:#015075;}
</style>
<g>
	<g>
		<defs>
			<rect id="SVGID_1_" width="209.9" height="209.9"/>
		</defs>
		<clipPath id="SVGID_2_">
			<use xlink:href="#SVGID_1_"  style="overflow:visible;"/>
		</clipPath>
		<path class="st0" d="M111.1,209.9H98.8c-0.5-0.1-1-0.3-1.6-0.3c-12.9-0.8-25.2-3.9-36.8-9.6c-32.2-15.9-51.9-41.5-58.8-76.7
			c-0.8-4-0.9-8.1-1.6-12.1V98.8c0.1-0.6,0.3-1.2,0.3-1.8c1-14.6,4.8-28.6,12-41.3C31.7,21.3,61.2,2.6,100.6,0.2
			c20.7-1.2,40.2,3.7,57.9,14.6c31.9,19.7,49.1,48.4,51.3,85.8c1.1,18.9-3,37-12.2,53.6c-16.3,29.6-41.1,47.7-74.3,54.1
			C119.2,209.1,115.1,209.2,111.1,209.9 M75,104.9c0,9.8,0,19.7,0,29.5c0,6.5,5.5,9.9,11.3,7c19.5-9.7,39-19.5,58.6-29.3
			c2.9-1.5,5-3.7,5-7.1c0-3.5-2-5.8-5-7.3c-19.4-9.7-38.8-19.4-58.2-29.1C80.4,65.6,75,69,75,76C75,85.6,75,95.3,75,104.9"/>
	</g>
</g>
</svg>
